<svg viewBox="0 0 60 61" fill="currentcolor" xmlns="http://www.w3.org/2000/svg"><path fill-rule="evenodd" style="fill:green" clip-rule="evenodd" d="M27.8883 15.0108C27.5301 15.0565 27.2291 15.1771 26.9471 15.3879C26.8233 15.4804 26.6399 15.6642 26.5484 15.7875C26.4594 15.9073 26.3833 16.0355 26.3237 16.1663C26.2449 16.3391 26.2152 16.4386 26.1908 16.6129C26.1769 16.7118 26.1768 17.2371 26.1906 17.3474C26.232 17.6767 26.3337 17.8768 26.6796 18.3091C27.0631 18.7885 27.599 19.3836 28.0885 19.8735C28.462 20.2473 28.6229 20.3857 28.8054 20.4902C29.1406 20.682 29.442 20.6793 29.7608 20.4816C29.9214 20.382 30.1096 20.2161 30.4636 19.8621C30.8619 19.4639 31.1009 19.2051 31.5866 18.6458C31.6626 18.5583 31.8845 18.2847 31.9724 18.17C32.1832 17.8951 32.28 17.7113 32.3397 17.4724C32.3825 17.3015 32.3994 17.1502 32.4062 16.8779C32.4129 16.6112 32.3938 16.4898 32.313 16.2845C32.2775 16.1941 32.1728 15.9845 32.1177 15.8935C31.7928 15.3564 31.3174 15.0661 30.6674 15.0078C30.5554 14.9978 30.2977 14.9977 30.1968 15.0077C29.8876 15.0383 29.6308 15.1206 29.4015 15.2624C29.3646 15.2852 29.3188 15.3158 29.2996 15.3304L29.2649 15.357L29.2232 15.3293C29.06 15.2209 28.8122 15.1104 28.6274 15.0636C28.457 15.0204 28.3438 15.0061 28.1495 15.0033C28.0272 15.0015 27.9418 15.0039 27.8883 15.0108ZM30.6305 16.3138C30.8508 16.3585 31.024 16.526 31.0845 16.753C31.1159 16.8706 31.1059 17.0702 31.0636 17.1714C31.0378 17.2332 30.8306 17.513 30.7058 17.6545C30.6909 17.6714 30.6447 17.7258 30.603 17.7754C30.4344 17.9762 30.2122 18.2245 29.9185 18.5401C29.7473 18.7241 29.2787 19.1951 29.2669 19.1951C29.2547 19.1951 28.9365 18.8794 28.7595 18.6916C28.2111 18.1098 27.6223 17.4102 27.5062 17.2026C27.4706 17.1389 27.4534 16.9646 27.4722 16.8585C27.4946 16.7319 27.5575 16.608 27.6444 16.5195C27.713 16.4495 27.7696 16.4102 27.8767 16.3579L27.9669 16.3138L28.0499 16.3112C28.1818 16.3071 28.3708 16.3424 28.436 16.3834C28.4832 16.4132 28.6119 16.5116 28.672 16.564C28.9073 16.769 29.0498 16.8426 29.2437 16.8593C29.2814 16.8625 29.3248 16.8602 29.3725 16.8524C29.5519 16.823 29.6769 16.7503 29.9026 16.5441C30.0448 16.4141 30.1504 16.3465 30.2518 16.3205C30.3522 16.2948 30.5221 16.2918 30.6305 16.3138ZM28.248 20.7707C27.9429 20.7777 27.8338 20.7869 27.6724 20.8193C27.0047 20.9533 26.3812 21.3326 25.986 21.8455C25.8467 22.0262 25.71 22.2765 25.6441 22.4712L25.6079 22.5781L25.1673 22.5829C24.925 22.5854 24.1815 22.5895 23.5151 22.5918C21.983 22.5972 20.6421 22.6084 20.3877 22.6178C19.9196 22.6351 19.7301 22.658 19.5358 22.7207C19.3914 22.7672 19.2804 22.8358 19.1295 22.9718C18.9299 23.1516 18.8479 23.2543 18.6958 23.5153C18.6311 23.6263 18.3568 24.17 18.2509 24.3975C18.0396 24.851 17.9743 25.101 18.0087 25.3251C18.0446 25.5592 18.2116 25.8669 18.3963 26.0395C18.6001 26.2298 18.8609 26.326 19.2146 26.3412C19.3051 26.3451 19.324 26.348 19.3269 26.358C19.3324 26.3771 19.4379 27.0362 19.5318 27.6385C19.5542 27.7822 19.5881 27.9969 19.6071 28.1156C19.6597 28.4449 19.7137 28.7882 19.759 29.0811C19.7815 29.2268 19.8071 29.3904 19.8159 29.4445C19.8247 29.4987 19.8536 29.6827 19.8802 29.8535C19.9346 30.2022 19.9749 30.4592 20.0507 30.9401C20.0792 31.1213 20.1266 31.4229 20.156 31.6103C20.1854 31.7977 20.225 32.0499 20.2441 32.1707C20.2631 32.2914 20.3004 32.53 20.3271 32.7007C20.3946 33.1331 20.47 33.6127 20.5888 34.3667C20.6098 34.5 20.6488 34.7487 20.6754 34.9195C20.7316 35.2797 20.7682 35.5127 20.8309 35.9077C20.8556 36.0639 20.8878 36.2701 20.9024 36.3658C20.917 36.4616 20.9359 36.5826 20.9444 36.6347C20.9528 36.6867 20.9782 36.8486 21.0008 36.9944C21.0234 37.1401 21.0575 37.3565 21.0766 37.4752C21.0958 37.5939 21.1198 37.7473 21.13 37.816C21.1402 37.8847 21.1554 37.9835 21.1639 38.0356C21.195 38.2273 21.2101 38.323 21.2324 38.471C21.245 38.5543 21.2738 38.7383 21.2965 38.8799C21.3191 39.0215 21.3514 39.226 21.3681 39.3343C21.3848 39.4426 21.4122 39.6181 21.4289 39.7243C21.4456 39.8305 21.4848 40.0792 21.5159 40.2771C21.547 40.4749 21.5896 40.7458 21.6106 40.8791C21.6317 41.0123 21.6591 41.1878 21.6716 41.2691C21.6842 41.3503 21.7113 41.5224 21.7319 41.6515C21.7526 41.7806 21.7883 42.0089 21.8114 42.1588C21.8344 42.3088 21.8599 42.4706 21.868 42.5185C21.8761 42.5664 21.8948 42.6857 21.9095 42.7836C21.9242 42.8814 21.943 43.0024 21.9512 43.0524C21.9783 43.2176 22.0033 43.3762 22.0236 43.5105C22.0345 43.5834 22.0587 43.7368 22.0772 43.8513C22.0957 43.9658 22.1245 44.1481 22.1411 44.2564C22.1576 44.3647 22.1881 44.5589 22.2088 44.6881C22.2625 45.0231 22.3162 45.3637 22.3675 45.6939C22.3919 45.8514 22.4131 45.9815 22.4145 45.9829C22.4212 45.9894 34.0764 46.0034 36.3127 45.9996C39.2703 45.9945 39.8004 45.9872 40.0013 45.9484C40.3033 45.8901 40.6724 45.7303 40.985 45.5226C41.2629 45.3379 41.5205 45.11 41.7655 44.8319C41.9637 44.607 42.1808 44.2694 42.37 43.8916C42.643 43.3467 42.8195 42.8414 42.897 42.3834C42.9342 42.1632 42.9369 42.1084 42.9404 41.4924C42.9445 40.7821 42.9383 40.6643 42.8811 40.3679C42.7639 39.7612 42.3825 38.8554 41.7779 37.7478C41.4802 37.2026 41.1627 36.6681 40.7573 36.03C40.6866 35.9187 40.2332 35.2391 40.168 35.1467C40.1357 35.1009 40.0882 35.0331 40.0625 34.9961C39.9402 34.8202 39.7043 34.498 39.4835 34.2053C39.3694 34.0541 39.2778 33.9263 39.2798 33.9213C39.2819 33.9164 39.3375 33.8513 39.4035 33.7766C40.6796 32.3326 41.189 31.6294 41.3176 31.1346C41.3903 30.8546 41.3445 30.6276 41.1755 30.4303C41.1378 30.3863 41.0453 30.3098 40.9816 30.27C40.7903 30.1504 40.4839 30.0585 40.1368 30.0167C39.8695 29.9844 39.4344 29.9857 39.126 30.0196C39.0781 30.0249 39.0372 30.0278 39.0351 30.026C39.0331 30.0243 39.0426 29.9472 39.0563 29.8549C39.0699 29.7625 39.0963 29.5812 39.1149 29.4521C39.1465 29.2327 39.1899 28.9451 39.2735 28.3995C39.2926 28.2746 39.325 28.0616 39.3455 27.9263C39.3659 27.7909 39.3948 27.6052 39.4096 27.5136C39.4244 27.4219 39.4485 27.2692 39.463 27.1741C39.4776 27.079 39.5114 26.8677 39.5381 26.7046C39.5649 26.5414 39.5891 26.3918 39.5919 26.372C39.5948 26.3522 39.6003 26.336 39.6041 26.336C39.608 26.336 39.6442 26.3324 39.6847 26.328C39.9735 26.2964 40.1708 26.2022 40.3719 25.9999C40.4861 25.8851 40.5554 25.7883 40.6291 25.641C40.7484 25.4024 40.7817 25.1949 40.7316 25.0007C40.6788 24.7961 40.4567 24.2734 40.2388 23.8409C39.9869 23.3411 39.8101 23.1043 39.5424 22.9083C39.4676 22.8535 39.3521 22.7879 39.174 22.6987L38.9989 22.6111L38.4888 22.6068C38.2082 22.6045 37.1029 22.5992 36.0325 22.5951C34.9621 22.591 33.8887 22.5854 33.6472 22.5828L33.208 22.578L33.1828 22.5004C33.1078 22.2693 32.9629 22.0106 32.7799 21.7811C32.686 21.6635 32.4893 21.4645 32.378 21.3745C32.2324 21.2569 31.9977 21.1061 31.8287 21.0216C31.5249 20.8696 31.2513 20.8139 30.6674 20.7853C30.2633 20.7655 28.845 20.7569 28.248 20.7707ZM30.0237 22.0731C30.6877 22.091 31.045 22.1197 31.1577 22.1642C31.3209 22.2286 31.54 22.3785 31.6821 22.5229L31.7389 22.5806L29.4204 22.5785C28.1453 22.5772 27.0993 22.5736 27.0961 22.5704C27.0864 22.5607 27.2044 22.447 27.2938 22.38C27.456 22.2584 27.6019 22.1857 27.7949 22.1302C27.8971 22.1009 27.9621 22.092 28.1647 22.0797C28.5098 22.0588 29.3781 22.0557 30.0237 22.0731ZM34.0523 23.8976C36.4258 23.9047 38.0647 23.9156 38.4945 23.9272C38.7457 23.934 38.7354 23.9313 38.805 24.0054C38.9226 24.1304 39.0533 24.3711 39.2925 24.9029L39.3512 25.0335L30.8047 25.0335C22.787 25.0334 20.3577 25.0287 19.6699 25.0116C19.5292 25.0081 19.4121 25.0033 19.4097 25.0009C19.4013 24.9925 19.7006 24.4173 19.836 24.1816C19.9307 24.0168 19.9534 23.984 19.9897 23.9594L20.0242 23.9361L20.4558 23.9284C22.1146 23.8987 29.1122 23.8828 34.0523 23.8976ZM35.3661 26.3515C37.3075 26.3587 38.2449 26.3667 38.2603 26.3762C38.2684 26.3812 38.2616 26.4298 38.1825 26.9343C38.0123 28.0201 37.651 30.2171 37.6278 30.3075C37.6221 30.3297 37.6163 30.3325 37.4747 30.3815C37.277 30.4498 37.2248 30.4707 37.1002 30.5312C36.8425 30.6564 36.6651 30.8163 36.5276 31.0477C36.404 31.2554 36.3402 31.4298 36.2979 31.6747C36.2619 31.8831 36.2532 31.9996 36.2529 32.2767C36.2524 32.6006 36.2636 32.7383 36.3253 33.1711C36.3426 33.2924 36.3548 33.3967 36.3523 33.4031C36.3499 33.4094 36.277 33.4649 36.1902 33.5264C36.1035 33.5879 35.9627 33.6877 35.8773 33.7482C35.3118 34.1487 34.6326 34.6663 34.18 35.0416C33.4536 35.6441 32.9091 36.139 32.3598 36.6964C31.3273 37.744 30.6709 38.6373 30.2933 39.5084C30.0135 40.1538 29.7755 41.0614 29.6757 41.8635C29.6069 42.4163 29.607 42.9763 29.6762 43.4348C29.7416 43.8683 29.8723 44.2773 30.0468 44.5944C30.0757 44.6471 30.0994 44.6922 30.0994 44.6948C30.0994 44.6973 28.6226 44.6994 26.8175 44.6994H23.5356L23.5274 44.652C23.5228 44.6259 23.5036 44.5041 23.4846 44.3813C23.4657 44.2585 23.4402 44.0983 23.428 44.0255C23.4157 43.9526 23.3904 43.7941 23.3717 43.6733C23.353 43.5526 23.3173 43.3259 23.2925 43.1698C23.2676 43.0136 23.225 42.7444 23.1977 42.5715C23.1705 42.3987 23.1309 42.1482 23.1099 42.015C23.0888 41.8817 23.0531 41.6534 23.0306 41.5076C23.008 41.3618 22.9791 41.1778 22.9662 41.0987C22.9533 41.0195 22.9309 40.8764 22.9164 40.7806C22.9018 40.6848 22.8731 40.5008 22.8524 40.3717C22.8318 40.2426 22.8016 40.0501 22.7852 39.9439C22.7687 39.8377 22.7395 39.6502 22.7201 39.5274C22.7007 39.4045 22.663 39.166 22.6364 38.9973C22.6097 38.8286 22.5778 38.6242 22.5653 38.5429C22.5435 38.4006 22.5061 38.1622 22.4019 37.5017C22.3208 36.9875 22.2862 36.7671 22.2354 36.4416C22.2088 36.2708 22.1714 36.0323 22.1524 35.9115C22.1333 35.7907 22.0921 35.5283 22.0606 35.3284C22.0292 35.1285 21.9917 34.89 21.9772 34.7983C21.9627 34.7067 21.9388 34.5551 21.9241 34.4614C21.9094 34.3676 21.8721 34.1308 21.8412 33.9351C21.7364 33.2704 21.7159 33.1403 21.6675 32.8295C21.6205 32.5281 21.5988 32.3901 21.4895 31.6974C21.461 31.5162 21.4135 31.2146 21.3841 31.0272C21.3547 30.8398 21.3151 30.5876 21.2962 30.4668C21.2188 29.9744 21.0433 28.8505 21.0005 28.5737C20.9818 28.4529 20.9447 28.2144 20.918 28.0436C20.7966 27.2653 20.769 27.087 20.7475 26.9418C20.7349 26.8564 20.7097 26.6895 20.6914 26.5708C20.6731 26.4521 20.6597 26.3524 20.6616 26.3493C20.6666 26.3408 33.0069 26.3427 35.3661 26.3515ZM29.2437 27.4492C29.0782 27.4642 28.9266 27.5073 28.7491 27.59C28.3243 27.7877 28.1692 27.9437 27.8239 28.5207C27.4736 29.1061 27.2011 29.6082 27.1541 29.7549C27.0905 29.9537 27.1073 30.1169 27.2074 30.2702C27.3177 30.4391 27.4894 30.5465 27.6984 30.577C27.8659 30.6015 28.0392 30.5507 28.1467 30.4455C28.2414 30.353 28.4104 30.097 28.7177 29.5809C28.8766 29.314 28.9806 29.1482 29.0904 28.9864C29.2077 28.8137 29.22 28.8004 29.2789 28.7822C29.3786 28.7514 29.5643 28.7433 29.6268 28.767C29.6749 28.7853 29.7577 28.8569 29.7952 28.9126C29.9106 29.0842 30.4629 30.0121 30.4629 30.0345C30.4629 30.037 30.4497 30.039 30.4336 30.039C30.3406 30.039 30.2007 30.0815 30.1146 30.136C30.0184 30.1969 29.9211 30.3157 29.8777 30.4252C29.8435 30.5117 29.8321 30.5891 29.8365 30.7047C29.8412 30.8278 29.8572 30.8905 29.9088 30.9886C29.9718 31.1085 30.0699 31.1984 30.1942 31.2502C30.3198 31.3025 30.6763 31.3819 31.046 31.44C31.1564 31.4573 31.3404 31.4885 31.4549 31.5093C31.7588 31.5646 31.7758 31.5664 31.8446 31.5515C32.0124 31.5151 32.124 31.4003 32.2345 31.1503C32.3209 30.9547 32.4988 30.4784 32.5703 30.251C32.6595 29.9677 32.6702 29.9124 32.67 29.7361C32.6698 29.6043 32.6686 29.5924 32.6494 29.5354C32.5969 29.3793 32.4857 29.2592 32.3229 29.1829C32.2201 29.1347 32.1566 29.1205 32.0418 29.1201C31.9502 29.1198 31.9384 29.1214 31.8725 29.1441C31.7775 29.1767 31.7069 29.2193 31.6363 29.2868L31.5776 29.3428L31.5627 29.318C31.5545 29.3043 31.5093 29.2266 31.4623 29.1454C31.1683 28.6377 30.9182 28.2391 30.7708 28.0436C30.6388 27.8685 30.4408 27.7087 30.2266 27.6041C30.0761 27.5307 29.9332 27.4883 29.7397 27.4599C29.6491 27.4466 29.3448 27.44 29.2437 27.4492ZM27.0212 30.4222C26.8823 30.4421 26.7644 30.4628 26.6123 30.4938C26.5123 30.5142 26.3402 30.5478 26.2299 30.5686C25.7897 30.6514 25.74 30.6645 25.6326 30.7264C25.4157 30.8516 25.306 31.0454 25.306 31.3036C25.306 31.4529 25.3352 31.5574 25.4067 31.6646C25.4906 31.7902 25.6351 31.8834 25.7874 31.9102C25.8163 31.9153 25.8425 31.9217 25.8457 31.9244C25.8489 31.9271 25.7947 32.0279 25.7253 32.1484C25.5728 32.4131 25.4857 32.5669 25.4252 32.678C25.4002 32.7238 25.3773 32.7647 25.3741 32.7689C25.3653 32.7806 25.1767 33.1375 25.13 33.2308C24.9787 33.5333 24.9327 33.7116 24.9327 33.9956C24.9327 34.2461 24.9762 34.4489 25.0802 34.6847C25.2431 35.0538 25.5337 35.3648 25.8951 35.5568C26.1386 35.6862 26.2685 35.7028 27.156 35.7183C27.7214 35.7282 28.1574 35.728 28.2658 35.7179C28.4977 35.6961 28.6336 35.6186 28.748 35.4428C28.8144 35.3407 28.8651 35.2039 28.8651 35.127C28.8651 35.1112 28.8681 35.0965 28.8717 35.0943C28.8753 35.092 28.9714 35.2154 29.0853 35.3683C29.7431 36.2518 29.7838 36.3042 29.9174 36.4386C30.0606 36.5825 30.1598 36.6361 30.3238 36.658C30.5487 36.688 30.7377 36.615 30.8743 36.4454C30.932 36.3737 31.0001 36.2431 31.0192 36.1677C31.0489 36.05 31.0387 35.9267 30.9892 35.804C30.9747 35.7679 30.9647 35.7366 30.9669 35.7344C30.9692 35.7321 31.2545 35.728 31.601 35.7251C31.948 35.7222 32.2787 35.716 32.3371 35.7113C32.7738 35.6761 32.9944 35.6051 33.2422 35.4199C33.3596 35.3323 33.5256 35.1734 33.6101 35.068C33.9197 34.6816 34.0472 34.1922 33.9646 33.7079C33.9304 33.5075 33.7427 33.098 33.4177 32.5152C33.1376 32.0127 32.9504 31.7289 32.8131 31.5984C32.5767 31.3735 32.3198 31.3491 32.0535 31.5264C31.9229 31.6134 31.8435 31.7096 31.8009 31.8328C31.7737 31.9116 31.765 32.0389 31.7803 32.1347C31.8097 32.3195 31.9372 32.5906 32.2367 33.1051C32.381 33.353 32.507 33.5829 32.6106 33.7874C32.6851 33.9343 32.6854 33.9353 32.6846 33.9881C32.6834 34.0541 32.6565 34.1371 32.6118 34.2118C32.5789 34.267 32.4959 34.3529 32.4551 34.374C32.3998 34.4026 32.1918 34.4132 31.5515 34.4204C31.1429 34.425 31.0839 34.4243 31.0839 34.4145C31.0839 34.4084 31.0921 34.3792 31.1022 34.3496C31.1922 34.0848 31.1008 33.8192 30.8643 33.6587C30.7678 33.5933 30.6354 33.542 30.5282 33.5286C30.3954 33.512 30.2812 33.5533 30.1344 33.6709C29.9035 33.8558 29.5798 34.1919 28.9837 34.8655C28.9218 34.9354 28.8699 34.9911 28.8682 34.9895C28.8665 34.9878 28.8587 34.9611 28.8508 34.9302C28.8329 34.8605 28.8065 34.8001 28.769 34.7435C28.7334 34.6896 28.6404 34.5911 28.5905 34.5545C28.5365 34.5149 28.4304 34.4717 28.3439 34.454C28.2273 34.4303 28.0578 34.4245 27.343 34.4202C26.6517 34.4159 26.5537 34.4117 26.4995 34.3842C26.3913 34.3292 26.3333 34.2698 26.2803 34.1596C26.2446 34.0857 26.2414 34.0745 26.2417 34.0259C26.2424 33.9114 26.3473 33.6925 26.6883 33.0945C26.9267 32.6764 27.0035 32.5455 27.01 32.5455C27.0123 32.5455 27.0204 32.556 27.028 32.5689C27.0708 32.6413 27.187 32.746 27.2712 32.7878C27.3701 32.8369 27.4402 32.851 27.5623 32.8463C27.6819 32.8417 27.7469 32.8258 27.8369 32.7789C27.9817 32.7036 28.1192 32.5245 28.1619 32.3558C28.1858 32.2611 28.1794 32.1379 28.1435 32.0003C28.0922 31.804 27.7847 30.9675 27.7064 30.8114C27.6001 30.5995 27.4622 30.4796 27.2749 30.4366C27.2203 30.424 27.0684 30.4154 27.0212 30.4222ZM39.7393 31.3177C39.7393 31.3351 39.3791 31.7878 39.1033 32.117C39.0304 32.2041 38.9604 32.2876 38.9479 32.3027C38.7751 32.5113 38.4446 32.8858 38.2401 33.1047L38.1528 33.1982L38.1225 33.1944C37.9212 33.1693 37.637 33.1257 37.633 33.1193C37.6161 33.0919 37.591 32.8043 37.5801 32.5144C37.5735 32.3377 37.5736 32.2368 37.5804 32.0903C37.5922 31.8379 37.6034 31.7716 37.6402 31.7375C37.7231 31.6608 38.1611 31.5187 38.6496 31.4102C38.895 31.3558 39.0215 31.3356 39.1757 31.3264C39.4063 31.3127 39.7393 31.3075 39.7393 31.3177ZM37.5319 34.4272C37.8008 34.4679 37.8612 34.4785 37.9687 34.5039L38.0495 34.523L38.1577 34.6531C38.3027 34.8275 38.3087 34.8349 38.4066 34.9611C38.7844 35.4484 39.2978 36.1761 39.638 36.7067C39.6593 36.74 39.7025 36.8069 39.7338 36.8554C40.15 37.499 40.5899 38.2651 40.9183 38.9178C41.3079 39.6924 41.5391 40.2922 41.6092 40.7101C41.6831 41.151 41.6749 41.7982 41.5898 42.2421C41.4709 42.8627 41.1612 43.5124 40.7651 43.9725C40.5143 44.2637 40.246 44.4725 39.9507 44.6059C39.843 44.6546 39.7966 44.6661 39.6673 44.6761C39.516 44.6878 39.2092 44.6951 39.2092 44.6871C39.2092 44.6832 39.2319 44.6514 39.2597 44.6162C39.8122 43.9175 40.2158 43.0106 40.3635 42.1361C40.4312 41.7352 40.4466 41.0325 40.4014 40.402C40.379 40.0891 40.3573 39.9383 40.2845 39.5895C40.1674 39.0279 40.0282 38.6075 39.9098 38.4578C39.8074 38.3283 39.6269 38.2476 39.4397 38.2476C39.2491 38.2476 39.1117 38.3057 38.9733 38.4448C38.8475 38.5713 38.8002 38.6791 38.8003 38.8392C38.8004 38.9645 38.8152 39.0431 38.922 39.4857C39.0151 39.8718 39.0306 39.9473 39.0534 40.1272C39.1327 40.7528 39.1373 41.477 39.0647 41.9203C39.0109 42.2489 38.8971 42.6205 38.7458 42.9615C38.6754 43.1201 38.6272 43.2133 38.534 43.3704C38.292 43.7788 37.7805 44.349 37.4031 44.631L37.3123 44.699L35.7607 44.6992L34.2091 44.6994L34.0808 44.5688C34.0102 44.4969 33.9225 44.4047 33.8858 44.3639C33.6441 44.0945 33.479 43.7457 33.4281 43.3969C33.379 43.0598 33.4074 42.5313 33.4947 42.1578C33.5419 41.9561 33.5535 41.8792 33.558 41.7408C33.5617 41.6248 33.5603 41.6028 33.5457 41.5393C33.4868 41.2846 33.2869 41.1172 33.0037 41.0856C32.8074 41.0636 32.6308 41.1246 32.4923 41.2619C32.2718 41.4808 32.1627 41.8595 32.1284 42.5252C32.1157 42.7703 32.1233 43.5273 32.1396 43.6538C32.1761 43.9364 32.2941 44.2675 32.4797 44.6078C32.5033 44.6511 32.5226 44.6893 32.5226 44.6926C32.5226 44.696 32.5065 44.6972 32.4867 44.6954C32.4669 44.6936 32.4098 44.6883 32.3598 44.6837C32.1777 44.667 31.9726 44.6187 31.8441 44.5624C31.7009 44.4996 31.5551 44.4028 31.442 44.2955C31.1848 44.0515 31.0165 43.6524 30.9593 43.1508C30.8911 42.552 30.9575 41.8556 31.1597 41.0497C31.3512 40.2863 31.5735 39.7662 31.9495 39.2018C32.1356 38.9225 32.4815 38.4881 32.7426 38.206C32.7618 38.1851 32.8233 38.1187 32.8791 38.0583C33.2388 37.6694 33.7524 37.1618 34.128 36.824C34.1673 36.7886 34.2218 36.7391 34.249 36.7141C34.3303 36.6391 34.644 36.3661 34.802 36.2327C35.3902 35.736 36.013 35.2535 36.6383 34.81C36.8644 34.6496 36.9281 34.6056 37.0472 34.5277C37.2236 34.4123 37.2706 34.3854 37.2888 34.3894C37.2976 34.3913 37.4069 34.4083 37.5319 34.4272Z"/></svg>