<svg viewBox="0 0 60 61" fill="currentcolor" xmlns="http://www.w3.org/2000/svg"><path style="fill:green" fill-rule="evenodd" clip-rule="evenodd" d="M30.2478 15.0018C29.8974 15.0278 29.712 15.0685 29.508 15.1639C29.1597 15.327 28.8296 15.5923 28.2298 16.1912C27.7739 16.6463 27.5875 16.8519 27.4638 17.0359C27.4064 17.1213 27.3811 17.169 27.3518 17.2473C27.3328 17.2978 27.3313 17.3095 27.3309 17.4105C27.3305 17.5053 27.3327 17.5265 27.3475 17.5738C27.3974 17.7332 27.5196 17.9146 27.7093 18.1108L27.776 18.1798L27.4976 18.4586L27.2191 18.7375L27.1369 18.6613C26.9738 18.5101 26.8939 18.4503 26.7789 18.3934C26.6609 18.3351 26.5756 18.3136 26.4595 18.3129C26.2525 18.3116 26.1073 18.393 25.7593 18.705C25.4399 18.9913 24.9314 19.49 23.5201 20.9011C22.2108 22.2102 21.7288 22.7 21.4202 23.035C21.0875 23.3963 20.9819 23.5454 20.9396 23.7133C20.9181 23.7988 20.923 23.9334 20.9512 24.0291C20.995 24.1781 21.101 24.3409 21.2659 24.5125L21.3532 24.6034L21.0748 24.8818C20.8187 25.1378 20.7953 25.1593 20.7832 25.1498C20.776 25.1441 20.7423 25.1129 20.7083 25.0804C20.5119 24.8927 20.34 24.779 20.1822 24.7324C20.0928 24.706 19.9696 24.704 19.8869 24.7276C19.6836 24.7858 19.4924 24.9381 18.9791 25.4506C18.2438 26.185 17.9728 26.5033 17.8036 26.8316C17.6442 27.1409 17.5958 27.4215 17.6154 27.9242C17.6326 28.3645 17.6663 28.5352 17.7835 28.7753C17.8973 29.0083 18.0615 29.2279 18.4074 29.6095C18.5291 29.7438 18.5438 29.7595 18.7856 30.0123C19.3152 30.5662 21.8662 33.1154 22.2867 33.511C22.3346 33.5561 22.395 33.6131 22.421 33.6376C22.8851 34.0772 23.2506 34.3452 23.5313 34.4519C23.7156 34.5219 23.8473 34.5462 24.1518 34.5664C24.6189 34.5975 24.8487 34.566 25.217 34.4204C25.5721 34.2801 25.7985 34.0964 26.5718 33.3213C26.9728 32.9195 27.2752 32.5873 27.3779 32.4361C27.499 32.2577 27.5109 32.0909 27.4157 31.9031C27.3622 31.7974 27.2388 31.6307 27.1053 31.4834L27.0275 31.3976L27.2301 31.1932C27.3415 31.0807 27.4659 30.9547 27.5065 30.9132L27.5803 30.8378L27.6261 30.8806C27.942 31.1757 28.2066 31.3014 28.4207 31.258C28.5779 31.2262 28.7145 31.1391 28.985 30.8984C29.1149 30.7827 29.2441 30.6577 29.6237 30.2799L29.9503 29.9549L31.8952 31.8975C38.8065 38.8006 39.523 39.5131 40.4804 40.434C40.7286 40.6728 40.9904 40.9143 41.1336 41.0365C41.2432 41.1302 41.2726 41.1532 41.3477 41.2048C41.4663 41.2863 41.5275 41.3119 41.6904 41.3478C42.18 41.4559 42.5601 41.3662 42.9717 41.0455C43.198 40.8691 43.5341 40.5295 43.6873 40.3222C43.8448 40.1091 43.937 39.9143 43.9832 39.6973C43.9983 39.6261 44.0001 39.5986 44 39.4433C43.9998 39.2536 43.9921 39.1909 43.946 39.0071C43.8895 38.7815 43.7579 38.6121 43.1153 37.9374C42.3592 37.1437 41.1229 35.8988 36.0049 30.7777C34.1178 28.8894 32.5738 27.3417 32.5738 27.3383C32.5738 27.335 32.733 27.172 32.9276 26.9761C33.5805 26.3189 33.7489 26.1241 33.8337 25.9279C33.9455 25.6694 33.8553 25.4146 33.5188 25.0382L33.4542 24.9659L33.7295 24.6935C33.8809 24.5436 34.0075 24.4199 34.0108 24.4187C34.0142 24.4175 34.0473 24.4448 34.0845 24.4793C34.1217 24.5139 34.1914 24.5738 34.2393 24.6124C34.5557 24.8676 34.7522 24.9218 34.9675 24.8134C35.1386 24.7273 35.5631 24.3402 36.2061 23.6844C36.302 23.5866 36.4048 23.4803 36.4347 23.4483C36.4646 23.4163 36.5088 23.3689 36.533 23.3431C36.6638 23.2034 36.7945 23.041 36.8727 22.921C37.1903 22.4337 37.2826 21.6972 37.1053 21.0661C37.0572 20.8947 36.9761 20.7026 36.9125 20.6091C36.7676 20.3961 36.4717 20.0698 35.785 19.3658C35.5807 19.1564 33.6054 17.1813 33.1725 16.7537C32.4185 16.0089 32.0491 15.6568 31.79 15.4361C31.6051 15.2786 31.4484 15.1767 31.3126 15.1254C31.1837 15.0767 31.0008 15.0381 30.7921 15.0157C30.69 15.0047 30.3318 14.9955 30.2478 15.0018ZM30.4982 16.3984C30.5828 16.4072 30.6955 16.431 30.7298 16.4472C30.7539 16.4587 30.8628 16.5406 30.9137 16.5856C30.9267 16.5971 30.9683 16.6338 31.0062 16.6673C31.3521 16.9725 31.8638 17.4742 33.6804 19.2894C35.0137 20.6217 35.2779 20.8912 35.5083 21.1541C35.6751 21.3443 35.7116 21.4023 35.7443 21.5297C35.8115 21.7908 35.789 21.926 35.6405 22.1531C35.5322 22.3187 35.3873 22.4817 35.0181 22.8534L34.7514 23.1219L31.8955 20.2663L29.0396 17.4106L29.2119 17.2375C29.8497 16.597 30.1184 16.4081 30.4147 16.392C30.4227 16.3915 30.4603 16.3944 30.4982 16.3984ZM29.3879 19.7982C29.5535 19.9617 30.432 20.8377 31.34 21.7448L32.991 23.394L32.7134 23.6716L32.4359 23.9492L30.3375 21.8508L28.2391 19.7525L28.5132 19.4787L28.7873 19.2049L28.937 19.3529C29.0193 19.4343 29.2222 19.6347 29.3879 19.7982ZM26.6538 20.2717C27.2677 20.8769 27.8646 21.4713 29.9059 23.5109L32.133 25.736L30.24 27.628L28.347 29.5201L27.3745 28.5453C26.8396 28.0092 25.5594 26.7273 24.5296 25.6966L22.6573 23.8226L22.7441 23.7334C23.3152 23.1476 23.6118 22.8482 24.5686 21.8913C25.5065 20.9533 25.9999 20.4647 26.3616 20.1155C26.3956 20.0828 26.4259 20.0559 26.429 20.0559C26.4321 20.0558 26.5333 20.1529 26.6538 20.2717ZM24.4639 27.7266L26.5612 29.8239L26.2849 30.1002L26.0086 30.3765L23.9136 28.282C22.7614 27.13 21.8186 26.1848 21.8186 26.1816C21.8186 26.1746 22.3549 25.6293 22.3618 25.6293C22.3644 25.6293 23.3104 26.5731 24.4639 27.7266ZM20.8353 27.2478C21.2704 27.6783 22.5499 28.9543 23.6787 30.0833L25.7311 32.1361L25.4856 32.3788C25.0289 32.8304 24.8105 33.015 24.6235 33.1076C24.5179 33.1599 24.4649 33.172 24.3623 33.1673C24.2363 33.1616 24.0715 33.119 23.9935 33.072C23.9269 33.0319 23.764 32.8972 23.6329 32.7739C23.2587 32.4216 22.9385 32.1064 21.9964 31.1626C19.769 28.9312 19.3266 28.4758 19.1192 28.2019C19.062 28.1263 19.0496 28.0993 19.036 28.0205C19.0062 27.8479 19.0342 27.6028 19.1006 27.4548C19.1353 27.3776 19.5191 26.9427 19.9064 26.5419L20.008 26.4368L20.0261 26.4509C20.0361 26.4587 20.4002 26.8173 20.8353 27.2478ZM35.865 32.6705C40.6296 37.437 41.1847 37.9944 41.7653 38.5944C42.212 39.0561 42.5135 39.387 42.5395 39.4441C42.5462 39.4586 42.5434 39.4657 42.5193 39.4957C42.4468 39.5859 42.0909 39.9331 42.0709 39.9331C42.0514 39.9331 41.8807 39.7874 41.6634 39.5851C41.0892 39.0508 40.295 38.2616 33.9381 31.9086L30.9663 28.9386L31.2566 28.6483C31.4162 28.4886 31.5485 28.358 31.5505 28.358C31.5525 28.358 33.494 30.2986 35.865 32.6705ZM16.9824 37.4312C16.8654 37.5977 16.8052 37.7047 16.7855 37.7814C16.7294 37.9996 16.7233 38.1381 16.7178 39.3163L16.7132 40.2924L16.3214 40.297C15.957 40.3012 15.8464 40.3059 15.6508 40.3255C15.4175 40.3487 15.3088 40.3904 15.2002 40.4982C15.0711 40.6263 15.032 40.7498 15.0101 41.0979C14.9966 41.3125 14.9966 43.4093 15.0101 43.7359C15.0325 44.2788 15.0628 44.4073 15.1992 44.5359C15.2773 44.6096 15.3547 44.641 15.4977 44.657C15.6687 44.6761 16.2512 44.6888 17.5696 44.7019C18.7051 44.7132 33.4953 44.7192 35.2988 44.709C37.2637 44.698 37.8013 44.684 38 44.6389C38.2819 44.5747 38.4279 44.3902 38.4702 44.0445C38.4918 43.868 38.497 43.6398 38.5007 42.6908C38.5054 41.4844 38.4953 41.0469 38.4585 40.8669C38.4169 40.6634 38.3229 40.5221 38.1665 40.4278C38.0391 40.351 37.8678 40.3143 37.5522 40.2963C37.416 40.2885 36.9426 40.2742 36.8212 40.2742H36.7549L36.751 40.2361C36.7489 40.2152 36.7436 39.8372 36.7394 39.3961C36.7274 38.1583 36.7161 37.9141 36.6625 37.7289C36.6068 37.5368 36.4741 37.3969 36.3061 37.3531C36.1745 37.3188 35.791 37.3039 34.7146 37.2911C33.692 37.2789 28.9258 37.2705 22.8518 37.2701L17.0958 37.2698L16.9824 37.4312ZM35.3224 39.514L35.3206 40.2924H26.7499H18.1792L18.1773 39.514L18.1755 38.7357H26.7499H35.3243L35.3224 39.514ZM37.0442 42.5069V43.3173L34.2084 43.3123C32.6488 43.3096 28.912 43.3043 25.9044 43.3006C22.8969 43.2969 19.534 43.2916 18.4313 43.289L16.4264 43.2841L16.4234 43.2687C16.4181 43.2423 16.4075 41.9231 16.4117 41.8272L16.4157 41.7365L16.5754 41.732C16.964 41.7209 18.1462 41.7093 19.3911 41.7044C20.1335 41.7014 24.4092 41.6985 28.8926 41.6978L37.0442 41.6966V42.5069Z"/></svg>