<svg viewBox="0 0 60 61" fill="currentcolor" xmlns="http://www.w3.org/2000/svg"><path style="fill:green" fill-rule="evenodd" clip-rule="evenodd" d="M22.3924 16.0249C20.8903 16.2059 19.6766 17.1993 19.1633 18.6679L19.0172 19.0858L19.0036 30.2277C18.9936 38.4435 19.0039 41.4422 19.0426 41.6459C19.3331 43.1707 20.5112 44.3617 22.0522 44.6882C22.5355 44.7906 32.2245 44.7877 32.7127 44.685C34.1252 44.3878 35.2843 43.275 35.6395 41.8749C35.7517 41.4322 35.7531 41.4029 35.7531 39.4086V37.3903L35.6115 37.229C35.4334 37.0262 35.2278 36.9797 34.9958 37.0898C34.6929 37.2335 34.6941 37.2251 34.6941 39.2454C34.6941 41.2193 34.6653 41.537 34.4422 42.0244C34.3093 42.3147 33.9746 42.7984 33.8119 42.9351C33.3692 43.3074 32.9502 43.5188 32.4466 43.6243C32.0274 43.712 22.7736 43.7317 22.3459 43.6457C21.3472 43.445 20.5501 42.7611 20.2016 41.8059L20.0761 41.4618L20.064 30.5383C20.0535 21.0317 20.0608 19.5723 20.1202 19.2875C20.316 18.3486 21.0186 17.5665 21.9638 17.2351L22.3321 17.106L27.2211 17.0933C31.4306 17.0824 32.1564 17.0902 32.4425 17.1499C33.2917 17.3269 33.9903 17.86 34.3673 18.6186C34.6694 19.2264 34.6941 19.4431 34.6941 21.4826V23.2617L34.8507 23.4183C35.0762 23.6438 35.371 23.6438 35.5965 23.4183L35.7531 23.2617L35.7528 21.3119C35.7525 19.5307 35.7446 19.3293 35.6616 18.9833C35.3151 17.538 34.2103 16.4486 32.7211 16.0838C32.4497 16.0174 31.8656 16.0077 27.5578 15.9983C24.8862 15.9925 22.5619 16.0044 22.3924 16.0249ZM43.6491 19.5871C43.4601 19.6746 42.425 20.5517 42.3257 20.7086C42.1537 20.9802 42.25 21.3146 42.5409 21.4554C42.7875 21.5747 42.99 21.5236 43.2918 21.2656C43.4124 21.1626 43.5634 21.034 43.6276 20.9799C44.255 20.4499 44.3534 20.3475 44.3821 20.1939C44.4607 19.7751 44.024 19.4136 43.6491 19.5871ZM21.1765 19.9099C20.9467 20.1397 20.9499 20.4361 21.1844 20.6573L21.3488 20.8123H27.3331C33.9064 20.8123 33.5064 20.8297 33.6574 20.5376C33.7783 20.3039 33.7485 20.0877 33.5707 19.9099L33.4142 19.7534H27.3736H21.333L21.1765 19.9099ZM41.1169 21.7403C41.0057 21.7708 40.3101 22.3238 39.4824 23.0395C39.4191 23.0943 38.9269 23.5084 38.3886 23.9597C37.8503 24.411 37.379 24.8245 37.3412 24.8784C37.3034 24.9324 37.2724 25.0629 37.2724 25.1686C37.2724 25.6058 37.8502 25.8597 38.1737 25.5647C38.2224 25.5202 38.6042 25.1984 39.022 24.8494C39.4398 24.5005 39.8231 24.178 39.8738 24.1328C39.9244 24.0877 40.2248 23.8366 40.5414 23.5748C40.8579 23.3131 41.1927 23.0275 41.2854 22.9403C41.3944 22.8375 41.4756 22.7941 41.5156 22.8172C41.5495 22.8369 41.5622 22.8363 41.5438 22.8159C41.5254 22.7955 41.572 22.7086 41.6474 22.6227C41.9987 22.2226 41.6247 21.6005 41.1169 21.7403ZM30.7806 23.7873C29.7494 23.9135 28.8133 24.2625 27.9327 24.8489C25.6477 26.3707 24.5733 29.1351 25.2374 31.7839C25.4096 32.4708 25.735 33.2378 26.047 33.6927C26.121 33.8006 26.1685 33.9098 26.1526 33.9356C26.1367 33.9613 26.1423 33.9767 26.1652 33.9697C26.188 33.9628 26.3741 34.1539 26.5787 34.3945C28.8324 37.044 32.7308 37.4586 35.4542 35.3384C37.8824 33.4481 38.6592 30.1569 37.3234 27.4192C36.4365 25.6015 34.8124 24.3255 32.8333 23.8913C32.4256 23.8018 31.1783 23.7387 30.7806 23.7873ZM45.721 24.6393C44.8572 24.9583 44.7311 25.0551 44.7311 25.3988C44.7311 25.5774 44.7551 25.6339 44.8876 25.7664C45.1024 25.9811 45.2694 25.9727 45.9769 25.7113C46.292 25.5948 46.6163 25.4776 46.6976 25.4508C47.2005 25.285 47.254 24.6217 46.7804 24.4238C46.5599 24.3317 46.5466 24.3343 45.721 24.6393ZM31.9582 24.8671C34.623 25.128 36.6054 27.1062 36.8629 29.7611C37.0989 32.1951 35.5268 34.583 33.1978 35.328C32.5126 35.5472 32.3599 35.5686 31.4943 35.5667C30.7399 35.565 30.6222 35.5535 30.1825 35.4377C28.7483 35.0602 27.4662 34.0596 26.7808 32.783C24.9583 29.3885 27.1802 25.2379 31.0179 24.8675C31.2293 24.8472 31.4141 24.8276 31.4287 24.8242C31.4433 24.8207 31.6816 24.8401 31.9582 24.8671ZM31.1426 25.4548C31.0204 25.564 30.9933 25.626 30.9759 25.8364L30.955 26.0878L30.6523 26.1934C30.2463 26.3351 29.9346 26.5422 29.6296 26.8728C29.1711 27.3699 29.0041 27.8563 29.0421 28.584C29.0629 28.9799 29.0815 29.0496 29.2613 29.4043C29.56 29.9934 30.1174 30.4657 30.7231 30.643L30.9648 30.7137V31.9556C30.9648 32.8068 30.9493 33.1974 30.9155 33.1974C30.809 33.1974 30.4534 32.9075 30.3172 32.7095C30.2172 32.5642 30.1557 32.3992 30.1157 32.1684C30.0437 31.7539 29.9955 31.6632 29.7969 31.5689C29.3733 31.3679 29.0305 31.6272 29.0316 32.1477C29.0337 33.0773 29.7851 34.01 30.7691 34.3044C30.9558 34.3603 30.9648 34.3713 30.9648 34.5422C30.9648 34.8875 31.1844 35.1311 31.4957 35.1311C31.8416 35.1311 32.0687 34.8782 32.0703 34.4912C32.0707 34.3846 32.1084 34.3573 32.4125 34.2434C34.0764 33.6198 34.5342 31.653 33.3021 30.421C32.9961 30.1149 32.5617 29.8578 32.1957 29.7659L32.0698 29.7343V28.4962C32.0698 27.5358 32.0827 27.2584 32.1274 27.2592C32.2451 27.2616 32.6205 27.5839 32.737 27.7828C32.8062 27.9008 32.8784 28.1225 32.9064 28.3024C32.9662 28.6877 33.0749 28.8515 33.3136 28.9158C33.6856 29.0159 34.0039 28.7526 34.003 28.3454C34.0009 27.4252 33.3185 26.5201 32.3801 26.1927C32.1282 26.1047 32.0698 26.0659 32.0698 25.9863C32.0698 25.5763 31.8585 25.3244 31.5145 25.3244C31.3315 25.3244 31.2608 25.3491 31.1426 25.4548ZM43.1596 25.576C43.1478 25.5878 42.9113 25.6784 42.634 25.7773C39.4957 26.897 38.8465 27.1452 38.7493 27.2629C38.4594 27.6139 38.6956 28.1339 39.1442 28.1322C39.3493 28.1314 39.2132 28.177 41.3471 27.3954C42.2587 27.0615 43.1533 26.7373 43.3352 26.6748C43.842 26.5008 44.0203 26.2575 43.9026 25.9008C43.8263 25.6694 43.6587 25.5546 43.3974 25.5546C43.2784 25.5546 43.1714 25.5642 43.1596 25.576ZM30.9648 28.4091C30.9648 29.0517 30.9467 29.5601 30.9238 29.5601C30.8053 29.5601 30.4195 29.2277 30.2908 29.0147C29.9517 28.4535 30.0974 27.7964 30.6496 27.3964C30.9761 27.1598 30.9648 27.1234 30.9648 28.4091ZM39.3673 29.9065C39.1449 30.0205 39.068 30.1445 39.068 30.3891C39.068 30.657 39.2382 30.8718 39.486 30.9169C39.5727 30.9327 40.6966 30.9394 41.9837 30.9319L44.3239 30.9184L44.4814 30.7464C44.7018 30.5059 44.7018 30.2718 44.4814 30.0314L44.3239 29.8594L41.9146 29.8475C39.8213 29.8372 39.4873 29.8449 39.3673 29.9065ZM45.851 29.9036C45.5833 30.02 45.4621 30.3965 45.6059 30.6652C45.7331 30.9029 45.8905 30.941 46.7469 30.9412C47.8114 30.9414 48 30.8583 48 30.3889C48 30.1385 47.9067 29.9886 47.6962 29.9006C47.4817 29.8109 46.0587 29.8132 45.851 29.9036ZM32.2225 30.9481C33.0624 31.3882 33.1363 32.5415 32.3576 33.0572C32.2413 33.1343 32.1289 33.1974 32.108 33.1974C32.087 33.1974 32.0698 32.6794 32.0698 32.0464C32.0698 31.4133 32.0815 30.8953 32.0959 30.8953C32.1102 30.8953 32.1671 30.919 32.2225 30.9481ZM38.9423 32.3448C38.7257 32.439 38.5965 32.6682 38.6308 32.8976C38.6699 33.1589 38.7954 33.2664 39.271 33.4461C40.3363 33.8486 40.4795 33.9018 40.5874 33.9354C40.6507 33.9551 40.8993 34.043 41.1399 34.1307C43.5843 35.0223 43.5144 35.0055 43.7589 34.761C44.0431 34.4769 43.9728 34.0663 43.6103 33.8923C43.2702 33.7292 39.2499 32.2751 39.1478 32.2784C39.1166 32.2794 39.0241 32.3093 38.9423 32.3448ZM45.0725 34.552C44.6718 34.7265 44.6058 35.2765 44.9597 35.4918C45.0361 35.5382 45.4274 35.694 45.8292 35.838C46.5239 36.087 46.5685 36.097 46.7372 36.0413C47.277 35.8634 47.2212 35.1889 46.6492 34.9776C46.0348 34.7507 45.2801 34.4868 45.2498 34.4883C45.2304 34.4893 45.1506 34.518 45.0725 34.552ZM37.4275 34.9272C37.3054 35.0566 37.2724 35.1303 37.2724 35.2731C37.2724 35.5704 37.1968 35.4952 39.045 37.0381C39.3489 37.2918 39.7439 37.6243 39.9227 37.777C40.4528 38.2296 40.5088 38.2765 40.7265 38.4499C41.0123 38.6776 41.1069 38.7223 41.3026 38.7223C41.6894 38.7223 41.9357 38.1903 41.6922 37.8808C41.6415 37.8163 41.2954 37.5079 40.9232 37.1955C40.5509 36.8831 39.8931 36.3297 39.4615 35.9658C38.0503 34.7761 38.0317 34.7628 37.7928 34.7628C37.6114 34.7628 37.5613 34.7853 37.4275 34.9272ZM42.5418 38.9779C42.2663 39.1139 42.1608 39.4884 42.3257 39.7452C42.4529 39.9433 43.5727 40.8483 43.7352 40.8843C44.0522 40.9546 44.3288 40.7688 44.3895 40.445C44.4339 40.2086 44.3035 40.0219 43.8103 39.6156C43.5697 39.4174 43.3213 39.2079 43.2583 39.15C43.0049 38.9171 42.7762 38.8622 42.5418 38.9779ZM21.1765 40.6284C20.914 40.8909 20.9721 41.2942 21.2967 41.462C21.4997 41.567 33.2495 41.566 33.4525 41.461C33.7012 41.3324 33.7941 41.011 33.6585 40.7486C33.5044 40.4506 33.9881 40.4719 27.3587 40.4719H21.333L21.1765 40.6284Z"/></svg>