<svg viewBox="0 0 60 61" fill="currentcolor" xmlns="http://www.w3.org/2000/svg"><path style="fill:green" fill-rule="evenodd" clip-rule="evenodd" d="M27.199 13.6698C26.6647 13.7256 25.9581 13.8847 25.3586 14.0841C22.4691 15.0453 20.2364 17.4417 19.4812 20.3926C19.2712 21.213 19.2195 21.6495 19.2187 22.6101C19.2174 23.8959 19.3937 24.8453 19.8413 25.9648C20.6 27.8626 22.1021 29.5577 23.8708 30.512C24.0532 30.6105 24.2025 30.6966 24.2025 30.7034C24.2025 30.7102 24.0873 30.7537 23.9466 30.7999C22.3942 31.3099 20.8198 32.1909 19.5401 33.2656C18.9897 33.7278 18.066 34.6707 17.6314 35.2139C16.2314 36.9639 15.2946 39.0412 14.8963 41.279C14.7119 42.315 14.6363 43.6406 14.7467 43.9046C14.9886 44.4837 15.8121 44.5295 16.0965 43.9797C16.1688 43.8401 16.1836 43.7306 16.2081 43.1553C16.2839 41.3691 16.6574 39.8982 17.4354 38.3223C18.1811 36.8117 19.1843 35.5229 20.4319 34.4729C22.2589 32.9352 24.3001 32.0358 26.7111 31.7062C26.8637 31.6853 27.4577 31.652 28.031 31.6323C29.3737 31.586 30.0542 31.4863 30.9068 31.2113C33.2244 30.4638 35.1248 28.8572 36.2204 26.719C37.1466 24.9116 37.4329 22.8338 37.0312 20.8348C36.8934 20.1488 36.6023 19.3047 36.2773 18.6489C34.898 15.8649 32.2422 14.0079 29.1492 13.6648C28.7443 13.6198 27.6505 13.6226 27.199 13.6698ZM28.7891 15.1429C31.4397 15.3715 33.7196 16.9086 34.9106 19.27C35.3669 20.1746 35.622 21.116 35.6825 22.1176C35.7702 23.5703 35.4943 24.8721 34.8326 26.1279C33.9644 27.7756 32.4562 29.0801 30.7088 29.6949C29.1033 30.2598 27.2985 30.2607 25.7027 29.6975C23.3794 28.8774 21.5743 26.9197 20.946 24.5386C20.6241 23.3186 20.6182 22.0064 20.9289 20.7716C21.6213 18.0206 23.8893 15.852 26.674 15.2783C27.4363 15.1212 28.0688 15.0808 28.7891 15.1429ZM36.7444 29.125C36.6277 29.199 36.5487 29.2868 36.497 29.3998C36.4553 29.4912 36.0824 30.6107 35.6684 31.8877L34.9157 34.2094L32.3736 34.2123C30.4999 34.2144 29.7986 34.2271 29.7062 34.2606C29.5375 34.3217 29.3332 34.5278 29.2793 34.6913C29.2135 34.8907 29.253 35.1689 29.3688 35.3207C29.4229 35.3916 30.3764 36.1102 31.4878 36.9178C32.5992 37.7252 33.5141 38.4013 33.521 38.4201C33.5279 38.4389 33.1824 39.5353 32.7534 40.8567C32.3243 42.1781 31.9736 43.3083 31.9741 43.3684C31.9746 43.4284 32.0065 43.5457 32.0451 43.6291C32.2105 43.9863 32.598 44.1535 32.9346 44.0129C33.0033 43.9842 33.968 43.3006 35.0784 42.4939C36.2465 41.6452 37.1196 41.0356 37.15 41.0472C37.1789 41.0583 38.0772 41.7034 39.1461 42.4808C40.2151 43.2581 41.1651 43.9326 41.2572 43.9796C41.731 44.2213 42.2601 43.8825 42.2527 43.3423C42.2516 43.2625 41.9776 42.3561 41.6439 41.3283C41.3102 40.3004 40.9658 39.2377 40.8787 38.9667C40.7916 38.6956 40.7135 38.4621 40.7051 38.4476C40.6967 38.4331 41.6186 37.7465 42.7537 36.9217C44.1212 35.9281 44.8436 35.38 44.8947 35.2973C45.121 34.931 44.9748 34.4606 44.5787 34.2807C44.435 34.2154 44.2676 34.2111 41.8788 34.2103L39.3322 34.2094L39.1054 33.5176C38.9806 33.1371 38.6711 32.1862 38.4175 31.4044C38.1638 30.6225 37.9124 29.8483 37.8588 29.6838C37.7044 29.2101 37.4896 29.0163 37.1189 29.0163C36.9606 29.0163 36.8782 29.0402 36.7444 29.125ZM37.6535 33.6291C37.9253 34.467 38.1726 35.2005 38.2031 35.259C38.2741 35.3955 38.4058 35.5177 38.55 35.581C38.6363 35.6189 39.076 35.6355 40.3687 35.6499L42.0736 35.6688L40.7065 36.6611C39.9547 37.2068 39.3078 37.7015 39.2689 37.7603C39.2296 37.8202 39.1916 37.9599 39.183 38.0772C39.1691 38.2651 39.2213 38.4524 39.6832 39.8746C39.9668 40.7478 40.1945 41.4666 40.1892 41.4719C40.1839 41.4773 39.5825 41.0465 38.853 40.5147C38.1235 39.9829 37.4717 39.5237 37.4046 39.4941C37.3375 39.4646 37.1987 39.4405 37.0962 39.4405C36.8707 39.4405 36.908 39.4167 35.2711 40.6096C34.6144 41.0882 34.0714 41.4744 34.0644 41.4678C34.0575 41.4612 34.2854 40.7351 34.5709 39.8543C35.1388 38.1024 35.1524 38.0307 34.9693 37.7635C34.9198 37.6913 34.3097 37.2215 33.5277 36.6536L32.1719 35.6688L33.8826 35.6499C35.5608 35.6312 35.5963 35.6293 35.7512 35.5465C35.8381 35.5001 35.9431 35.4144 35.9846 35.3561C36.0261 35.2978 36.1994 34.824 36.3698 34.3033C36.54 33.7826 36.7757 33.0626 36.8934 32.7034C37.0111 32.3443 37.1191 32.0628 37.1333 32.078C37.1476 32.0932 37.3817 32.7912 37.6535 33.6291Z"/></svg>