<svg viewBox="0 0 60 61" fill="currentcolor" xmlns="http://www.w3.org/2000/svg"><path style="fill:green" fill-rule="evenodd" clip-rule="evenodd" d="M42.1505 14.1908C40.823 16.7616 35.0314 29.3899 35.0314 29.7137C35.0314 29.9471 35.0045 30.1378 34.9715 30.1378C34.9387 30.1378 34.1959 29.749 33.3211 29.2736C32.2227 28.6767 31.6756 28.4643 31.5532 28.5868C31.4557 28.6843 31.3446 29.2079 31.3067 29.7503C31.2028 31.2343 31.5944 31.7102 33.8606 32.8541C35.9794 33.9236 36.5037 33.939 37.5684 32.9629C38.1938 32.3895 38.196 32.3823 38.2012 30.9632L38.2063 29.5391L41.7649 22.0123C43.722 17.8726 45.3586 14.4031 45.4014 14.3022C45.4443 14.2014 45.2845 14.03 45.0464 13.9216C44.5194 13.6814 44.9918 12.8023 40.4156 22.5407C37.606 28.5199 36.948 30.0545 37.0848 30.31C37.1786 30.4852 37.2552 30.9358 37.2552 31.3116C37.2552 31.8457 37.157 32.072 36.8044 32.3491C36.5566 32.5441 36.2086 32.7037 36.0312 32.7037C35.8539 32.7037 35.0124 32.3539 34.1612 31.9266C32.9179 31.302 32.5681 31.0415 32.3816 30.6009C32.2538 30.2991 32.2176 30.0276 32.3009 29.9973C32.3842 29.9672 33.0662 30.262 33.8163 30.6522C34.5849 31.0521 35.3533 31.3374 35.5764 31.3058C35.9262 31.2562 35.9751 31.1498 35.9967 30.3891C36.0176 29.6513 36.526 28.4562 39.5613 22.007C41.5085 17.8702 43.1363 14.4031 43.1786 14.3022C43.221 14.2014 43.0611 14.0302 42.8233 13.9219C42.4336 13.7444 42.3674 13.7709 42.1505 14.1908ZM19.5502 16.0523C18.7975 16.4872 18.1564 16.864 18.1253 16.8897C18.0943 16.9153 18.2014 17.1386 18.3634 17.3858C18.8087 18.0654 18.4814 18.6766 17.6721 18.6766H17.0698V20.3872V22.0978H17.6721C18.4706 22.0978 18.8088 22.7089 18.376 23.3692C18.0545 23.8601 17.9349 23.7438 19.9615 24.9093C21.1026 25.5656 21.0857 25.5668 21.5292 24.7921C21.8117 24.2986 22.4963 24.4178 22.8047 25.0141L23.0743 25.5357L24.2237 24.8858C26.2338 23.7496 26.0893 23.8933 25.7798 23.3389C25.366 22.5977 25.6578 22.0978 26.5044 22.0978H27.1625V20.3872V18.6766H26.5735C25.767 18.6766 25.3369 18.1078 25.7112 17.5365C25.8508 17.3235 25.9651 17.0797 25.9651 16.9951C25.9651 16.9104 25.3366 16.4759 24.5685 16.0296L23.172 15.2182L22.8617 15.6216C22.6911 15.8436 22.5496 16.0828 22.5476 16.1534C22.5455 16.2241 22.3534 16.2817 22.1206 16.2817C21.8233 16.2817 21.6184 16.129 21.4319 15.7685C21.286 15.4863 21.1108 15.2567 21.0426 15.2584C20.9745 15.2601 20.3029 15.6173 19.5502 16.0523ZM20.9449 16.9345C21.2246 17.3823 22.9475 17.3522 23.2828 16.8936C23.5115 16.5807 23.53 16.5807 24.0569 16.8919C24.6438 17.2386 24.6835 17.3392 24.425 17.8221C24.3099 18.0375 24.3106 18.1779 24.4276 18.2501C24.5232 18.3093 24.7558 18.6603 24.9447 19.0304C25.2047 19.5401 25.3905 19.703 25.7119 19.703C26.0929 19.703 26.1361 19.7729 26.1361 20.3872C26.1361 21.0015 26.0929 21.0715 25.7119 21.0715C25.3905 21.0715 25.2047 21.2343 24.9447 21.7441C24.7558 22.1141 24.5232 22.4651 24.4276 22.5243C24.3106 22.5965 24.3099 22.7369 24.425 22.9523C24.6821 23.4325 24.6438 23.5238 24.042 23.8665C23.4983 24.1759 23.486 24.1752 23.2525 23.8237C23.0572 23.5295 22.8396 23.4663 22.0212 23.4663C21.1775 23.4663 21.0109 23.518 20.9187 23.8085C20.7843 24.232 20.7128 24.2324 20.0227 23.8116C19.5174 23.5035 19.4859 23.4359 19.6648 23.0431C19.8239 22.694 19.8097 22.5556 19.5892 22.312C19.4397 22.1468 19.237 21.8002 19.1386 21.5416C19.0088 21.2001 18.8417 21.0715 18.5281 21.0715C18.1383 21.0715 18.0962 21.0048 18.0962 20.3872C18.0962 19.7924 18.1465 19.7026 18.4811 19.7006C19.0341 19.697 19.8961 18.1367 19.625 17.63C19.4105 17.2294 19.3863 17.2691 20.0634 16.9099C20.7148 16.5641 20.7136 16.5641 20.9449 16.9345ZM30.6814 20.9338C30.4272 22.5619 30.082 24.7216 29.9144 25.7329C29.7466 26.7442 29.6414 27.5718 29.6804 27.5718C29.7194 27.5718 30.0172 27.369 30.3422 27.1211C30.8934 26.7008 30.9543 26.6892 31.2425 26.95C31.5855 27.2605 32.0492 27.317 32.2035 27.0672C32.2607 26.9747 32.5568 27.0539 32.8916 27.2514L33.4792 27.5982L34.167 27.0455C34.621 26.6804 34.885 26.3128 34.9438 25.9632C35.7315 21.2769 36.0401 18.9424 35.8845 18.8463C35.7859 18.7854 34.7645 18.5967 33.6148 18.4274C32.4653 18.2578 31.4389 18.0864 31.3342 18.0464C31.209 17.9985 30.9854 18.9876 30.6814 20.9338ZM21.6315 18.9618C21.5688 19.0244 21.5174 19.2553 21.5174 19.4749C21.5174 19.7866 21.4237 19.874 21.0898 19.874C20.7287 19.874 20.6621 19.9539 20.6621 20.3872C20.6621 20.8168 20.7299 20.9004 21.0785 20.9004C21.4054 20.9004 21.5063 21.0013 21.5489 21.3708C21.5913 21.7403 21.7039 21.8529 22.0734 21.8953C22.4961 21.9441 22.5438 21.8963 22.5438 21.4249C22.5438 20.9562 22.5984 20.9004 23.057 20.9004C23.5132 20.9004 23.5702 20.8434 23.5702 20.3872C23.5702 19.931 23.5132 19.874 23.057 19.874C22.6008 19.874 22.5438 19.8171 22.5438 19.3608C22.5438 18.9373 22.4742 18.8477 22.1447 18.8477C21.9251 18.8477 21.6941 18.899 21.6315 18.9618ZM33.9532 19.4724C34.6713 19.5569 34.8603 19.6429 34.8603 19.8853C34.8603 20.0538 34.661 21.4482 34.4174 22.9838C34.0957 25.0124 33.8894 25.8638 33.6631 26.0976C33.3582 26.4127 33.3404 26.4117 32.8349 26.0518C32.5181 25.8262 32.2768 25.7512 32.2107 25.8581C32.0429 26.1298 31.5195 26.0631 31.2264 25.7329C30.9858 25.4616 30.9989 25.1937 31.3681 22.8676C32.0267 18.7173 31.8944 19.1354 32.5104 19.2587C32.8052 19.3176 33.4544 19.4137 33.9532 19.4724ZM42.5581 25.1913C42.5581 25.7026 42.8801 25.8549 43.9694 25.8588C44.5389 25.8609 44.6109 25.8137 44.6109 25.4368C44.6109 24.9868 44.4357 24.9067 43.1996 24.7919C42.603 24.7367 42.5581 24.7645 42.5581 25.1913ZM41.6908 27.3296C41.3982 27.6824 41.6041 28.0005 42.4293 28.4708C43.0624 28.8314 43.0735 28.8319 43.3219 28.5033C43.6685 28.045 43.6743 28.0566 42.8392 27.5291C41.9661 26.9774 41.981 26.98 41.6908 27.3296ZM20.8332 30.9076V33.388H25.742H30.6508L30.0959 32.8154C29.5931 32.2966 29.5601 32.2006 29.7454 31.794C29.9053 31.4432 29.9038 31.2899 29.7382 31.0903C29.57 30.8877 29.57 30.7035 29.7379 30.1949C29.9457 29.5649 29.9387 29.5454 29.2972 28.9908L28.6451 28.4272H24.7391H20.8332V30.9076ZM40.0413 29.0779L39.6626 29.368L40.1814 30.2622C40.6951 31.1476 40.7045 31.1537 41.1195 30.8817L41.5386 30.6072L41.0848 29.8165C40.4712 28.7476 40.4719 28.7479 40.0413 29.0779ZM28.526 29.6179C28.7404 29.7534 28.7445 29.8682 28.5546 30.3934C28.3781 30.8819 28.3753 31.0622 28.5421 31.263C28.7016 31.4553 28.7058 31.6185 28.5597 31.9391L28.3673 32.3616H25.1133H21.8596V30.9076V29.4535L25.067 29.4561C26.8312 29.4576 28.3877 29.5303 28.526 29.6179ZM13.8196 33.388V33.9012H16.3856H18.9515V34.4144V34.9275H17.4119H15.8724V35.8598V36.7921L14.8888 36.8434L13.9052 36.8948V39.3752V41.8556L21.6457 41.9L29.3863 41.9445V43.3951V44.8457L21.6457 44.8902L13.9052 44.9347L13.8511 45.4051L13.7969 45.8755H29.8995H46.0021L45.9479 45.4051L45.8939 44.9347L38.1533 44.8902L30.4127 44.8457V43.3951V41.9445L38.1533 41.9L45.8939 41.8556V39.3752V36.8948L43.3707 36.8474L40.8475 36.8002V35.3506V33.9012H43.4134H45.9794V33.388V32.8748H42.9858H39.9922V34.842V36.8092H38.9658H37.9394V35.8699V34.9306L28.9159 34.8863L19.8923 34.842L19.841 33.8584L19.7897 32.8748H16.8047H13.8196V33.388ZM36.9131 37.4079V38.862H26.9059H16.8988V37.4079V35.9539H26.9059H36.9131V37.4079ZM15.8724 38.862V39.8884H26.9059H37.9394V38.862V37.8356H41.4462H44.953V39.3752V40.9147H29.8995H14.846V39.3752V37.8356H15.3592H15.8724V38.862Z"/></svg>