<svg viewBox="0 0 60 61" fill="currentcolor" xmlns="http://www.w3.org/2000/svg"><path style="fill:green" fill-rule="evenodd" clip-rule="evenodd" d="M16.5205 14.8695C15.5587 15.1292 14.8067 15.9253 14.6055 16.8968C14.5624 17.105 14.5471 21.5625 14.5581 30.6622L14.5744 44.1196L14.8047 44.5856C15.1682 45.3209 15.6829 45.7747 16.4118 46.0022C16.7449 46.1062 17.0795 46.1144 20.953 46.1144H25.1347V45.4679V44.8213H21.0932C18.2431 44.8213 16.9826 44.8007 16.8172 44.7511C16.5074 44.6582 16.1701 44.3738 16.0193 44.0781C15.8989 43.8422 15.8977 43.6833 15.9133 30.3888L15.9291 16.9382L16.1144 16.6746C16.2266 16.5149 16.4202 16.3489 16.6053 16.2536L16.9111 16.0963H29.8144H42.7178L43.0235 16.2536C43.2086 16.3489 43.4023 16.5149 43.5144 16.6746L43.6997 16.9382L43.7157 26.2616L43.7317 35.585H44.4094H45.0871L45.0708 26.2101L45.0544 16.8352L44.9107 16.4792C44.6394 15.8072 44.0514 15.2182 43.3822 14.9484L43.0224 14.8032L29.9376 14.7915C18.6467 14.7814 16.8072 14.7921 16.5205 14.8695ZM19.2981 21.2075C19.0562 21.3126 18.8887 21.6529 18.9474 21.92C18.9687 22.0171 19.0693 22.1666 19.1711 22.2522L19.356 22.4078H29.6297H39.9034L40.0907 22.2502C40.3268 22.0515 40.3915 21.7549 40.2559 21.4927C40.046 21.0868 40.8273 21.1145 29.6482 21.1171C20.9936 21.1192 19.4707 21.1325 19.2981 21.2075ZM35.1715 26.404C34.3768 26.5797 33.5994 26.9194 32.9856 27.3593C32.2124 27.9134 31.3855 28.9227 31.011 29.7695C30.3663 31.2273 30.3716 33.0082 31.0248 34.4828L31.1776 34.8276L29.0438 39.0548C27.8702 41.3797 26.9331 43.2813 26.9614 43.2804C26.9896 43.2796 27.8711 43.1843 28.9202 43.0687C29.9693 42.953 30.8314 42.8637 30.836 42.8701C30.8406 42.8765 31.2786 43.616 31.8094 44.5135C32.3402 45.4109 32.7942 46.1516 32.8184 46.1593C32.8426 46.167 33.636 44.6352 34.5815 42.7552C35.527 40.8753 36.3209 39.3588 36.3457 39.3853C36.3888 39.4313 37.1286 40.7112 39.2207 44.3595C39.745 45.2739 40.2068 46.0572 40.2469 46.1002C40.3041 46.1616 40.503 45.8238 41.1712 44.53C41.6395 43.6235 42.0536 42.8488 42.0915 42.8086C42.1446 42.7521 42.5327 42.7562 43.7921 42.8265C44.6896 42.8765 45.5538 42.9095 45.7125 42.8996L46.0012 42.8817L43.781 39.0332C42.5598 36.9166 41.5477 35.1391 41.5317 35.0833C41.5158 35.0275 41.5471 34.914 41.6014 34.8312C41.7593 34.5902 42.0713 33.6848 42.1658 33.1935C42.2869 32.5639 42.2744 31.6033 42.1364 30.9349C41.7724 29.171 40.501 27.5642 38.892 26.8346C38.0838 26.4682 37.4927 26.3356 36.5569 26.311C35.8764 26.2931 35.5847 26.3127 35.1715 26.404ZM19.1711 26.5658C18.9371 26.7628 18.8806 27.0079 19.0022 27.2989C19.1768 27.7169 19.0089 27.7033 24.0152 27.7033H28.5031L28.7123 27.5627C29.1105 27.2951 29.0841 26.6693 28.6666 26.4791C28.5596 26.4303 27.1792 26.4102 23.9358 26.4102H19.356L19.1711 26.5658ZM37.5322 27.7374C38.0788 27.876 38.845 28.2707 39.3065 28.6513C40.4834 29.6221 41.1039 31.194 40.899 32.6856C40.6592 34.4309 39.4662 35.8674 37.7885 36.4309C37.3459 36.5796 37.2051 36.5966 36.403 36.5987C35.4068 36.6012 35.034 36.5156 34.2479 36.1035C32.2155 35.0381 31.314 32.5446 32.1856 30.3994C32.7652 28.9729 34.1615 27.8898 35.7451 27.6382C36.1749 27.5698 37.0667 27.6193 37.5322 27.7374ZM19.2981 31.7985C19.0562 31.9036 18.8887 32.2439 18.9474 32.511C18.9687 32.6081 19.0693 32.7576 19.1711 32.8432L19.356 32.9988H23.3291H27.3021L27.5115 32.7895C27.8402 32.4607 27.7455 31.9716 27.3185 31.7932C27.0071 31.6631 19.5985 31.668 19.2981 31.7985ZM32.9915 36.8931C33.4486 37.225 34.2989 37.6151 34.9108 37.7735C35.2041 37.8494 35.4515 37.9353 35.4606 37.9644C35.4697 37.9935 34.8586 39.246 34.1028 40.7478L32.7284 43.4784L32.128 42.4567C31.6052 41.5673 31.5103 41.4388 31.3945 41.4638C31.161 41.5143 29.3262 41.6927 29.2644 41.6711C29.2316 41.6596 29.8432 40.3947 30.6235 38.8602L32.0422 36.0702L32.3599 36.3677C32.5347 36.5313 32.8189 36.7677 32.9915 36.8931ZM41.7592 38.1712C42.3131 39.1364 42.9668 40.2724 43.2121 40.6958C43.4573 41.1191 43.6497 41.4739 43.6396 41.4843C43.6294 41.4945 43.1127 41.4728 42.4912 41.4359C41.469 41.3752 41.3544 41.3783 41.2879 41.4693C41.2475 41.5245 41.0032 41.9827 40.7451 42.4874C40.487 42.9921 40.2565 43.4041 40.2328 43.403C40.198 43.4012 37.1544 38.1522 37.0931 37.9881C37.0832 37.9615 37.2633 37.905 37.4933 37.8624C38.4439 37.6865 39.4407 37.2075 40.2203 36.5522C40.5682 36.2597 40.6286 36.2291 40.6862 36.3162C40.7225 36.3713 41.2054 37.206 41.7592 38.1712Z"/></svg>