<svg viewBox="0 0 60 61" fill="currentcolor" xmlns="http://www.w3.org/2000/svg"><path style="fill:green" fill-rule="evenodd" clip-rule="evenodd" d="M27.8883 14.7721C27.5301 14.8179 27.2291 14.9384 26.9471 15.1493C26.8233 15.2418 26.6399 15.4256 26.5484 15.5488C26.4594 15.6686 26.3833 15.7969 26.3237 15.9277C26.2449 16.1004 26.2152 16.1999 26.1908 16.3742C26.1769 16.4731 26.1768 16.9984 26.1906 17.1088C26.232 17.438 26.3337 17.6381 26.6796 18.0705C27.0631 18.5499 27.599 19.1449 28.0885 19.6349C28.462 20.0086 28.6229 20.1471 28.8054 20.2515C29.1406 20.4434 29.442 20.4407 29.7608 20.2429C29.9214 20.1434 30.1096 19.9775 30.4636 19.6235C30.8619 19.2252 31.1009 18.9664 31.5866 18.4072C31.6626 18.3197 31.8845 18.046 31.9724 17.9314C32.1832 17.6564 32.28 17.4726 32.3397 17.2337C32.3825 17.0628 32.3994 16.9116 32.4062 16.6393C32.4129 16.3725 32.3938 16.2512 32.313 16.0458C32.2775 15.9555 32.1728 15.7459 32.1177 15.6549C31.7928 15.1177 31.3174 14.8274 30.6674 14.7692C30.5554 14.7591 30.2977 14.7591 30.1968 14.7691C29.8876 14.7997 29.6308 14.8819 29.4015 15.0237C29.3646 15.0466 29.3188 15.0772 29.2996 15.0918L29.2649 15.1183L29.2232 15.0906C29.06 14.9823 28.8122 14.8718 28.6274 14.8249C28.457 14.7817 28.3438 14.7674 28.1495 14.7646C28.0272 14.7628 27.9418 14.7653 27.8883 14.7721ZM30.6305 16.0751C30.8508 16.1198 31.024 16.2873 31.0845 16.5143C31.1159 16.6319 31.1059 16.8315 31.0636 16.9328C31.0378 16.9946 30.8306 17.2744 30.7058 17.4159C30.6909 17.4327 30.6447 17.4872 30.603 17.5368C30.4344 17.7375 30.2122 17.9859 29.9185 18.3015C29.7473 18.4854 29.2787 18.9565 29.2669 18.9565C29.2547 18.9565 28.9365 18.6407 28.7595 18.4529C28.2111 17.8711 27.6223 17.1715 27.5062 16.9639C27.4706 16.9002 27.4534 16.7259 27.4722 16.6199C27.4946 16.4932 27.5575 16.3694 27.6444 16.2808C27.713 16.2109 27.7696 16.1715 27.8767 16.1192L27.9669 16.0751L28.0499 16.0725C28.1818 16.0684 28.3708 16.1038 28.436 16.1448C28.4832 16.1745 28.6119 16.2729 28.672 16.3253C28.9073 16.5303 29.0498 16.6039 29.2437 16.6206C29.2814 16.6239 29.3248 16.6215 29.3725 16.6137C29.5519 16.5844 29.6769 16.5116 29.9026 16.3054C30.0448 16.1754 30.1504 16.1079 30.2518 16.0819C30.3522 16.0562 30.5221 16.0531 30.6305 16.0751ZM28.248 20.5321C27.9429 20.5391 27.8338 20.5483 27.6724 20.5807C27.0047 20.7146 26.3812 21.094 25.986 21.6069C25.8467 21.7875 25.71 22.0379 25.6441 22.2325L25.6079 22.3395L25.1673 22.3442C24.925 22.3468 24.1815 22.3509 23.5151 22.3532C21.983 22.3586 20.6421 22.3697 20.3877 22.3792C19.9196 22.3965 19.7301 22.4194 19.5358 22.482C19.3914 22.5286 19.2804 22.5971 19.1295 22.7331C18.9299 22.913 18.8479 23.0156 18.6958 23.2766C18.6311 23.3876 18.3568 23.9314 18.2509 24.1588C18.0396 24.6123 17.9743 24.8623 18.0087 25.0864C18.0446 25.3205 18.2116 25.6283 18.3963 25.8008C18.6001 25.9911 18.8609 26.0873 19.2146 26.1026C19.3051 26.1065 19.324 26.1093 19.3269 26.1194C19.3324 26.1385 19.4379 26.7975 19.5318 27.3999C19.5542 27.5435 19.5881 27.7582 19.6071 27.8769C19.6597 28.2063 19.7137 28.5496 19.759 28.8424C19.7815 28.9882 19.8071 29.1518 19.8159 29.2059C19.8247 29.26 19.8536 29.4441 19.8802 29.6148C19.9346 29.9635 19.9749 30.2206 20.0507 30.7015C20.0792 30.8827 20.1266 31.1842 20.156 31.3716C20.1854 31.5591 20.225 31.8112 20.2441 31.932C20.2631 32.0528 20.3004 32.2913 20.3271 32.4621C20.3946 32.8944 20.47 33.3741 20.5888 34.128C20.6098 34.2613 20.6488 34.5101 20.6754 34.6808C20.7316 35.0411 20.7682 35.274 20.8309 35.6691C20.8556 35.8252 20.8878 36.0314 20.9024 36.1272C20.917 36.223 20.9359 36.344 20.9444 36.396C20.9528 36.4481 20.9782 36.6099 21.0008 36.7557C21.0234 36.9015 21.0575 37.1179 21.0766 37.2366C21.0958 37.3553 21.1198 37.5086 21.13 37.5773C21.1402 37.6461 21.1554 37.7449 21.1639 37.7969C21.195 37.9887 21.2101 38.0844 21.2324 38.2324C21.245 38.3157 21.2738 38.4997 21.2965 38.6413C21.3191 38.7829 21.3514 38.9873 21.3681 39.0956C21.3848 39.2039 21.4122 39.3794 21.4289 39.4856C21.4456 39.5918 21.4848 39.8406 21.5159 40.0384C21.547 40.2362 21.5896 40.5071 21.6106 40.6404C21.6317 40.7737 21.6591 40.9492 21.6716 41.0304C21.6842 41.1116 21.7113 41.2837 21.7319 41.4128C21.7526 41.5419 21.7883 41.7702 21.8114 41.9202C21.8344 42.0701 21.8599 42.232 21.868 42.2799C21.8761 42.3278 21.8948 42.447 21.9095 42.5449C21.9242 42.6428 21.943 42.7638 21.9512 42.8137C21.9783 42.9789 22.0033 43.1376 22.0236 43.2719C22.0345 43.3448 22.0587 43.4981 22.0772 43.6126C22.0957 43.7272 22.1245 43.9095 22.1411 44.0178C22.1576 44.1261 22.1881 44.3203 22.2088 44.4494C22.2625 44.7845 22.3162 45.1251 22.3675 45.4552C22.3919 45.6128 22.4131 45.7428 22.4145 45.7442C22.4212 45.7507 34.0764 45.7648 36.3127 45.7609C39.2703 45.7559 39.8004 45.7485 40.0013 45.7097C40.3033 45.6515 40.6724 45.4917 40.985 45.284C41.2629 45.0993 41.5205 44.8713 41.7655 44.5933C41.9637 44.3684 42.1808 44.0307 42.37 43.653C42.643 43.1081 42.8195 42.6028 42.897 42.1447C42.9342 41.9246 42.9369 41.8697 42.9404 41.2538C42.9445 40.5435 42.9383 40.4257 42.8811 40.1293C42.7639 39.5225 42.3825 38.6167 41.7779 37.5092C41.4802 36.9639 41.1627 36.4295 40.7573 35.7914C40.6866 35.68 40.2332 35.0004 40.168 34.908C40.1357 34.8622 40.0882 34.7944 40.0625 34.7574C39.9402 34.5816 39.7043 34.2594 39.4835 33.9667C39.3694 33.8154 39.2778 33.6876 39.2798 33.6827C39.2819 33.6777 39.3375 33.6126 39.4035 33.5379C40.6796 32.0939 41.189 31.3907 41.3176 30.896C41.3903 30.616 41.3445 30.389 41.1755 30.1917C41.1378 30.1477 41.0453 30.0712 40.9816 30.0314C40.7903 29.9118 40.4839 29.8199 40.1368 29.778C39.8695 29.7458 39.4344 29.747 39.126 29.781C39.0781 29.7862 39.0372 29.7891 39.0351 29.7874C39.0331 29.7856 39.0426 29.7086 39.0563 29.6162C39.0699 29.5238 39.0963 29.3426 39.1149 29.2135C39.1465 28.9941 39.1899 28.7064 39.2735 28.1609C39.2926 28.0359 39.325 27.823 39.3455 27.6876C39.3659 27.5522 39.3948 27.3665 39.4096 27.2749C39.4244 27.1833 39.4485 27.0305 39.463 26.9354C39.4776 26.8403 39.5114 26.6291 39.5381 26.4659C39.5649 26.3028 39.5891 26.1531 39.5919 26.1333C39.5948 26.1136 39.6003 26.0974 39.6041 26.0974C39.608 26.0974 39.6442 26.0938 39.6847 26.0893C39.9735 26.0577 40.1708 25.9635 40.3719 25.7613C40.4861 25.6464 40.5554 25.5497 40.6291 25.4023C40.7484 25.1638 40.7817 24.9562 40.7316 24.7621C40.6788 24.5575 40.4567 24.0347 40.2388 23.6022C39.9869 23.1025 39.8101 22.8657 39.5424 22.6697C39.4676 22.6149 39.3521 22.5492 39.174 22.4601L38.9989 22.3725L38.4888 22.3682C38.2082 22.3658 37.1029 22.3605 36.0325 22.3564C34.9621 22.3523 33.8887 22.3468 33.6472 22.3442L33.208 22.3394L33.1828 22.2618C33.1078 22.0307 32.9629 21.772 32.7799 21.5425C32.686 21.4248 32.4893 21.2258 32.378 21.1358C32.2324 21.0183 31.9977 20.8674 31.8287 20.7829C31.5249 20.6309 31.2513 20.5753 30.6674 20.5467C30.2633 20.5269 28.845 20.5183 28.248 20.5321ZM30.0237 21.8344C30.6877 21.8523 31.045 21.881 31.1577 21.9255C31.3209 21.9899 31.54 22.1398 31.6821 22.2843L31.7389 22.342L29.4204 22.3398C28.1453 22.3386 27.0993 22.335 27.0961 22.3317C27.0864 22.322 27.2044 22.2084 27.2938 22.1414C27.456 22.0198 27.6019 21.9471 27.7949 21.8916C27.8971 21.8622 27.9621 21.8533 28.1647 21.841C28.5098 21.8201 29.3781 21.817 30.0237 21.8344ZM34.0523 23.659C36.4258 23.6661 38.0647 23.677 38.4945 23.6885C38.7457 23.6953 38.7354 23.6927 38.805 23.7668C38.9226 23.8918 39.0533 24.1324 39.2925 24.6643L39.3512 24.7949L30.8047 24.7948C22.787 24.7948 20.3577 24.79 19.6699 24.7729C19.5292 24.7694 19.4121 24.7646 19.4097 24.7622C19.4013 24.7538 19.7006 24.1787 19.836 23.943C19.9307 23.7782 19.9534 23.7454 19.9897 23.7208L20.0242 23.6975L20.4558 23.6897C22.1146 23.66 29.1122 23.6442 34.0523 23.659ZM35.3661 26.1128C37.3075 26.1201 38.2449 26.1281 38.2603 26.1376C38.2684 26.1426 38.2616 26.1911 38.1825 26.6956C38.0123 27.7815 37.651 29.9784 37.6278 30.0689C37.6221 30.091 37.6163 30.0938 37.4747 30.1428C37.277 30.2112 37.2248 30.2321 37.1002 30.2925C36.8425 30.4177 36.6651 30.5776 36.5276 30.809C36.404 31.0168 36.3402 31.1911 36.2979 31.436C36.2619 31.6444 36.2532 31.7609 36.2529 32.038C36.2524 32.3619 36.2636 32.4996 36.3253 32.9325C36.3426 33.0537 36.3548 33.1581 36.3523 33.1644C36.3499 33.1707 36.277 33.2262 36.1902 33.2878C36.1035 33.3493 35.9627 33.4491 35.8773 33.5096C35.3118 33.91 34.6326 34.4276 34.18 34.803C33.4536 35.4054 32.9091 35.9004 32.3598 36.4578C31.3273 37.5054 30.6709 38.3986 30.2933 39.2698C30.0135 39.9152 29.7755 40.8228 29.6757 41.6249C29.6069 42.1777 29.607 42.7377 29.6762 43.1962C29.7416 43.6297 29.8723 44.0386 30.0468 44.3558C30.0757 44.4084 30.0994 44.4536 30.0994 44.4561C30.0994 44.4587 28.6226 44.4608 26.8175 44.4608H23.5356L23.5274 44.4134C23.5228 44.3873 23.5036 44.2655 23.4846 44.1426C23.4657 44.0198 23.4402 43.8597 23.428 43.7868C23.4157 43.7139 23.3904 43.5555 23.3717 43.4347C23.353 43.3139 23.3173 43.0873 23.2925 42.9311C23.2676 42.7749 23.225 42.5057 23.1977 42.3329C23.1705 42.16 23.1309 41.9096 23.1099 41.7763C23.0888 41.643 23.0531 41.4147 23.0306 41.2689C23.008 41.1232 22.9791 40.9392 22.9662 40.86C22.9533 40.7809 22.9309 40.6378 22.9164 40.542C22.9018 40.4462 22.8731 40.2622 22.8524 40.1331C22.8318 40.004 22.8016 39.8114 22.7852 39.7052C22.7687 39.599 22.7395 39.4116 22.7201 39.2887C22.7007 39.1659 22.663 38.9273 22.6364 38.7587C22.6097 38.59 22.5778 38.3855 22.5653 38.3043C22.5435 38.1619 22.5061 37.9236 22.4019 37.2631C22.3208 36.7488 22.2862 36.5285 22.2354 36.2029C22.2088 36.0322 22.1714 35.7936 22.1524 35.6728C22.1333 35.5521 22.0921 35.2897 22.0606 35.0898C22.0292 34.8898 21.9917 34.6513 21.9772 34.5597C21.9627 34.4681 21.9388 34.3164 21.9241 34.2227C21.9094 34.129 21.8721 33.8922 21.8412 33.6964C21.7364 33.0317 21.7159 32.9016 21.6675 32.5908C21.6205 32.2895 21.5988 32.1515 21.4895 31.4587C21.461 31.2776 21.4135 30.976 21.3841 30.7886C21.3547 30.6011 21.3151 30.349 21.2962 30.2282C21.2188 29.7357 21.0433 28.6118 21.0005 28.3351C20.9818 28.2143 20.9447 27.9757 20.918 27.805C20.7966 27.0267 20.769 26.8483 20.7475 26.7032C20.7349 26.6178 20.7097 26.4508 20.6914 26.3321C20.6731 26.2134 20.6597 26.1137 20.6616 26.1106C20.6666 26.1022 33.0069 26.104 35.3661 26.1128ZM29.2437 27.2105C29.0782 27.2255 28.9266 27.2687 28.7491 27.3513C28.3243 27.549 28.1692 27.705 27.8239 28.2821C27.4736 28.8675 27.2011 29.3696 27.1541 29.5163C27.0905 29.7151 27.1073 29.8783 27.2074 30.0315C27.3177 30.2005 27.4894 30.3078 27.6984 30.3384C27.8659 30.3629 28.0392 30.312 28.1467 30.2069C28.2414 30.1144 28.4104 29.8584 28.7177 29.3422C28.8766 29.0753 28.9806 28.9095 29.0904 28.7478C29.2077 28.5751 29.22 28.5617 29.2789 28.5435C29.3786 28.5127 29.5643 28.5047 29.6268 28.5284C29.6749 28.5466 29.7577 28.6182 29.7952 28.6739C29.9106 28.8456 30.4629 29.7734 30.4629 29.7958C30.4629 29.7983 30.4497 29.8003 30.4336 29.8003C30.3406 29.8003 30.2007 29.8429 30.1146 29.8974C30.0184 29.9583 29.9211 30.077 29.8777 30.1865C29.8435 30.2731 29.8321 30.3505 29.8365 30.466C29.8412 30.5892 29.8572 30.6519 29.9088 30.75C29.9718 30.8699 30.0699 30.9597 30.1942 31.0115C30.3198 31.0638 30.6763 31.1433 31.046 31.2013C31.1564 31.2187 31.3404 31.2499 31.4549 31.2707C31.7588 31.3259 31.7758 31.3277 31.8446 31.3128C32.0124 31.2764 32.124 31.1616 32.2345 30.9116C32.3209 30.7161 32.4988 30.2397 32.5703 30.0124C32.6595 29.7291 32.6702 29.6737 32.67 29.4974C32.6698 29.3657 32.6686 29.3537 32.6494 29.2968C32.5969 29.1406 32.4857 29.0205 32.3229 28.9442C32.2201 28.896 32.1566 28.8819 32.0418 28.8815C31.9502 28.8811 31.9384 28.8828 31.8725 28.9054C31.7775 28.9381 31.7069 28.9807 31.6363 29.0481L31.5776 29.1042L31.5627 29.0793C31.5545 29.0656 31.5093 28.988 31.4623 28.9068C31.1683 28.399 30.9182 28.0004 30.7708 27.805C30.6388 27.6299 30.4408 27.47 30.2266 27.3655C30.0761 27.292 29.9332 27.2497 29.7397 27.2212C29.6491 27.2079 29.3448 27.2013 29.2437 27.2105ZM27.0212 30.1835C26.8823 30.2035 26.7644 30.2241 26.6123 30.2551C26.5123 30.2755 26.3402 30.3092 26.2299 30.3299C25.7897 30.4127 25.74 30.4258 25.6326 30.4878C25.4157 30.613 25.306 30.8067 25.306 31.065C25.306 31.2143 25.3352 31.3188 25.4067 31.4259C25.4906 31.5515 25.6351 31.6447 25.7874 31.6715C25.8163 31.6766 25.8425 31.683 25.8457 31.6857C25.8489 31.6885 25.7947 31.7893 25.7253 31.9098C25.5728 32.1744 25.4857 32.3283 25.4252 32.4394C25.4002 32.4852 25.3773 32.5261 25.3741 32.5302C25.3653 32.542 25.1767 32.8989 25.13 32.9922C24.9787 33.2947 24.9327 33.4729 24.9327 33.757C24.9327 34.0074 24.9762 34.2103 25.0802 34.4461C25.2431 34.8151 25.5337 35.1261 25.8951 35.3181C26.1386 35.4476 26.2685 35.4642 27.156 35.4797C27.7214 35.4895 28.1574 35.4894 28.2658 35.4792C28.4977 35.4575 28.6336 35.3799 28.748 35.2041C28.8144 35.102 28.8651 34.9653 28.8651 34.8883C28.8651 34.8726 28.8681 34.8579 28.8717 34.8556C28.8753 34.8534 28.9714 34.9767 29.0853 35.1297C29.7431 36.0132 29.7838 36.0656 29.9174 36.1999C30.0606 36.3439 30.1598 36.3974 30.3238 36.4193C30.5487 36.4493 30.7377 36.3763 30.8743 36.2067C30.932 36.135 31.0001 36.0044 31.0192 35.9291C31.0489 35.8114 31.0387 35.688 30.9892 35.5653C30.9747 35.5293 30.9647 35.498 30.9669 35.4957C30.9692 35.4935 31.2545 35.4893 31.601 35.4864C31.948 35.4836 32.2787 35.4774 32.3371 35.4727C32.7738 35.4374 32.9944 35.3664 33.2422 35.1813C33.3596 35.0936 33.5256 34.9348 33.6101 34.8294C33.9197 34.4429 34.0472 33.9536 33.9646 33.4692C33.9304 33.2688 33.7427 32.8593 33.4177 32.2766C33.1376 31.7741 32.9504 31.4903 32.8131 31.3597C32.5767 31.1348 32.3198 31.1105 32.0535 31.2878C31.9229 31.3747 31.8435 31.471 31.8009 31.5941C31.7737 31.6729 31.765 31.8002 31.7803 31.896C31.8097 32.0809 31.9372 32.3519 32.2367 32.8664C32.381 33.1143 32.507 33.3442 32.6106 33.5487C32.6851 33.6957 32.6854 33.6967 32.6846 33.7494C32.6834 33.8154 32.6565 33.8984 32.6118 33.9732C32.5789 34.0284 32.4959 34.1142 32.4551 34.1353C32.3998 34.1639 32.1918 34.1746 31.5515 34.1818C31.1429 34.1864 31.0839 34.1856 31.0839 34.1759C31.0839 34.1698 31.0921 34.1406 31.1022 34.111C31.1922 33.8462 31.1008 33.5806 30.8643 33.4201C30.7678 33.3546 30.6354 33.3033 30.5282 33.2899C30.3954 33.2734 30.2812 33.3146 30.1344 33.4322C29.9035 33.6172 29.5798 33.9532 28.9837 34.6268C28.9218 34.6967 28.8699 34.7525 28.8682 34.7508C28.8665 34.7491 28.8587 34.7225 28.8508 34.6916C28.8329 34.6218 28.8065 34.5615 28.769 34.5048C28.7334 34.451 28.6404 34.3525 28.5905 34.3159C28.5365 34.2763 28.4304 34.233 28.3439 34.2154C28.2273 34.1916 28.0578 34.1859 27.343 34.1815C26.6517 34.1773 26.5537 34.1731 26.4995 34.1455C26.3913 34.0905 26.3333 34.0311 26.2803 33.921C26.2446 33.847 26.2414 33.8359 26.2417 33.7873C26.2424 33.6727 26.3473 33.4539 26.6883 32.8559C26.9267 32.4378 27.0035 32.3069 27.01 32.3069C27.0123 32.3069 27.0204 32.3174 27.028 32.3303C27.0708 32.4027 27.187 32.5073 27.2712 32.5491C27.3701 32.5983 27.4402 32.6124 27.5623 32.6077C27.6819 32.6031 27.7469 32.5871 27.8369 32.5403C27.9817 32.465 28.1192 32.2859 28.1619 32.1171C28.1858 32.0225 28.1794 31.8993 28.1435 31.7616C28.0922 31.5654 27.7847 30.7289 27.7064 30.5727C27.6001 30.3608 27.4622 30.241 27.2749 30.1979C27.2203 30.1854 27.0684 30.1768 27.0212 30.1835ZM39.7393 31.079C39.7393 31.0965 39.3791 31.5491 39.1033 31.8783C39.0304 31.9654 38.9604 32.049 38.9479 32.0641C38.7751 32.2727 38.4446 32.6472 38.2401 32.866L38.1528 32.9595L38.1225 32.9557C37.9212 32.9307 37.637 32.8871 37.633 32.8806C37.6161 32.8533 37.591 32.5657 37.5801 32.2757C37.5735 32.0991 37.5736 31.9982 37.5804 31.8517C37.5922 31.5993 37.6034 31.533 37.6402 31.4989C37.7231 31.4221 38.1611 31.2801 38.6496 31.1716C38.895 31.1171 39.0215 31.097 39.1757 31.0878C39.4063 31.074 39.7393 31.0689 39.7393 31.079ZM37.5319 34.1886C37.8008 34.2293 37.8612 34.2399 37.9687 34.2653L38.0495 34.2844L38.1577 34.4144C38.3027 34.5889 38.3087 34.5963 38.4066 34.7225C38.7844 35.2097 39.2978 35.9374 39.638 36.468C39.6593 36.5013 39.7025 36.5683 39.7338 36.6168C40.15 37.2603 40.5899 38.0264 40.9183 38.6791C41.3079 39.4538 41.5391 40.0536 41.6092 40.4714C41.6831 40.9124 41.6749 41.5596 41.5898 42.0035C41.4709 42.6241 41.1612 43.2738 40.7651 43.7338C40.5143 44.0251 40.246 44.2338 39.9507 44.3673C39.843 44.416 39.7966 44.4275 39.6673 44.4375C39.516 44.4491 39.2092 44.4565 39.2092 44.4484C39.2092 44.4446 39.2319 44.4127 39.2597 44.3776C39.8122 43.6789 40.2158 42.772 40.3635 41.8975C40.4312 41.4966 40.4466 40.7938 40.4014 40.1634C40.379 39.8505 40.3573 39.6997 40.2845 39.3508C40.1674 38.7892 40.0282 38.3689 39.9098 38.2192C39.8074 38.0897 39.6269 38.009 39.4397 38.009C39.2491 38.009 39.1117 38.0671 38.9733 38.2062C38.8475 38.3326 38.8002 38.4405 38.8003 38.6006C38.8004 38.7259 38.8152 38.8044 38.922 39.2471C39.0151 39.6332 39.0306 39.7087 39.0534 39.8885C39.1327 40.5141 39.1373 41.2383 39.0647 41.6816C39.0109 42.0102 38.8971 42.3818 38.7458 42.7229C38.6754 42.8815 38.6272 42.9746 38.534 43.1318C38.292 43.5402 37.7805 44.1103 37.4031 44.3924L37.3123 44.4603L35.7607 44.4605L34.2091 44.4608L34.0808 44.3301C34.0102 44.2583 33.9225 44.1661 33.8858 44.1252C33.6441 43.8559 33.479 43.507 33.4281 43.1583C33.379 42.8211 33.4074 42.2927 33.4947 41.9191C33.5419 41.7175 33.5535 41.6405 33.558 41.5022C33.5617 41.3861 33.5603 41.3642 33.5457 41.3007C33.4868 41.0459 33.2869 40.8786 33.0037 40.8469C32.8074 40.825 32.6308 40.8859 32.4923 41.0233C32.2718 41.2422 32.1627 41.6208 32.1284 42.2866C32.1157 42.5317 32.1233 43.2886 32.1396 43.4151C32.1761 43.6978 32.2941 44.0289 32.4797 44.3691C32.5033 44.4124 32.5226 44.4506 32.5226 44.454C32.5226 44.4573 32.5065 44.4586 32.4867 44.4567C32.4669 44.4549 32.4098 44.4497 32.3598 44.4451C32.1777 44.4284 31.9726 44.3801 31.8441 44.3237C31.7009 44.2609 31.5551 44.1642 31.442 44.0569C31.1848 43.8129 31.0165 43.4137 30.9593 42.9122C30.8911 42.3133 30.9575 41.617 31.1597 40.811C31.3512 40.0477 31.5735 39.5276 31.9495 38.9631C32.1356 38.6838 32.4815 38.2494 32.7426 37.9673C32.7618 37.9465 32.8233 37.88 32.8791 37.8197C33.2388 37.4308 33.7524 36.9231 34.128 36.5853C34.1673 36.5499 34.2218 36.5005 34.249 36.4754C34.3303 36.4005 34.644 36.1274 34.802 35.994C35.3902 35.4974 36.013 35.0148 36.6383 34.5713C36.8644 34.411 36.9281 34.367 37.0472 34.289C37.2236 34.1736 37.2706 34.1468 37.2888 34.1507C37.2976 34.1527 37.4069 34.1697 37.5319 34.1886Z"/></svg>