<svg viewBox="0 0 60 61" fill="currentcolor" xmlns="http://www.w3.org/2000/svg"><path style="fill:green" fill-rule="evenodd" clip-rule="evenodd" d="M16.478 16.12C16.0155 16.3541 15.9947 16.4698 16.0156 18.6993C16.0338 20.642 16.0371 20.6839 16.1912 20.8999C16.5165 21.356 17.259 21.356 17.5843 20.8999C17.7229 20.7056 17.7441 20.5844 17.7643 19.8695L17.7873 19.0592L19.3008 20.5612C20.8852 22.1336 20.9994 22.2156 21.4633 22.1137C21.7265 22.0559 22.054 21.7285 22.1117 21.4652C22.2136 21.0013 22.1317 20.8872 20.5593 19.3027L19.0573 17.7893L19.8675 17.7662C20.5825 17.746 20.7036 17.7249 20.898 17.5862C21.354 17.261 21.354 16.5184 20.898 16.1932C20.6819 16.0391 20.6401 16.0358 18.6974 16.0176C16.9148 16.0009 16.6931 16.0111 16.478 16.12ZM39.217 16.1273C38.9606 16.2623 38.7403 16.6146 38.7403 16.8897C38.7403 17.1648 38.9606 17.5171 39.217 17.6521C39.4059 17.7516 39.6094 17.7774 40.2038 17.7774H40.9527L39.4449 19.2969C37.8662 20.8875 37.7846 21.0011 37.8865 21.4652C37.9443 21.7285 38.2717 22.0559 38.535 22.1137C38.9991 22.2156 39.1127 22.134 40.7033 20.5554L42.2228 19.0475V19.7804C42.2228 20.6336 42.3127 20.9189 42.6455 21.1218C42.9336 21.2975 43.2874 21.2975 43.5756 21.1218C43.9735 20.8792 43.9983 20.7302 43.998 18.582C43.9976 15.8335 44.1703 16.0019 41.3532 16.0019C39.6439 16.0019 39.4313 16.0144 39.217 16.1273ZM23.8686 21.7458C22.8002 21.9238 21.919 22.8264 21.7406 23.9257C21.648 24.4967 21.648 26.7645 21.7406 27.3355C21.9242 28.4666 22.7955 29.3356 23.9309 29.5199C24.4928 29.611 26.7646 29.611 27.3265 29.5199C28.4619 29.3356 29.3332 28.4666 29.5167 27.3355C29.6093 26.7645 29.6093 24.4967 29.5167 23.9257C29.3817 23.0935 28.7952 22.2991 28.0609 21.954C27.8941 21.8756 27.5628 21.7798 27.3248 21.7411C26.8088 21.6574 24.3798 21.6607 23.8686 21.7458ZM32.6095 21.7458C31.5411 21.9238 30.6599 22.8264 30.4815 23.9257C30.3889 24.4967 30.3889 26.7645 30.4815 27.3355C30.6651 28.4666 31.5364 29.3356 32.6718 29.5199C33.2337 29.611 35.5055 29.611 36.0674 29.5199C37.2028 29.3356 38.0741 28.4666 38.2577 27.3355C38.3503 26.7645 38.3503 24.4967 38.2577 23.9257C38.1227 23.0935 37.5361 22.2991 36.8018 21.954C36.635 21.8756 36.3037 21.7798 36.0657 21.7411C35.5497 21.6574 33.1207 21.6607 32.6095 21.7458ZM27.3423 23.5512C27.4548 23.6093 27.6068 23.7553 27.6801 23.8755C27.8017 24.0751 27.8134 24.2271 27.8136 25.617C27.8139 27.3053 27.7867 27.4364 27.3838 27.682C27.1841 27.8038 27.0324 27.8154 25.6287 27.8154C23.3804 27.8154 23.4434 27.8783 23.4434 25.6306C23.4434 23.9572 23.4713 23.8245 23.8736 23.5792C24.0731 23.4575 24.2251 23.4459 25.615 23.4457C26.8566 23.4455 27.1755 23.4649 27.3423 23.5512ZM36.0832 23.5512C36.1957 23.6093 36.3477 23.7553 36.421 23.8755C36.5427 24.0751 36.5543 24.2271 36.5545 25.617C36.5548 27.3053 36.5276 27.4364 36.1247 27.682C35.925 27.8038 35.7733 27.8154 34.3696 27.8154C32.1213 27.8154 32.1844 27.8783 32.1844 25.6306C32.1844 23.9572 32.2122 23.8245 32.6145 23.5792C32.8141 23.4575 32.9661 23.4459 34.3559 23.4457C35.5976 23.4455 35.9165 23.4649 36.0832 23.5512ZM23.8686 30.4867C22.8002 30.6647 21.919 31.5673 21.7406 32.6666C21.648 33.2376 21.648 35.5055 21.7406 36.0764C21.9242 37.2076 22.7955 38.0765 23.9309 38.2608C24.4928 38.3519 26.7646 38.3519 27.3265 38.2608C28.4619 38.0765 29.3332 37.2076 29.5167 36.0764C29.6093 35.5055 29.6093 33.2376 29.5167 32.6666C29.3817 31.8344 28.7952 31.04 28.0609 30.6949C27.8941 30.6165 27.5628 30.5207 27.3248 30.482C26.8088 30.3983 24.3798 30.4016 23.8686 30.4867ZM32.6095 30.4867C31.5604 30.6615 30.6809 31.5462 30.4831 32.6257C30.3884 33.1422 30.3874 35.4962 30.4815 36.0764C30.6651 37.2076 31.5364 38.0765 32.6718 38.2608C33.2337 38.3519 35.5055 38.3519 36.0674 38.2608C37.2028 38.0765 38.0741 37.2076 38.2577 36.0764C38.3503 35.5055 38.3503 33.2376 38.2577 32.6666C38.1227 31.8344 37.5361 31.04 36.8018 30.6949C36.635 30.6165 36.3037 30.5207 36.0657 30.482C35.5497 30.3983 33.1207 30.4016 32.6095 30.4867ZM27.3423 32.2921C27.4548 32.3502 27.6068 32.4962 27.6801 32.6165C27.8017 32.816 27.8134 32.968 27.8136 34.3579C27.8139 36.0462 27.7867 36.1773 27.3838 36.4229C27.1841 36.5448 27.0324 36.5563 25.6287 36.5563C23.3804 36.5563 23.4434 36.6193 23.4434 34.3715C23.4434 32.6981 23.4713 32.5654 23.8736 32.3202C24.0731 32.1985 24.2251 32.1868 25.615 32.1866C26.8566 32.1864 27.1755 32.2058 27.3423 32.2921ZM36.0832 32.2921C36.1957 32.3502 36.3477 32.4962 36.421 32.6165C36.5427 32.816 36.5543 32.968 36.5545 34.3579C36.5548 36.0462 36.5276 36.1773 36.1247 36.4229C35.925 36.5448 35.7733 36.5563 34.3696 36.5563C32.1213 36.5563 32.1844 36.6193 32.1844 34.3715C32.1844 32.6981 32.2122 32.5654 32.6145 32.3202C32.8141 32.1985 32.9661 32.1868 34.3559 32.1866C35.5976 32.1864 35.9165 32.2058 36.0832 32.2921ZM20.8826 37.9603C20.7699 38.0181 20.0248 38.7167 19.2266 39.5128L17.7755 40.9602V40.2199C17.7755 39.6699 17.7462 39.4179 17.6615 39.2393C17.3511 38.5853 16.4244 38.5853 16.114 39.2393C16.016 39.4458 16 39.7454 16 41.3665C16 43.4663 16.0261 43.62 16.4227 43.8619C16.6354 43.9915 16.7634 43.9997 18.5846 43.9999C20.2519 44.0001 20.5539 43.9844 20.7609 43.8862C21.2168 43.6698 21.3747 43.1753 21.1386 42.7027C20.9497 42.3245 20.6689 42.2249 19.7921 42.2248L19.0429 42.2247L20.5219 40.7394C21.9358 39.3193 22.146 39.058 22.146 38.7194C22.146 38.4717 21.9117 38.112 21.6637 37.979C21.3801 37.8269 21.153 37.8215 20.8826 37.9603ZM38.3346 37.979C38.0866 38.112 37.8523 38.4717 37.8523 38.7194C37.8523 39.0578 38.0621 39.319 39.4705 40.7335L40.9435 42.2128L40.132 42.2358C39.1804 42.2628 38.9402 42.3722 38.7993 42.8427C38.6875 43.2156 38.8073 43.6 39.1003 43.809C39.3163 43.9631 39.3582 43.9664 41.3009 43.9846C43.5304 44.0055 43.6461 43.9847 43.8802 43.5222C43.9891 43.3071 43.9994 43.0854 43.9826 41.3028C43.9645 39.3601 43.9611 39.3183 43.8071 39.1022C43.4818 38.6462 42.7392 38.6462 42.414 39.1022C42.2753 39.2966 42.2542 39.4177 42.2339 40.1339L42.2109 40.9455L40.7315 39.4725C39.0306 37.7788 38.8813 37.6858 38.3346 37.979Z"/></svg>