<svg viewBox="0 0 60 61" fill="currentcolor" xmlns="http://www.w3.org/2000/svg"><path style="fill:green" fill-rule="evenodd" clip-rule="evenodd" d="M25.624 16.8356C25.2234 16.9844 24.9475 17.153 24.6997 17.4009C24.4234 17.6771 23.2333 19.6235 23.2333 19.7991C23.2333 19.9536 23.4925 20.1963 23.6574 20.1963C23.733 20.1963 23.8357 20.1635 23.8856 20.1233C23.9356 20.0832 24.2346 19.6168 24.5503 19.087C25.4342 17.603 25.4839 17.5715 26.9409 17.5715C28.0553 17.5715 28.2415 17.618 28.6129 17.9895C28.8745 18.2511 29.5611 19.4125 29.519 19.5223C29.4682 19.6546 26.2042 25.1215 26.1306 25.1976C26.0814 25.2484 25.6074 24.9898 24.2259 24.1587C23.2144 23.5501 22.3554 23.0334 22.3171 23.0105C22.2684 22.9813 22.334 22.8204 22.5361 22.4735C22.8498 21.9348 22.8882 21.7316 22.7071 21.5677C22.5672 21.4411 22.2671 21.4282 22.1557 21.5441C22.112 21.5895 21.8875 21.9481 21.6569 22.3408C21.291 22.964 21.2443 23.0754 21.2898 23.2166C21.3329 23.3502 21.7331 23.6146 23.5868 24.7336C24.8214 25.479 25.9191 26.1316 26.0262 26.1838C26.411 26.3714 26.3849 26.4055 28.2801 23.2299C29.2374 21.6257 30.0371 20.314 30.0572 20.315C30.1213 20.3183 32.4119 24.1918 32.3612 24.2109C32.3344 24.221 31.9972 24.4203 31.6118 24.6539C30.8584 25.1105 30.7196 25.2652 30.8219 25.534C30.8536 25.6177 30.9393 25.7119 31.0122 25.7434C31.0851 25.7749 32.4698 25.9189 34.0893 26.0635C36.6208 26.2896 37.0508 26.3152 37.1546 26.2465C37.292 26.1556 39.5816 20.8029 39.5816 20.5725C39.5816 20.4011 39.3704 20.1963 39.1938 20.1963C39.1209 20.1963 38.7543 20.3818 38.3791 20.6084C38.0038 20.8351 37.6771 20.9993 37.6532 20.9733C37.6292 20.9474 37.1978 20.2036 36.6945 19.3205C35.6827 17.5455 35.4676 17.2706 34.8536 16.9674L34.4754 16.7807L30.1535 16.7697C26.6971 16.7608 25.79 16.774 25.624 16.8356ZM34.4707 17.6847C34.6022 17.7483 34.8045 17.8995 34.9203 18.0204C35.036 18.1414 35.5979 19.0549 36.169 20.0504C36.7401 21.0459 37.249 21.8923 37.2997 21.9315C37.4456 22.0438 37.5927 22.0196 37.9334 21.8273C38.1078 21.7289 38.2573 21.6566 38.2657 21.6667C38.2793 21.6833 36.7265 25.3884 36.682 25.4456C36.666 25.4662 33.6724 25.2124 32.8213 25.1184L32.5127 25.0842L32.8978 24.8537C33.2383 24.6498 33.3926 24.4726 33.3926 24.2857C33.3926 24.2332 29.6718 18.0125 29.4755 17.7367L29.356 17.5689H31.7938C34.1052 17.5689 34.244 17.5749 34.4707 17.6847ZM19.4955 27.1417C18.0017 27.3577 16.7229 27.5647 16.6539 27.6017C16.506 27.6808 16.4279 27.967 16.5115 28.1231C16.5438 28.1835 16.8871 28.4013 17.2744 28.607C17.6617 28.8127 17.9785 29.0054 17.9785 29.0352C17.9785 29.065 17.5723 29.82 17.0757 30.7132C16.5792 31.6062 16.1294 32.4867 16.0762 32.6696C15.9481 33.1103 15.9853 33.7831 16.1595 34.1746C16.2296 34.3322 17.1733 35.9332 18.2567 37.7324C20.4374 41.354 20.5682 41.5327 21.2863 41.8728L21.6861 42.0621L23.029 42.0788C24.4909 42.0969 24.6113 42.076 24.7072 41.7868C24.7433 41.6778 24.7355 41.5776 24.6819 41.4657L24.6041 41.3031L23.2327 41.2739C21.3579 41.234 21.3237 41.2168 20.545 39.924L20.1097 39.2012V38.704C20.1097 38.2125 20.1135 38.1994 20.4532 37.5363C20.642 37.1675 20.8228 36.8327 20.8548 36.7923C20.9006 36.7345 21.6296 36.722 24.2772 36.7339L27.6415 36.7489L27.6568 38.9822L27.6721 41.2155H27.2414C26.8941 41.2155 26.7809 41.2389 26.6569 41.3366C26.4798 41.4758 26.4544 41.7041 26.5939 41.9031C26.6801 42.0263 26.7249 42.0329 27.4654 42.0329C28.6025 42.0329 28.4951 42.3636 28.4752 38.9233L28.459 36.1255L28.3211 36.0139C28.1889 35.9069 28.0434 35.9023 24.7741 35.9023C22.8991 35.9023 21.365 35.8844 21.365 35.8625C21.365 35.7723 23.4301 31.932 23.4786 31.932C23.5076 31.932 23.8541 32.1028 24.2486 32.3116C24.6432 32.5203 25.0349 32.6911 25.1191 32.6911C25.2963 32.6911 25.5104 32.4881 25.5104 32.3203C25.5104 32.1673 22.9568 26.9024 22.8371 26.8086C22.6902 26.6935 22.3808 26.7243 19.4955 27.1417ZM39.7419 27.0659C39.319 27.3057 39.163 27.4261 39.1361 27.5336C39.0871 27.7284 39.1957 27.948 39.3831 28.0335C39.5188 28.0953 39.5831 28.0793 39.9366 27.896L40.3364 27.6886L41.6899 30.1092C42.4343 31.4406 43.0819 32.6615 43.129 32.8223C43.2654 33.2876 43.1676 33.619 42.614 34.5657C42.355 35.0089 42.0527 35.4508 41.9422 35.5478C41.6341 35.8183 41.2317 35.909 40.4261 35.8897L39.7372 35.8731L38.0831 32.8954C37.1733 31.2577 36.4289 29.9026 36.4289 29.8842C36.4288 29.8658 36.7346 29.6819 37.1083 29.4755C37.482 29.2691 37.8258 29.0425 37.8722 28.9718C38.0208 28.7452 37.8193 28.3705 37.5489 28.3705C37.3925 28.3705 35.7871 29.235 35.5675 29.4374C35.4953 29.504 35.4362 29.6158 35.4362 29.6859C35.4362 29.7559 36.185 31.1608 37.1002 32.8078C38.0154 34.4549 38.7642 35.825 38.7642 35.8524C38.7642 35.8799 37.7427 35.9023 36.4942 35.9023H34.2242L34.1818 34.9828C34.1579 34.4643 34.1113 34.0287 34.0749 33.9841C33.9822 33.8703 33.7751 33.8029 33.6327 33.8402C33.4536 33.887 30.0451 38.7384 30.0451 38.9464C30.0451 39.0601 30.5019 39.7103 31.7275 41.3413C32.6529 42.5727 33.49 43.6656 33.5879 43.7699C33.803 43.9993 33.9876 44.0123 34.1879 43.812C34.3338 43.666 34.3353 43.6548 34.3166 42.8512L34.2976 42.0381L36.3704 42.021C38.3911 42.0042 38.4516 42.0003 38.7836 41.8664C39.0018 41.7783 39.2483 41.6106 39.4697 41.3993C39.7742 41.1088 40.0178 40.7186 41.516 38.121C43.9159 33.9603 43.879 34.0286 43.9603 33.5975C44.0384 33.1837 44.0001 32.7391 43.8547 32.3699C43.7397 32.0781 40.891 26.9773 40.7651 26.8378C40.6089 26.6648 40.3462 26.7233 39.7419 27.0659ZM23.2366 29.3991C23.7326 30.4145 24.1474 31.2692 24.1584 31.2986C24.1695 31.328 24.0097 31.2592 23.8033 31.1458C23.4076 30.9283 23.2012 30.8921 23.0429 31.0125C22.9581 31.0769 19.9053 36.755 19.4991 37.6039L19.3414 37.9334L18.1414 35.9399C17.4814 34.8434 16.9091 33.8451 16.8696 33.7212C16.83 33.5974 16.8087 33.3445 16.822 33.1593C16.8443 32.8509 16.9358 32.6614 17.9088 30.9084C18.4931 29.8556 18.9711 28.9349 18.9711 28.8623C18.9711 28.6261 18.9057 28.5487 18.5431 28.356C18.2885 28.2206 18.219 28.161 18.3012 28.1484C18.3646 28.1387 19.2835 28.0036 20.3432 27.8483C21.4029 27.6929 22.2846 27.5629 22.3024 27.5594C22.3203 27.5559 22.7407 28.3838 23.2366 29.3991ZM33.5503 36.6018C33.7019 36.721 33.7413 36.722 37.5415 36.7064L41.3795 36.6906L41.3037 36.8365C40.9343 37.5475 39.1236 40.5869 38.9789 40.739C38.8769 40.8461 38.6883 40.9906 38.5599 41.0601C38.3334 41.1825 38.2565 41.1869 36.0122 41.2034C33.3199 41.2233 33.5017 41.1778 33.451 41.8455L33.4218 42.2299L32.1862 40.581L30.9505 38.932L32.0047 37.4318C32.5844 36.6067 33.1273 35.8396 33.2111 35.7272L33.3634 35.5228L33.3804 36.0021C33.3958 36.4399 33.4106 36.4918 33.5503 36.6018Z"/></svg>