<svg viewBox="0 0 60 61" fill="currentcolor" xmlns="http://www.w3.org/2000/svg"><path style="fill:green" fill-rule="evenodd" clip-rule="evenodd" d="M16.5205 14.6309C15.5587 14.8906 14.8067 15.6867 14.6055 16.6581C14.5624 16.8663 14.5471 21.3239 14.5581 30.4235L14.5744 43.881L14.8047 44.3469C15.1682 45.0823 15.6829 45.536 16.4118 45.7635C16.7449 45.8675 17.0795 45.8758 20.953 45.8758H25.1347V45.2292V44.5827H21.0932C18.2431 44.5827 16.9826 44.562 16.8172 44.5124C16.5074 44.4196 16.1701 44.1351 16.0193 43.8395C15.8989 43.6035 15.8977 43.4447 15.9133 30.1502L15.9291 16.6995L16.1144 16.4359C16.2266 16.2763 16.4202 16.1102 16.6053 16.015L16.9111 15.8577H29.8144H42.7178L43.0235 16.015C43.2086 16.1102 43.4023 16.2763 43.5144 16.4359L43.6997 16.6995L43.7157 26.0229L43.7317 35.3464H44.4094H45.0871L45.0708 25.9715L45.0544 16.5966L44.9107 16.2405C44.6394 15.5685 44.0514 14.9796 43.3822 14.7097L43.0224 14.5646L29.9376 14.5529C18.6467 14.5428 16.8072 14.5535 16.5205 14.6309ZM19.2981 20.9689C19.0562 21.0739 18.8887 21.4142 18.9474 21.6813C18.9687 21.7785 19.0693 21.928 19.1711 22.0136L19.356 22.1692H29.6297H39.9034L40.0907 22.0115C40.3268 21.8129 40.3915 21.5162 40.2559 21.254C40.046 20.8482 40.8273 20.8758 29.6482 20.8785C20.9936 20.8806 19.4707 20.8938 19.2981 20.9689ZM35.1715 26.1654C34.3768 26.341 33.5994 26.6808 32.9856 27.1206C32.2124 27.6747 31.3855 28.6841 31.011 29.5308C30.3663 30.9886 30.3716 32.7696 31.0248 34.2441L31.1776 34.5889L29.0438 38.8161C27.8702 41.1411 26.9331 43.0426 26.9614 43.0418C26.9896 43.0409 27.8711 42.9456 28.9202 42.83C29.9693 42.7144 30.8314 42.625 30.836 42.6314C30.8406 42.6378 31.2786 43.3774 31.8094 44.2748C32.3402 45.1723 32.7942 45.9129 32.8184 45.9206C32.8426 45.9284 33.636 44.3966 34.5815 42.5166C35.527 40.6367 36.3209 39.1202 36.3457 39.1467C36.3888 39.1927 37.1286 40.4726 39.2207 44.1209C39.745 45.0353 40.2068 45.8186 40.2469 45.8616C40.3041 45.923 40.503 45.5851 41.1712 44.2914C41.6395 43.3848 42.0536 42.6101 42.0915 42.5699C42.1446 42.5134 42.5327 42.5176 43.7921 42.5878C44.6896 42.6379 45.5538 42.6708 45.7125 42.661L46.0012 42.6431L43.781 38.7946C42.5598 36.6779 41.5477 34.9004 41.5317 34.8446C41.5158 34.7888 41.5471 34.6754 41.6014 34.5925C41.7593 34.3516 42.0713 33.4462 42.1658 32.9549C42.2869 32.3253 42.2744 31.3646 42.1364 30.6963C41.7724 28.9323 40.501 27.3255 38.892 26.596C38.0838 26.2295 37.4927 26.097 36.5569 26.0723C35.8764 26.0545 35.5847 26.074 35.1715 26.1654ZM19.1711 26.3272C18.9371 26.5241 18.8806 26.7692 19.0022 27.0602C19.1768 27.4782 19.0089 27.4647 24.0152 27.4647H28.5031L28.7123 27.324C29.1105 27.0565 29.0841 26.4306 28.6666 26.2404C28.5596 26.1917 27.1792 26.1716 23.9358 26.1716H19.356L19.1711 26.3272ZM37.5322 27.4987C38.0788 27.6374 38.845 28.0321 39.3065 28.4127C40.4834 29.3835 41.1039 30.9553 40.899 32.4469C40.6592 34.1923 39.4662 35.6288 37.7885 36.1923C37.3459 36.3409 37.2051 36.358 36.403 36.36C35.4068 36.3626 35.034 36.2769 34.2479 35.8649C32.2155 34.7995 31.314 32.3059 32.1856 30.1608C32.7652 28.7343 34.1615 27.6512 35.7451 27.3995C36.1749 27.3312 37.0667 27.3807 37.5322 27.4987ZM19.2981 31.5599C19.0562 31.6649 18.8887 32.0053 18.9474 32.2723C18.9687 32.3695 19.0693 32.519 19.1711 32.6046L19.356 32.7602H23.3291H27.3021L27.5115 32.5508C27.8402 32.2221 27.7455 31.733 27.3185 31.5546C27.0071 31.4245 19.5985 31.4293 19.2981 31.5599ZM32.9915 36.6544C33.4486 36.9864 34.2989 37.3764 34.9108 37.5348C35.2041 37.6108 35.4515 37.6967 35.4606 37.7258C35.4697 37.7548 34.8586 39.0073 34.1028 40.5092L32.7284 43.2397L32.128 42.2181C31.6052 41.3286 31.5103 41.2002 31.3945 41.2252C31.161 41.2757 29.3262 41.4541 29.2644 41.4324C29.2316 41.421 29.8432 40.156 30.6235 38.6216L32.0422 35.8315L32.3599 36.129C32.5347 36.2926 32.8189 36.5291 32.9915 36.6544ZM41.7592 37.9325C42.3131 38.8977 42.9668 40.0338 43.2121 40.4571C43.4573 40.8805 43.6497 41.2353 43.6396 41.2456C43.6294 41.2559 43.1127 41.2342 42.4912 41.1973C41.469 41.1366 41.3544 41.1397 41.2879 41.2306C41.2475 41.2859 41.0032 41.7441 40.7451 42.2488C40.487 42.7535 40.2565 43.1655 40.2328 43.1643C40.198 43.1625 37.1544 37.9136 37.0931 37.7495C37.0832 37.7229 37.2633 37.6663 37.4933 37.6237C38.4439 37.4478 39.4407 36.9689 40.2203 36.3136C40.5682 36.021 40.6286 35.9904 40.6862 36.0776C40.7225 36.1326 41.2054 36.9673 41.7592 37.9325Z"/></svg>