<svg viewBox="0 0 60 61" fill="currentcolor" xmlns="http://www.w3.org/2000/svg"><path style="fill:green" fill-rule="evenodd" clip-rule="evenodd" d="M16.2584 16.1628L16 16.4913L16.0326 29.9642C16.0649 43.3533 16.0668 43.4394 16.3206 43.7792C16.461 43.9674 16.7298 44.2362 16.9179 44.3766C17.2578 44.6304 17.3443 44.6323 30.7322 44.6651L44.2045 44.6983L44.5336 44.4394C44.9877 44.0822 44.989 43.4488 44.5364 43.0928C44.2109 42.8367 44.1763 42.8361 31.0356 42.8361H17.8611V29.6987C17.8611 16.4686 17.8531 16.205 17.44 15.9292C17.1199 15.7155 16.5164 15.8348 16.2584 16.1628ZM35.2791 20.5288C32.685 23.1165 32.3116 23.5371 32.3116 23.8714C32.3116 24.6235 32.5718 24.7411 34.3196 24.7798L35.8828 24.8143L35.9147 32.6921C35.9464 40.5132 35.9485 40.5715 36.2062 40.805C36.4402 41.0168 36.6779 41.0401 38.6073 41.0401C40.5364 41.0401 40.7743 41.0168 41.0088 40.805C41.2673 40.5714 41.2692 40.5185 41.3009 32.6921L41.3327 24.8143L42.8756 24.7794C44.6415 24.7393 44.8627 24.6407 44.8627 23.8937C44.8627 23.4729 44.6795 23.2624 41.9151 20.5067C39.4206 18.0201 38.9121 17.5685 38.6072 17.5685C38.302 17.5685 37.7917 18.0224 35.2791 20.5288ZM40.83 23.0184C40.0859 23.0673 39.8508 23.1308 39.7122 23.3207C39.5652 23.5222 39.5367 24.8323 39.5367 31.4026V39.2441H38.6078H37.6788V31.4026C37.6788 24.8323 37.6503 23.5222 37.5033 23.3207C37.3647 23.1308 37.1296 23.0673 36.3842 23.0184L35.4408 22.9564L37.0195 21.3742L38.5982 19.7919L40.1851 21.3742L41.772 22.9564L40.83 23.0184ZM22.6667 29.5485C19.8926 32.3138 19.719 32.5135 19.719 32.9396C19.719 33.6379 19.9172 33.724 21.6882 33.7942L23.2491 33.8562L23.282 37.2139C23.3136 40.4401 23.325 40.5809 23.5736 40.8059C23.8063 41.0165 24.0473 41.0401 25.9738 41.0401C27.9057 41.0401 28.1408 41.017 28.3761 40.8041C28.6293 40.5751 28.637 40.4678 28.637 37.1812V33.7942H30.1576C31.9536 33.7942 32.229 33.6825 32.229 32.954C32.229 32.5258 32.0582 32.3286 29.2844 29.5549C26.7813 27.0518 26.2854 26.6103 25.9771 26.6103C25.6689 26.6103 25.17 27.0531 22.6667 29.5485ZM27.5789 30.4387C28.4334 31.2841 29.1324 31.9947 29.1324 32.0179C29.1324 32.0412 28.7423 32.0602 28.2654 32.0602C26.8492 32.0602 26.903 31.9088 26.903 35.8999V39.2441H25.974H25.045V35.8999C25.045 31.9088 25.0988 32.0602 23.6826 32.0602C23.2057 32.0602 22.8156 32.0231 22.8156 31.9779C22.8156 31.8516 25.8381 28.8502 25.9377 28.8777C25.9859 28.891 26.7243 29.5934 27.5789 30.4387Z"/></svg>