<svg viewBox="0 0 60 60" fill="currentcolor" xmlns="http://www.w3.org/2000/svg"><path style="fill:green" fill-rule="evenodd" clip-rule="evenodd" d="M29.6318 13.0699L29.4688 13.2328V15.0319V16.8309L29.6318 16.9938C29.7345 17.0966 29.8706 17.1569 30 17.1569C30.1294 17.1569 30.2655 17.0966 30.3682 16.9938L30.5312 16.8309V15.0319V13.2328L30.3682 13.0699C30.2655 12.9671 30.1294 12.9069 30 12.9069C29.8706 12.9069 29.7345 12.9671 29.6318 13.0699ZM35.362 15.2145C35.3049 15.2784 35.0607 15.8238 34.8192 16.4264C34.3517 17.5935 34.3241 17.7922 34.6021 17.9869C34.8142 18.1354 35.1333 18.1124 35.2909 17.9371C35.446 17.7645 36.2427 15.7983 36.2424 15.5887C36.2423 15.5114 36.1802 15.3695 36.1045 15.2732C35.9371 15.0603 35.5287 15.028 35.362 15.2145ZM23.6008 15.3687C23.4785 15.4648 23.4258 15.5688 23.4258 15.7135C23.4258 15.9778 24.2591 17.949 24.436 18.1031C24.731 18.3601 25.2852 18.1157 25.2852 17.7286C25.2852 17.5016 24.3889 15.4369 24.242 15.3256C24.0681 15.1936 23.8005 15.2116 23.6008 15.3687ZM17.992 17.9082C17.9027 18.0033 17.8477 18.1473 17.8477 18.2858C17.8477 18.487 17.9673 18.6307 19.0264 19.7002C19.6746 20.3548 20.3026 20.9325 20.4218 20.9839C20.6113 21.0656 20.6637 21.0643 20.8397 20.9733C21.1089 20.834 21.1941 20.5997 21.0753 20.3246C21.0249 20.2076 20.4479 19.5815 19.7933 18.9332C18.705 17.8555 18.583 17.7545 18.3697 17.7545C18.2118 17.7545 18.0898 17.8041 17.992 17.9082ZM40.2067 18.9332C38.9257 20.2018 38.767 20.4244 38.9254 20.7307C39.0659 21.0024 39.3145 21.0977 39.5818 20.9824C39.699 20.9319 40.3253 20.3548 40.9736 19.7002C42.0513 18.6118 42.1523 18.4898 42.1523 18.2765C42.1523 17.9741 41.9289 17.7545 41.621 17.7545C41.4198 17.7545 41.2762 17.8742 40.2067 18.9332ZM28.8158 19.4547C28.6251 19.5498 28.3891 19.7322 28.2916 19.8601C28.129 20.0734 28.0921 20.0897 27.849 20.0571C27.0794 19.9539 25.9169 20.4874 25.6128 21.0834C25.3646 21.57 25.4874 22.0331 25.9722 22.4383C26.139 22.5778 26.3659 22.8179 26.4765 22.9718C26.6599 23.2272 26.668 23.2597 26.5687 23.342C26.3514 23.5222 26.2812 23.8405 26.2812 24.6468V25.4339L25.9414 25.5875C24.8783 26.068 23.8913 27.0042 23.4005 27.9977C22.9885 28.8316 22.813 29.5543 22.5013 31.6998C22.3554 32.7042 22.1865 33.8547 22.1261 34.2565C21.8329 36.2047 22.3654 37.3701 23.8172 37.9574C24.1877 38.1074 24.2079 38.1081 28.1851 38.1276C31.9796 38.146 32.1824 38.141 32.2155 38.0279C32.2459 37.9243 32.3906 37.157 32.3906 37.0997C32.3906 37.0882 30.6589 37.0787 28.5423 37.0787C26.0112 37.0787 24.5783 37.0539 24.3559 37.0062C23.9154 36.9117 23.5089 36.596 23.2966 36.1834C23.1494 35.8974 23.1271 35.7702 23.1277 35.2212C23.1287 34.4253 23.7529 30.2343 23.9946 29.4002C24.2394 28.5554 24.5752 27.9576 25.0901 27.4498C26.1441 26.4105 27.5568 25.9225 29.5113 25.9225C32.2084 25.9225 34.1544 27.0556 34.8351 29.0225C34.9862 29.459 35.2096 30.5064 35.2824 31.1188L35.3278 31.5006L35.6024 31.5035C35.7534 31.5051 35.9954 31.5486 36.1401 31.6002C36.2848 31.6517 36.4109 31.6861 36.4203 31.6767C36.4541 31.6429 36.1722 29.9371 36.0428 29.3923C35.7835 28.3008 35.3235 27.4293 34.6429 26.74C34.24 26.3321 33.5064 25.8182 33.001 25.5898L32.6662 25.4385L32.6446 24.5628C32.6241 23.7311 32.6141 23.6752 32.4449 23.4537C32.2684 23.2226 32.2678 23.2184 32.3865 23.0233C32.4524 22.9149 32.6792 22.6787 32.8903 22.4984C33.456 22.0154 33.5853 21.5943 33.3247 21.0834C33.0206 20.4874 31.8581 19.9539 31.0885 20.0571C30.8454 20.0897 30.8085 20.0734 30.6459 19.8601C30.4099 19.5507 29.8625 19.2819 29.4688 19.2819C29.2723 19.2819 29.0386 19.3438 28.8158 19.4547ZM30.0184 20.8413C30.4413 21.4579 30.4211 21.4442 30.6758 21.2905C30.7972 21.2173 31.0024 21.1386 31.1319 21.1157C31.4068 21.0669 31.9468 21.2134 32.1909 21.4028L32.3563 21.5312L31.9727 21.9057C31.7618 22.1117 31.4977 22.4423 31.3859 22.6404L31.1826 23.0006L29.4458 22.9999L27.709 22.9991L27.5762 22.7201C27.5031 22.5667 27.247 22.2365 27.0071 21.9865L26.5708 21.5317L26.7628 21.3949C27.2224 21.0677 27.8171 21.0225 28.2481 21.2822C28.362 21.3507 28.4729 21.4069 28.4946 21.4069C28.5164 21.4069 28.6591 21.2201 28.8119 20.9918C29.2226 20.3784 29.2692 20.3353 29.4982 20.3577C29.6651 20.3741 29.756 20.4586 30.0184 20.8413ZM42.8907 23.7923C42.329 24.0375 41.8284 24.2942 41.7784 24.3626C41.556 24.6669 41.809 25.192 42.1782 25.192C42.4052 25.192 44.4699 24.2958 44.5813 24.1489C44.836 23.8132 44.5708 23.3265 44.1403 23.3395C44.0148 23.3433 43.4525 23.547 42.8907 23.7923ZM15.3664 23.8023C15.1514 23.9714 15.1213 24.3775 15.3111 24.5493C15.3769 24.6088 15.9223 24.8531 16.523 25.0921C17.6865 25.555 17.8857 25.5822 18.08 25.3048C18.2286 25.0927 18.2055 24.7735 18.0303 24.616C17.8577 24.4608 15.8915 23.6641 15.6818 23.6645C15.6046 23.6646 15.4626 23.7266 15.3664 23.8023ZM31.5938 24.5683C31.5938 25.0663 31.5915 25.073 31.4368 25.0342C30.5247 24.8053 28.4128 24.8053 27.5007 25.0342C27.346 25.073 27.3438 25.0663 27.3438 24.5683V24.0631H29.4688H31.5938V24.5683ZM29.2843 27.5532C29.1626 27.6384 29.1367 27.7198 29.1367 28.0168C29.1367 28.356 29.1261 28.3793 28.9541 28.416C27.9784 28.6248 27.4795 29.1629 27.4795 30.0065C27.4795 30.4958 27.6346 30.8612 27.966 31.1521C28.2862 31.4333 28.5646 31.5711 29.3999 31.8618C30.2132 32.1449 30.499 32.3082 30.6325 32.5662C30.7571 32.8072 30.7564 32.9845 30.6297 33.2294C30.4981 33.4839 30.2003 33.6321 29.7354 33.6742C29.1879 33.7239 28.7238 33.5672 28.2233 33.1636C27.7697 32.7979 27.5564 32.7489 27.3438 32.9615C27.0735 33.2318 27.2272 33.6572 27.7422 34.0647C28.005 34.2726 28.2527 34.3872 28.8379 34.5713C29.0987 34.6534 29.1041 34.6615 29.1367 35.0196C29.1659 35.3408 29.1926 35.3952 29.3602 35.4752C29.53 35.5562 29.5692 35.552 29.7254 35.4357C29.8677 35.3299 29.9041 35.2426 29.9202 34.9695L29.9401 34.6334L30.2855 34.5521C31.2613 34.3225 31.7236 33.7792 31.7236 32.8619C31.7236 31.872 31.3027 31.4532 29.7787 30.9273C28.6738 30.546 28.3835 30.2787 28.5444 29.7912C28.746 29.1803 29.9868 29.1512 30.7232 29.7401C31.0505 30.0018 31.2427 30.0305 31.4647 29.8508C31.6574 29.6947 31.6625 29.3931 31.4769 29.1324C31.3059 28.8923 30.8026 28.6113 30.3251 28.4896L29.9668 28.3982L29.9468 28.059C29.9307 27.7868 29.8929 27.6931 29.7552 27.5848C29.5492 27.4227 29.4775 27.4179 29.2843 27.5532ZM13.163 29.5386C13.0602 29.6414 13 29.7775 13 29.9069C13 30.0362 13.0602 30.1724 13.163 30.2751L13.326 30.4381H15.125H16.924L17.087 30.2751C17.1898 30.1724 17.25 30.0362 17.25 29.9069C17.25 29.7775 17.1898 29.6414 17.087 29.5386L16.924 29.3756H15.125H13.326L13.163 29.5386ZM42.913 29.5386C42.8102 29.6414 42.75 29.7775 42.75 29.9069C42.75 30.0362 42.8102 30.1724 42.913 30.2751L43.076 30.4381H44.875H46.674L46.837 30.2751C46.9398 30.1724 47 30.0362 47 29.9069C47 29.7775 46.9398 29.6414 46.837 29.5386L46.674 29.3756H44.875H43.076L42.913 29.5386ZM35.2944 32.6357C35.2296 32.6734 35.0155 33.0236 34.8185 33.414C34.6215 33.8043 34.4202 34.1769 34.3711 34.2421C34.3029 34.3325 34.0623 34.3911 33.3528 34.4901C32.5214 34.606 32.4082 34.6376 32.2744 34.7904C31.9908 35.1145 32.0556 35.2547 32.8332 35.9988L33.5436 36.6786L33.3987 37.4706C33.3191 37.9062 33.2539 38.3412 33.2539 38.4373C33.2539 38.658 33.528 38.9381 33.744 38.9381C33.8343 38.9381 34.2663 38.7588 34.7041 38.5397C35.1418 38.3205 35.5352 38.1412 35.5781 38.1412C35.6211 38.1412 36.0144 38.3205 36.4522 38.5397C36.89 38.7588 37.322 38.9381 37.4123 38.9381C37.6282 38.9381 37.9023 38.658 37.9023 38.4373C37.9023 38.3412 37.8371 37.9062 37.7575 37.4706L37.6126 36.6786L38.323 35.9988C39.1006 35.2547 39.1655 35.1145 38.8818 34.7904C38.7481 34.6376 38.6349 34.606 37.8035 34.4901C37.0939 34.3911 36.8534 34.3325 36.7852 34.2421C36.7361 34.1769 36.5344 33.8036 36.3371 33.4126C36.1397 33.0215 35.9201 32.6704 35.8489 32.6323C35.6862 32.5452 35.4473 32.5466 35.2944 32.6357ZM35.8409 34.7487C35.963 35.0011 36.1257 35.2396 36.2023 35.2787C36.279 35.3178 36.5501 35.3819 36.8047 35.421C37.0593 35.4602 37.2771 35.5016 37.2885 35.5131C37.2999 35.5245 37.1448 35.6759 36.9437 35.8495C36.7426 36.0231 36.5598 36.2227 36.5375 36.293C36.5151 36.3634 36.5323 36.6307 36.5755 36.887C36.6187 37.1433 36.6396 37.3675 36.6219 37.3852C36.6042 37.4029 36.3621 37.3047 36.0839 37.1671L35.5781 36.9168L35.0723 37.1671C34.7941 37.3047 34.552 37.4029 34.5344 37.3852C34.5166 37.3675 34.5375 37.1433 34.5808 36.887C34.624 36.6307 34.6411 36.3634 34.6188 36.293C34.5964 36.2227 34.4137 36.0231 34.2125 35.8495C34.0115 35.6759 33.8563 35.5245 33.8678 35.5131C33.8792 35.5016 34.0969 35.4602 34.3515 35.421C34.6061 35.3819 34.8772 35.3178 34.9539 35.2787C35.0305 35.2396 35.1932 35.0011 35.3154 34.7487C35.4375 34.4962 35.5557 34.2897 35.5781 34.2897C35.6005 34.2897 35.7188 34.4962 35.8409 34.7487ZM42.1069 34.3565C41.7983 34.4809 41.7182 34.9716 41.9697 35.1977C42.1423 35.3529 44.1085 36.1496 44.3182 36.1492C44.3954 36.1491 44.5374 36.0871 44.6336 36.0114C44.8468 35.8437 44.8787 35.4362 44.6919 35.2671C44.5734 35.1599 42.4434 34.2862 42.3194 34.2939C42.2823 34.2962 42.1867 34.3244 42.1069 34.3565ZM16.5622 35.0879C15.983 35.3396 15.4685 35.5992 15.4188 35.6647C15.178 35.9822 15.4264 36.4811 15.8252 36.4811C16.0804 36.4811 18.0471 35.6438 18.1963 35.4716C18.4622 35.1647 18.206 34.6167 17.8008 34.6259C17.6988 34.6282 17.1414 34.8361 16.5622 35.0879ZM20.4043 38.8338C20.2947 38.8831 19.6746 39.4591 19.0264 40.1137C17.9486 41.202 17.8477 41.3239 17.8477 41.5372C17.8477 41.8397 18.0711 42.0592 18.379 42.0592C18.5802 42.0592 18.7238 41.9395 19.7933 40.8805C21.0743 39.6119 21.233 39.3893 21.0746 39.083C21.0006 38.9398 20.7106 38.7234 20.617 38.7415C20.6096 38.7429 20.5139 38.7844 20.4043 38.8338ZM39.1444 38.8449C38.8891 38.9833 38.8085 39.2198 38.9247 39.4891C38.9751 39.6061 39.5521 40.2322 40.2067 40.8805C41.295 41.9582 41.417 42.0592 41.6303 42.0592C41.9328 42.0592 42.1523 41.8357 42.1523 41.5279C42.1523 41.3267 42.0327 41.183 40.9736 40.1136C40.3253 39.4589 39.6988 38.8818 39.5812 38.8311C39.3285 38.7221 39.3735 38.7206 39.1444 38.8449ZM34.8779 41.7574C34.7882 41.847 34.7148 41.9945 34.7148 42.0851C34.7148 42.3121 35.6111 44.3768 35.758 44.4881C36.0619 44.7187 36.5742 44.4752 36.5742 44.1002C36.5742 43.8359 35.7409 41.8647 35.564 41.7106C35.372 41.5434 35.0714 41.5638 34.8779 41.7574ZM24.7091 41.8766C24.554 42.0492 23.7573 44.0154 23.7576 44.225C23.7577 44.3023 23.8198 44.4443 23.8955 44.5405C24.0629 44.7534 24.4713 44.7857 24.638 44.5992C24.6951 44.5354 24.9393 43.99 25.1808 43.3873C25.6483 42.2202 25.6759 42.0216 25.3979 41.8268C25.1858 41.6783 24.8667 41.7013 24.7091 41.8766ZM29.6318 42.8199L29.4688 42.9828V44.7819V46.5809L29.6318 46.7438C29.7345 46.8466 29.8706 46.9069 30 46.9069C30.1294 46.9069 30.2655 46.8466 30.3682 46.7438L30.5312 46.5809V44.7819V42.9828L30.3682 42.8199C30.2655 42.7171 30.1294 42.6569 30 42.6569C29.8706 42.6569 29.7345 42.7171 29.6318 42.8199Z"/></svg>