<svg viewBox="0 0 60 61" fill="currentcolor" xmlns="http://www.w3.org/2000/svg"><path style="fill:green" fill-rule="evenodd" clip-rule="evenodd" d="M33.5069 16.054C32.9628 16.1965 32.4452 16.4913 32.0002 16.9122C30.9115 17.9417 30.6061 19.5242 31.237 20.8665C31.6479 21.7405 32.7527 22.6097 33.6504 22.7652L34.006 22.8268L33.4237 22.9413C31.6096 23.2982 30.0514 24.8679 29.7277 26.6648C29.6185 27.271 29.6099 29.7029 29.716 29.982C29.7608 30.0998 29.9059 30.2245 30.0612 30.2786C30.4205 30.4038 38.2409 30.4094 38.5989 30.2846C38.7366 30.2366 38.8919 30.1039 38.944 29.9896C39.0843 29.6815 39.0635 27.3016 38.9141 26.5871C38.5347 24.7722 37.0617 23.3067 35.2538 22.9455L34.6715 22.8292L35.0042 22.7673C36.3167 22.5233 37.4353 21.36 37.7199 19.9429C38.0068 18.5143 37.0289 16.7565 35.6518 16.2255C35.1358 16.0265 33.9683 15.9332 33.5069 16.054ZM35.2584 17.4262C35.9752 17.7601 36.5431 18.6288 36.5431 19.3916C36.5431 19.812 36.2951 20.4411 35.9881 20.7999C35.4207 21.4628 34.4882 21.7174 33.5997 21.4521C33.0761 21.2958 32.4316 20.624 32.2669 20.0627C32.1028 19.5034 32.1011 19.2839 32.2572 18.7584C32.5225 17.865 33.3869 17.2304 34.3387 17.2304C34.6883 17.2304 34.9639 17.2891 35.2584 17.4262ZM35.512 24.3123C36.3861 24.6344 36.9894 25.1803 37.4211 26.0399C37.704 26.603 37.8012 27.2064 37.7731 28.2233L37.7493 29.0826L34.3179 29.1043L30.8865 29.126V28.1444C30.8865 27.5295 30.9345 26.9775 31.0148 26.6669C31.5222 24.7061 33.6119 23.612 35.512 24.3123ZM25.1954 31.3791C24.4806 31.4833 23.5567 31.7511 22.9276 32.0363C22.1778 32.3763 21.1147 33.1 20.6164 33.6099L20.2035 34.0321H19.5973H18.9911V33.6319C18.9911 33.3441 18.9434 33.1805 18.8215 33.0496C18.6554 32.8714 18.6066 32.8675 16.4984 32.8675H14.3448L14.1724 33.0867C14.0023 33.3029 14 33.3734 14 38.3161C14 43.2589 14.0023 43.3294 14.1724 43.5456L14.3448 43.7648H16.4871C18.6188 43.7648 18.6302 43.7638 18.8103 43.5723C18.9477 43.4259 18.9911 43.2767 18.9911 42.9503V42.521L27.0808 42.4982L35.1706 42.4754L35.7807 42.2525C36.5933 41.9557 37.2116 41.5744 37.7797 41.0197C38.4942 40.3221 42.5299 34.8435 42.6684 34.3828C42.9844 33.3331 42.5378 32.3042 41.5225 31.742C41.1428 31.5318 40.9903 31.496 40.4944 31.5006C39.4658 31.5102 39.1343 31.7481 37.1151 33.9253C36.2951 34.8095 35.6092 35.4853 35.5908 35.4272C35.5725 35.3691 35.5117 35.1732 35.4557 34.9918C35.3123 34.5273 34.6123 33.8489 34.0944 33.6724C33.7704 33.562 33.3694 33.533 32.1685 33.533H30.6518L30.4303 33.2627C29.7923 32.4842 28.4482 31.6461 27.4665 31.4147C26.8918 31.2792 25.9783 31.2649 25.1954 31.3791ZM27.3152 32.6661C28.0552 32.881 28.8179 33.3865 29.4692 34.0936L30.0639 34.7392L31.8727 34.7808C33.4128 34.8162 33.7145 34.8441 33.9043 34.9687C34.4073 35.2989 34.5076 35.9975 34.1133 36.4255C33.7166 36.8562 33.6726 36.8604 29.5944 36.8604C27.0798 36.8604 25.7457 36.8902 25.6364 36.9487C25.2375 37.1622 25.275 37.8219 25.6971 38.0142C25.9862 38.1459 33.5881 38.1448 34.2448 38.0129C35.0068 37.8599 35.473 37.51 36.7785 36.1117C39.5332 33.161 39.8085 32.8913 40.1797 32.7808C40.6391 32.6441 41.0802 32.8006 41.3457 33.1947C41.6939 33.7113 41.6301 33.8892 40.5945 35.2943C37.1292 39.9956 36.7893 40.3983 35.9192 40.8345C35.0252 41.2827 35.3075 41.2692 26.8359 41.2692H18.989L19.0108 38.2953L19.0327 35.3215L19.859 35.2975L20.6853 35.2735L21.3564 34.6298C22.1225 33.8948 23.021 33.3041 23.8447 32.9941C24.9847 32.565 26.4807 32.4236 27.3152 32.6661ZM17.7433 38.3161V42.517H16.4955H15.2478V38.3161V34.1153H16.4955H17.7433V38.3161Z"/></svg>