<svg viewBox="0 0 60 60" fill="currentcolor" xmlns="http://www.w3.org/2000/svg"><path style="fill:green" fill-rule="evenodd" clip-rule="evenodd" d="M15.4727 17.2854C14.2176 18.6931 13.3214 20.2091 12.7282 21.9281C12.2604 23.2838 12.0422 24.4981 12.0054 25.9515C11.9726 27.2444 12.0891 28.3684 12.3791 29.5561C12.9328 31.8231 14.1714 34.0638 15.7759 35.7009L15.9347 35.8629L16.3284 35.4743L16.7222 35.0857L16.4629 34.7974C15.8633 34.1302 15.5075 33.6782 15.1408 33.1172C14.0864 31.5044 13.4774 29.8478 13.1977 27.8316C13.1041 27.1575 13.1054 25.5133 13.2001 24.814C13.3383 23.7925 13.5622 22.8858 13.9034 21.9657C14.1216 21.3771 14.6448 20.321 14.9934 19.7653C15.2985 19.2791 15.8926 18.4836 16.2037 18.1448C16.3306 18.0067 16.4729 17.85 16.52 17.7966L16.6056 17.6994L16.208 17.3031L15.8103 16.9067L15.4727 17.2854ZM43.7914 17.3046L43.3944 17.6885L43.6991 18.0222C45.1943 19.6603 46.1702 21.4741 46.6691 23.5419C46.8153 24.1482 46.8842 24.5568 46.96 25.2691C47.0415 26.0353 47.0143 27.3861 46.9021 28.1478C46.5337 30.647 45.4982 32.8791 43.8653 34.6932L43.5194 35.0776L43.8924 35.4506C44.0975 35.6558 44.2843 35.8244 44.3074 35.8254C44.3305 35.8264 44.5269 35.6293 44.7439 35.3874C46.9249 32.9555 48.1299 29.79 48.1282 26.4968C48.1277 25.5873 48.0835 25.0168 47.9516 24.2182C47.5969 22.0709 46.7182 20.0383 45.3842 18.2791C45.1426 17.9605 44.4411 17.1503 44.2802 17.0041L44.1885 16.9207L43.7914 17.3046ZM17.6319 19.4104C16.979 20.1521 16.5113 20.8582 16.0619 21.7811C15.5443 22.8442 15.1831 24.1104 15.0676 25.2669C15.008 25.8624 15.0405 27.3322 15.125 27.87C15.2023 28.362 15.4132 29.2074 15.5728 29.665C15.6377 29.8512 15.708 30.064 15.729 30.138C15.7501 30.212 15.9116 30.5666 16.088 30.926C16.5527 31.8733 17.1211 32.7043 17.8109 33.445L18.0728 33.7261L18.4632 33.3448C18.678 33.135 18.8614 32.9591 18.8708 32.9539C18.8802 32.9487 18.785 32.8363 18.6593 32.7041C17.6826 31.6768 16.8633 30.2416 16.503 28.9271C16.2411 27.9715 16.1459 27.2792 16.1464 26.3336C16.1469 25.3664 16.2503 24.6278 16.5141 23.706C16.8876 22.4014 17.641 21.0504 18.5222 20.105L18.7551 19.8552L18.3643 19.4612C18.1493 19.2444 17.9644 19.0673 17.9535 19.0675C17.9425 19.0677 17.7978 19.222 17.6319 19.4104ZM41.6603 19.4426C41.4545 19.6491 41.2862 19.8331 41.2862 19.8514C41.2862 19.8697 41.4036 20.0082 41.547 20.1593C42.1029 20.7444 42.6312 21.5224 43.0372 22.3538C43.4488 23.1967 43.7209 24.0459 43.8809 24.987C43.9655 25.485 44.0001 26.8519 43.9422 27.4123C43.747 29.3023 42.9379 31.1639 41.6996 32.572C41.5356 32.7584 41.4015 32.9256 41.4015 32.9436C41.4015 32.9616 41.5788 33.1431 41.7955 33.347L42.1896 33.7176L42.3742 33.5135C45.0509 30.5537 45.8334 26.4298 44.4235 22.7136C44.139 21.9637 43.6877 21.1103 43.245 20.4849C42.8868 19.9789 42.1225 19.0671 42.0566 19.0671C42.0444 19.0671 41.866 19.2361 41.6603 19.4426ZM29.2351 20.4703C27.1598 20.8026 25.4849 22.3528 24.9628 24.4244C24.829 24.9552 24.794 25.9101 24.8878 26.4707C25.0046 27.1683 25.2835 27.9141 25.6326 28.4621C25.8221 28.7595 26.2869 29.3117 26.5256 29.523C27.2674 30.1793 28.0874 30.5887 29.0788 30.7976C29.619 30.9114 30.4977 30.9111 31.0443 30.7969C32.1206 30.572 33.0039 30.1054 33.7398 29.3729C34.7496 28.3676 35.2893 27.0744 35.2892 25.6597C35.2891 24.2124 34.7724 22.9633 33.7543 21.9494C32.9967 21.195 32.1656 20.7445 31.0987 20.51C30.6928 20.4207 29.6792 20.3991 29.2351 20.4703ZM39.4735 21.6174L39.1024 22.0078L39.3153 22.2362C40.2871 23.2785 40.8699 24.7023 40.9294 26.1796C40.9926 27.7472 40.4787 29.2878 39.5109 30.4323L39.2118 30.786L39.6018 31.154C39.8163 31.3563 40.0058 31.5219 40.0228 31.5219C40.0736 31.5219 40.5369 30.9607 40.7806 30.6041C41.3643 29.7501 41.7765 28.7355 41.9617 27.697C42.0476 27.2152 42.077 26.157 42.0185 25.6482C41.8635 24.2996 41.4021 23.1218 40.6014 22.0305C40.3694 21.7143 39.9449 21.2424 39.8839 21.233C39.8624 21.2296 39.6777 21.4026 39.4735 21.6174ZM19.9159 21.4373C17.8269 23.8105 17.4727 27.2623 19.038 29.9943C19.1817 30.2451 19.3864 30.566 19.493 30.7074C19.7389 31.0337 20.1943 31.5568 20.2247 31.5479C20.2375 31.5442 20.4255 31.3741 20.6426 31.17L21.0373 30.7989L20.7416 30.4607C19.2645 28.7711 18.8038 26.4628 19.5187 24.3335C19.7651 23.5998 20.1872 22.8533 20.6816 22.2769L20.9124 22.0078L20.5341 21.633C20.326 21.4269 20.1372 21.2582 20.1146 21.2582C20.092 21.2582 20.0026 21.3388 19.9159 21.4373ZM31.0802 21.6613C32.9846 22.1601 34.2513 23.8733 34.1634 25.8314C34.1171 26.8652 33.7468 27.7365 33.0369 28.4825C32.2349 29.3252 31.2322 29.7536 30.0616 29.7536C28.8677 29.7536 27.878 29.3241 27.0542 28.4485C25.1618 26.4372 25.7821 23.1311 28.2741 21.9471C28.9491 21.6264 29.4408 21.5238 30.1961 21.546C30.5759 21.5572 30.7881 21.5848 31.0802 21.6613ZM25.737 31.701C25.446 31.739 24.8338 31.8833 24.5869 31.972C23.9297 32.208 23.4105 32.5274 22.9166 32.9992C22.2223 33.6625 21.957 34.1354 21.4384 35.635C21.2373 36.2164 20.8968 37.2024 20.6817 37.8261C19.7633 40.4887 19.2046 42.1058 19.0432 42.568C18.9484 42.8398 18.8761 43.0663 18.8826 43.0713C18.9083 43.0908 19.9274 43.4369 19.9339 43.4283C19.9377 43.4233 19.9847 43.2895 20.0384 43.1309C20.092 42.9724 20.2917 42.3929 20.4819 41.8432C20.6722 41.2935 20.9952 40.3594 21.1996 39.7674C21.4041 39.1754 21.7363 38.2153 21.938 37.6339C22.1397 37.0525 22.423 36.228 22.5675 35.8016C22.8583 34.9435 22.9474 34.7462 23.2287 34.338C23.7825 33.5342 24.6629 33.0049 25.7081 32.8474C26.0195 32.8004 26.7595 32.7908 30.0808 32.7908C34.3031 32.7907 34.4129 32.7947 35.0204 32.9703C35.9334 33.2342 36.7384 33.8892 37.1491 34.7024C37.2311 34.8647 37.5797 35.8438 37.8849 36.769C37.9128 36.8536 38.0858 37.3552 38.2692 37.8838C38.4526 38.4123 38.695 39.1129 38.808 39.4406C38.9209 39.7683 39.0823 40.2354 39.1665 40.4785C39.7445 42.1469 40.0357 42.9887 40.1038 43.1886C40.1471 43.3154 40.1862 43.424 40.1908 43.4299C40.1982 43.4394 41.2125 43.094 41.2395 43.0728C41.2455 43.0681 41.1183 42.6857 40.9569 42.223C40.7954 41.7604 40.5801 41.1397 40.4785 40.8437C38.1061 33.9374 38.2015 34.1966 37.8397 33.679C37.58 33.3074 37.3754 33.0816 37.0577 32.8161C36.4379 32.2977 35.7901 31.9882 34.8858 31.7784C34.5467 31.6997 34.454 31.698 30.1961 31.692C27.807 31.6887 25.8004 31.6927 25.737 31.701ZM24.7751 38.2994C24.7664 38.3245 24.6105 38.8381 24.4285 39.4406C24.2466 40.0432 23.9245 41.1046 23.7128 41.7995C23.501 42.4942 23.3422 43.0753 23.36 43.0906C23.4068 43.1312 24.3737 43.4115 24.3946 43.3906C24.4043 43.3809 24.4795 43.1498 24.5616 42.8771C24.7 42.4179 25.4229 40.0365 25.7329 39.0188C25.8068 38.7763 25.8639 38.5758 25.8598 38.5733C25.8557 38.5708 25.7485 38.54 25.6217 38.5048C25.4948 38.4695 25.256 38.3986 25.091 38.3471C24.8749 38.2798 24.7866 38.2664 24.7751 38.2994ZM34.7897 38.4147C34.5043 38.5001 34.2665 38.5726 34.2613 38.5759C34.2561 38.5792 34.2768 38.6584 34.3074 38.7518C34.338 38.8452 34.5901 39.6742 34.8678 40.5938C35.5149 42.7376 35.7112 43.3733 35.7327 43.3948C35.7523 43.4144 36.7143 43.131 36.7613 43.0917C36.778 43.0778 36.6685 42.6615 36.5181 42.1665C36.3677 41.6715 36.0442 40.6006 35.7991 39.7866C35.5541 38.9726 35.3435 38.296 35.3311 38.283C35.3188 38.2701 35.0752 38.3293 34.7897 38.4147Z"/></svg>