<svg viewBox="0 0 60 60" fill="currentcolor" xmlns="http://www.w3.org/2000/svg"><path style="fill:green" fill-rule="evenodd" clip-rule="evenodd" d="M25.624 16.0685C25.2234 16.2172 24.9475 16.3859 24.6997 16.6337C24.4234 16.9099 23.2333 18.8563 23.2333 19.0319C23.2333 19.1864 23.4925 19.4291 23.6574 19.4291C23.733 19.4291 23.8357 19.3963 23.8856 19.3562C23.9356 19.316 24.2346 18.8497 24.5503 18.3198C25.4342 16.8358 25.4839 16.8043 26.9409 16.8043C28.0553 16.8043 28.2415 16.8508 28.6129 17.2223C28.8745 17.4839 29.5611 18.6454 29.519 18.7551C29.4682 18.8874 26.2042 24.3544 26.1306 24.4304C26.0814 24.4812 25.6074 24.2226 24.2259 23.3915C23.2144 22.7829 22.3554 22.2662 22.3171 22.2433C22.2684 22.2141 22.334 22.0532 22.5361 21.7063C22.8498 21.1676 22.8882 20.9644 22.7071 20.8005C22.5672 20.6739 22.2671 20.661 22.1557 20.7769C22.112 20.8224 21.8875 21.1809 21.6569 21.5736C21.291 22.1968 21.2443 22.3082 21.2898 22.4494C21.3329 22.583 21.7331 22.8474 23.5868 23.9664C24.8214 24.7119 25.9191 25.3644 26.0262 25.4166C26.411 25.6042 26.3849 25.6383 28.2801 22.4627C29.2374 20.8585 30.0371 19.5468 30.0572 19.5478C30.1213 19.5511 32.4119 23.4246 32.3612 23.4437C32.3344 23.4538 31.9972 23.6531 31.6118 23.8867C30.8584 24.3433 30.7196 24.498 30.8219 24.7669C30.8536 24.8505 30.9393 24.9447 31.0122 24.9762C31.0851 25.0077 32.4698 25.1517 34.0893 25.2964C36.6208 25.5224 37.0508 25.5481 37.1546 25.4793C37.292 25.3884 39.5816 20.0357 39.5816 19.8053C39.5816 19.634 39.3704 19.4291 39.1938 19.4291C39.1209 19.4291 38.7543 19.6146 38.3791 19.8412C38.0038 20.0679 37.6771 20.2321 37.6532 20.2062C37.6292 20.1802 37.1978 19.4364 36.6945 18.5533C35.6827 16.7783 35.4676 16.5034 34.8536 16.2002L34.4754 16.0135L30.1535 16.0025C26.6971 15.9936 25.79 16.0069 25.624 16.0685ZM34.4707 16.9175C34.6022 16.9812 34.8045 17.1323 34.9203 17.2532C35.036 17.3742 35.5979 18.2877 36.169 19.2832C36.7401 20.2787 37.249 21.1252 37.2997 21.1643C37.4456 21.2766 37.5927 21.2524 37.9334 21.0601C38.1078 20.9617 38.2574 20.8895 38.2657 20.8996C38.2793 20.9161 36.7265 24.6212 36.682 24.6784C36.666 24.699 33.6724 24.4453 32.8213 24.3512L32.5127 24.317L32.8978 24.0865C33.2383 23.8826 33.3926 23.7054 33.3926 23.5185C33.3926 23.466 29.6718 17.2453 29.4755 16.9695L29.356 16.8017H31.7938C34.1052 16.8017 34.244 16.8078 34.4707 16.9175ZM19.4955 26.3745C18.0017 26.5905 16.7229 26.7975 16.6539 26.8345C16.506 26.9136 16.4279 27.1998 16.5115 27.356C16.5438 27.4163 16.8871 27.6341 17.2744 27.8398C17.6617 28.0455 17.9785 28.2382 17.9785 28.268C17.9785 28.2978 17.5723 29.0528 17.0757 29.946C16.5792 30.8391 16.1294 31.7195 16.0762 31.9025C15.9481 32.3432 15.9853 33.0159 16.1595 33.4074C16.2296 33.565 17.1733 35.166 18.2567 36.9652C20.4374 40.5868 20.5682 40.7655 21.2863 41.1056L21.6861 41.295L23.029 41.3116C24.4909 41.3298 24.6113 41.3088 24.7072 41.0197C24.7433 40.9107 24.7355 40.8104 24.6819 40.6985L24.6041 40.5359L23.2327 40.5067C21.3579 40.4668 21.3237 40.4496 20.545 39.1568L20.1097 38.434V37.9368C20.1097 37.4453 20.1135 37.4323 20.4532 36.7691C20.642 36.4003 20.8228 36.0655 20.8548 36.0251C20.9006 35.9673 21.6296 35.9549 24.2772 35.9667L27.6415 35.9818L27.6568 38.2151L27.6721 40.4483H27.2414C26.8941 40.4483 26.7809 40.4718 26.6569 40.5694C26.4798 40.7086 26.4544 40.9369 26.5939 41.136C26.6801 41.2591 26.7249 41.2658 27.4654 41.2658C28.6025 41.2658 28.4951 41.5965 28.4752 38.1561L28.459 35.3583L28.3211 35.2467C28.1889 35.1397 28.0434 35.1352 24.7741 35.1352C22.8991 35.1352 21.365 35.1172 21.365 35.0953C21.365 35.0051 23.4301 31.1649 23.4786 31.1649C23.5076 31.1649 23.8541 31.3356 24.2486 31.5444C24.6432 31.7531 25.0349 31.9239 25.1191 31.9239C25.2963 31.9239 25.5104 31.7209 25.5104 31.5531C25.5104 31.4001 22.9568 26.1353 22.8371 26.0414C22.6902 25.9263 22.3808 25.9571 19.4955 26.3745ZM39.7419 26.2987C39.319 26.5385 39.163 26.6589 39.1361 26.7664C39.0871 26.9613 39.1957 27.1809 39.3831 27.2663C39.5188 27.3281 39.5831 27.3121 39.9366 27.1288L40.3364 26.9214L41.6899 29.342C42.4343 30.6734 43.0819 31.8943 43.129 32.0551C43.2654 32.5204 43.1676 32.8518 42.614 33.7985C42.355 34.2417 42.0527 34.6837 41.9422 34.7806C41.6341 35.0511 41.2317 35.1418 40.4261 35.1225L39.7372 35.106L38.0831 32.1282C37.1733 30.4905 36.4289 29.1355 36.4289 29.117C36.4288 29.0986 36.7346 28.9147 37.1083 28.7083C37.482 28.502 37.8258 28.2753 37.8722 28.2046C38.0208 27.978 37.8193 27.6033 37.5489 27.6033C37.3925 27.6033 35.7871 28.4678 35.5675 28.6702C35.4953 28.7369 35.4362 28.8487 35.4362 28.9187C35.4362 28.9887 36.185 30.3936 37.1002 32.0407C38.0154 33.6878 38.7642 35.0578 38.7642 35.0852C38.7642 35.1127 37.7427 35.1352 36.4942 35.1352H34.2242L34.1818 34.2156C34.1579 33.6972 34.1113 33.2615 34.0749 33.2169C33.9822 33.1031 33.7751 33.0358 33.6327 33.073C33.4536 33.1198 30.0451 37.9712 30.0451 38.1793C30.0451 38.2929 30.5019 38.9431 31.7275 40.5741C32.6529 41.8055 33.49 42.8984 33.5879 43.0028C33.803 43.2321 33.9876 43.2451 34.1879 43.0448C34.3338 42.8988 34.3353 42.8876 34.3166 42.0841L34.2976 41.271L36.3703 41.2538C38.3911 41.237 38.4516 41.2331 38.7836 41.0992C39.0018 41.0111 39.2483 40.8434 39.4697 40.6321C39.7742 40.3416 40.0178 39.9514 41.516 37.3539C43.9159 33.1931 43.879 33.2614 43.9603 32.8303C44.0384 32.4166 44.0001 31.9719 43.8547 31.6028C43.7397 31.3109 40.891 26.2101 40.7651 26.0706C40.6089 25.8976 40.3462 25.9561 39.7419 26.2987ZM23.2366 28.6319C23.7326 29.6473 24.1474 30.5021 24.1584 30.5314C24.1695 30.5608 24.0097 30.492 23.8033 30.3786C23.4076 30.1611 23.2012 30.1249 23.0429 30.2453C22.9581 30.3097 19.9053 35.9878 19.4991 36.8367L19.3414 37.1662L18.1414 35.1727C17.4814 34.0763 16.9091 33.0779 16.8696 32.9541C16.83 32.8302 16.8087 32.5774 16.822 32.3922C16.8443 32.0837 16.9358 31.8942 17.9088 30.1412C18.4931 29.0884 18.9711 28.1677 18.9711 28.0951C18.9711 27.8589 18.9057 27.7815 18.5431 27.5888C18.2885 27.4534 18.219 27.3938 18.3012 27.3812C18.3646 27.3715 19.2835 27.2364 20.3432 27.0811C21.4029 26.9257 22.2846 26.7957 22.3024 26.7922C22.3203 26.7887 22.7407 27.6166 23.2366 28.6319ZM33.5503 35.8346C33.7019 35.9538 33.7413 35.9549 37.5415 35.9392L41.3795 35.9234L41.3037 36.0693C40.9343 36.7803 39.1236 39.8198 38.9789 39.9718C38.8769 40.0789 38.6883 40.2234 38.5599 40.2929C38.3334 40.4154 38.2565 40.4197 36.0122 40.4363C33.3199 40.4561 33.5017 40.4106 33.451 41.0783L33.4218 41.4628L32.1862 39.8138L30.9505 38.1648L32.0047 36.6646C32.5844 35.8395 33.1273 35.0724 33.2111 34.96L33.3634 34.7556L33.3804 35.2349C33.3958 35.6727 33.4106 35.7246 33.5503 35.8346Z"/></svg>