<svg viewBox="0 0 60 60" fill="currentcolor" xmlns="http://www.w3.org/2000/svg"><path style="fill:green" fill-rule="evenodd" clip-rule="evenodd" d="M30 27.9067C32.7614 27.9067 35 25.6682 35 22.9067C35 20.1453 32.7614 17.9067 30 17.9067C27.2386 17.9067 25 20.1453 25 22.9067C25 25.6682 27.2386 27.9067 30 27.9067ZM30 28.9067C33.3137 28.9067 36 26.2204 36 22.9067C36 19.593 33.3137 16.9067 30 16.9067C26.6863 16.9067 24 19.593 24 22.9067C24 26.2204 26.6863 28.9067 30 28.9067Z"/><path fill-rule="evenodd" style="fill:green" clip-rule="evenodd" d="M22 41.9067C24.7614 41.9067 27 39.6682 27 36.9067C27 34.1453 24.7614 31.9067 22 31.9067C19.2386 31.9067 17 34.1453 17 36.9067C17 39.6682 19.2386 41.9067 22 41.9067ZM22 42.9067C25.3137 42.9067 28 40.2204 28 36.9067C28 33.593 25.3137 30.9067 22 30.9067C18.6863 30.9067 16 33.593 16 36.9067C16 40.2204 18.6863 42.9067 22 42.9067Z"/><path style="fill:green" fill-rule="evenodd" clip-rule="evenodd" d="M38 41.9067C40.7614 41.9067 43 39.6682 43 36.9067C43 34.1453 40.7614 31.9067 38 31.9067C35.2386 31.9067 33 34.1453 33 36.9067C33 39.6682 35.2386 41.9067 38 41.9067ZM38 42.9067C41.3137 42.9067 44 40.2204 44 36.9067C44 33.593 41.3137 30.9067 38 30.9067C34.6863 30.9067 32 33.593 32 36.9067C32 40.2204 34.6863 42.9067 38 42.9067Z"/></svg>