<svg viewBox="0 0 60 61" fill="currentcolor" xmlns="http://www.w3.org/2000/svg"><path style="fill:green" fill-rule="evenodd" clip-rule="evenodd" d="M27.199 13.5133C26.6647 13.5691 25.9581 13.7282 25.3586 13.9276C22.4691 14.8888 20.2364 17.2853 19.4812 20.2361C19.2712 21.0565 19.2195 21.493 19.2187 22.4536C19.2174 23.7394 19.3937 24.6888 19.8413 25.8083C20.6 27.7061 22.1021 29.4012 23.8708 30.3555C24.0532 30.454 24.2025 30.5401 24.2025 30.5469C24.2025 30.5538 24.0873 30.5972 23.9466 30.6434C22.3942 31.1534 20.8198 32.0344 19.5401 33.1091C18.9897 33.5713 18.066 34.5142 17.6314 35.0574C16.2314 36.8074 15.2946 38.8847 14.8963 41.1225C14.7119 42.1586 14.6363 43.4841 14.7467 43.7482C14.9886 44.3272 15.8121 44.373 16.0965 43.8232C16.1688 43.6836 16.1836 43.5741 16.2081 42.9988C16.2839 41.2126 16.6574 39.7417 17.4354 38.1658C18.1811 36.6552 19.1843 35.3664 20.4319 34.3164C22.2589 32.7787 24.3001 31.8793 26.7111 31.5497C26.8637 31.5288 27.4577 31.4955 28.031 31.4758C29.3737 31.4295 30.0542 31.3298 30.9068 31.0548C33.2244 30.3073 35.1248 28.7007 36.2204 26.5625C37.1466 24.7551 37.4329 22.6773 37.0312 20.6783C36.8934 19.9923 36.6023 19.1482 36.2773 18.4924C34.898 15.7084 32.2422 13.8514 29.1492 13.5083C28.7443 13.4633 27.6505 13.4662 27.199 13.5133ZM28.7891 14.9864C31.4397 15.215 33.7196 16.7521 34.9106 19.1135C35.3669 20.0181 35.622 20.9595 35.6825 21.9611C35.7702 23.4138 35.4943 24.7156 34.8326 25.9714C33.9644 27.6191 32.4562 28.9236 30.7088 29.5384C29.1033 30.1033 27.2985 30.1042 25.7027 29.541C23.3794 28.7209 21.5743 26.7632 20.946 24.3821C20.6241 23.1621 20.6182 21.8499 20.9289 20.6151C21.6213 17.8641 23.8893 15.6955 26.674 15.1218C27.4363 14.9647 28.0688 14.9243 28.7891 14.9864ZM36.7444 28.9685C36.6277 29.0425 36.5487 29.1303 36.497 29.2433C36.4553 29.3347 36.0824 30.4542 35.6684 31.7312L34.9157 34.0529L32.3736 34.0558C30.4999 34.0579 29.7986 34.0706 29.7062 34.1041C29.5375 34.1652 29.3332 34.3713 29.2793 34.5348C29.2135 34.7342 29.253 35.0124 29.3688 35.1642C29.4229 35.2351 30.3764 35.9537 31.4878 36.7613C32.5992 37.5687 33.5141 38.2448 33.521 38.2636C33.5279 38.2824 33.1824 39.3788 32.7534 40.7002C32.3243 42.0216 31.9736 43.1518 31.9741 43.2119C31.9746 43.2719 32.0065 43.3893 32.0451 43.4726C32.2105 43.8298 32.598 43.997 32.9346 43.8564C33.0033 43.8277 33.968 43.1441 35.0784 42.3374C36.2465 41.4887 37.1196 40.8791 37.15 40.8907C37.1789 40.9018 38.0772 41.5469 39.1461 42.3243C40.2151 43.1016 41.1651 43.7761 41.2572 43.8231C41.731 44.0648 42.2601 43.726 42.2527 43.1859C42.2516 43.106 41.9776 42.1996 41.6439 41.1718C41.3102 40.1439 40.9658 39.0812 40.8787 38.8102C40.7916 38.5391 40.7135 38.3056 40.7051 38.2911C40.6967 38.2766 41.6186 37.59 42.7537 36.7652C44.1212 35.7716 44.8436 35.2235 44.8947 35.1408C45.121 34.7745 44.9748 34.3041 44.5787 34.1242C44.435 34.0589 44.2676 34.0546 41.8788 34.0538L39.3322 34.0529L39.1054 33.3611C38.9806 32.9806 38.6711 32.0297 38.4175 31.2479C38.1638 30.466 37.9124 29.6918 37.8588 29.5273C37.7044 29.0536 37.4896 28.8598 37.1189 28.8598C36.9606 28.8598 36.8782 28.8837 36.7444 28.9685ZM37.6535 33.4726C37.9253 34.3105 38.1726 35.044 38.2031 35.1026C38.2741 35.239 38.4058 35.3612 38.55 35.4245C38.6363 35.4624 39.076 35.479 40.3687 35.4934L42.0736 35.5123L40.7065 36.5046C39.9547 37.0503 39.3078 37.545 39.2689 37.6038C39.2296 37.6637 39.1916 37.8035 39.183 37.9207C39.1691 38.1086 39.2213 38.2959 39.6832 39.7181C39.9668 40.5913 40.1945 41.3101 40.1892 41.3154C40.1839 41.3208 39.5825 40.89 38.853 40.3582C38.1235 39.8264 37.4717 39.3672 37.4046 39.3376C37.3375 39.3081 37.1987 39.284 37.0962 39.284C36.8707 39.284 36.908 39.2602 35.2711 40.4531C34.6144 40.9317 34.0714 41.3179 34.0644 41.3113C34.0575 41.3047 34.2854 40.5786 34.5709 39.6978C35.1388 37.9459 35.1524 37.8742 34.9693 37.607C34.9198 37.5349 34.3097 37.065 33.5277 36.4971L32.1719 35.5123L33.8826 35.4934C35.5608 35.4748 35.5963 35.4728 35.7512 35.39C35.8381 35.3436 35.9431 35.2579 35.9846 35.1996C36.0261 35.1413 36.1994 34.6675 36.3698 34.1468C36.54 33.6261 36.7757 32.9061 36.8934 32.5469C37.0111 32.1878 37.1191 31.9063 37.1333 31.9215C37.1476 31.9367 37.3817 32.6347 37.6535 33.4726Z"/></svg>