<svg viewBox="0 0 60 61" fill="currentcolor" xmlns="http://www.w3.org/2000/svg"><path style="fill:green" fill-rule="evenodd" clip-rule="evenodd" d="M29.9568 15.0438C29.9475 15.0681 29.3744 16.0139 28.6832 17.1457L27.4266 19.2034L28.2183 19.2122L29.01 19.221L29.0185 20.9761L29.0271 22.7313L30.0079 22.74L30.9888 22.7487V20.9843V19.2198H31.7801C32.2154 19.2198 32.5714 19.2125 32.5714 19.2035C32.5714 19.1946 32.4268 18.9515 32.25 18.6634C32.0732 18.3753 31.4982 17.4333 30.9723 16.57C30.4465 15.7067 30.0067 15.0003 29.995 15C29.9833 14.9997 29.9661 15.0194 29.9568 15.0438ZM19.3947 19.4391C19.4046 19.4727 19.667 20.5535 19.9776 21.841C20.2883 23.1286 20.5457 24.1852 20.5495 24.189C20.5534 24.1929 20.808 23.9444 21.1153 23.6367L21.674 23.0773L22.9189 24.3219L24.1639 25.5665L24.8644 24.866L25.5648 24.1656L24.3202 22.9206L23.0756 21.6757L23.635 21.117C23.9427 20.8097 24.1912 20.5551 24.1874 20.5512C24.1807 20.5446 21.4137 19.8725 20.1084 19.5605C19.7729 19.4803 19.471 19.4065 19.4374 19.3964C19.39 19.3822 19.3805 19.3917 19.3947 19.4391ZM40.1878 19.487C39.9792 19.5398 38.9203 19.7973 37.8345 20.0594C36.7488 20.3214 35.8519 20.5444 35.8413 20.5549C35.8308 20.5654 36.0736 20.8258 36.3809 21.1334L36.9396 21.6929L35.6951 22.9377L34.4507 24.1825L35.1432 24.8744L35.8357 25.5663L37.0806 24.3218L38.3254 23.0773L38.8857 23.6383C39.3413 24.0946 39.4504 24.1886 39.4697 24.1412C39.4921 24.0865 40.6164 19.4401 40.6164 19.4023C40.6164 19.3784 40.6175 19.3782 40.1878 19.487ZM17.1015 28.7073C15.9464 29.41 15.0007 29.9923 15 30.0014C14.9993 30.0105 15.4548 30.2955 16.0121 30.6347C16.5695 30.974 17.5124 31.5489 18.1073 31.9124C18.7023 32.2758 19.1956 32.5731 19.2036 32.5731C19.2116 32.5731 19.2182 32.217 19.2182 31.7818V30.9905H20.9826H22.7471L22.7383 30.0096L22.7296 29.0287L20.9745 29.0202L19.2193 29.0117L19.2105 28.2207L19.2017 27.4298L17.1015 28.7073ZM40.7812 28.2182V29.0123H39.0338H37.2863V30.0014V30.9905H39.0338H40.7812V31.7818C40.7812 32.217 40.7897 32.5731 40.8 32.5731C40.8104 32.5731 41.3927 32.2223 42.0942 31.7936C42.7956 31.3648 43.7365 30.7899 44.1852 30.516C44.6338 30.242 45.0004 30.0105 45 30.0014C44.9993 29.9866 40.8757 27.4617 40.8089 27.4351C40.7937 27.4291 40.7812 27.7815 40.7812 28.2182ZM22.9357 35.6969L21.6913 36.9414L21.1318 36.3826C20.8241 36.0753 20.5633 35.8329 20.5523 35.844C20.5293 35.8669 19.3835 40.5966 19.3976 40.6106C19.4026 40.6157 20.0876 40.4553 20.9198 40.2542C21.752 40.0531 22.8038 39.8002 23.2571 39.6921C23.7105 39.5841 24.1076 39.4849 24.1396 39.4716C24.1869 39.4521 24.0937 39.3437 23.6366 38.8874L23.0756 38.3271L24.3202 37.0822L25.5648 35.8372L24.8725 35.1449L24.1801 34.4525L22.9357 35.6969ZM35.1353 35.1586L34.4515 35.8547L35.6874 37.0904L36.9234 38.3261L36.3728 38.8774C36.07 39.1806 35.8328 39.4394 35.8458 39.4524C35.8742 39.4807 40.5881 40.6243 40.6054 40.6071C40.612 40.6004 40.3652 39.5505 40.0567 38.2738C39.7483 36.9972 39.4875 35.9167 39.4771 35.8727C39.4599 35.7996 39.4088 35.842 38.8913 36.3589L38.3244 36.9251L37.0884 35.6888C36.4086 35.0088 35.8449 34.4547 35.8357 34.4575C35.8266 34.4603 35.5114 34.7758 35.1353 35.1586ZM29.0106 39.0355V40.7829H28.2193C27.784 40.7829 27.428 40.7886 27.428 40.7956C27.428 40.8026 27.9565 41.6742 28.6025 42.7326C29.2484 43.791 29.8233 44.7345 29.8801 44.8292C29.9368 44.9239 29.9912 45.0018 30.0009 45.0023C30.0106 45.0028 30.2467 44.6286 30.5255 44.1707C30.8043 43.7128 31.1689 43.1156 31.3356 42.8436C32.1883 41.4529 32.5714 40.8201 32.5714 40.8025C32.5714 40.7917 32.2154 40.7829 31.7801 40.7829H30.9888V39.0355V37.288H29.9997H29.0106V39.0355Z"/></svg>