<svg viewBox="0 0 60 60" fill="currentcolor" xmlns="http://www.w3.org/2000/svg"><path style="fill:green" fill-rule="evenodd" clip-rule="evenodd" d="M24.6714 13.683C21.5908 14.0483 19.3627 15.0817 17.3791 17.0652C15.5946 18.8497 14.4913 21.0402 14.0798 23.6155C13.973 24.2838 13.9735 26.2439 14.0808 26.9067C14.5014 29.5072 15.5743 31.6444 17.3597 33.4389C18.3724 34.4567 19.3245 35.1307 20.6136 35.7425C24.2411 37.4639 28.4684 37.1958 31.8474 35.0299L32.3054 34.7363L33.0337 35.4626L33.762 36.1888L33.4819 36.509C33.1643 36.8721 33.1001 37.0823 33.2214 37.3612C33.2676 37.4677 35.247 39.4882 37.62 41.8511C41.8129 46.0265 41.9475 46.1534 42.4029 46.3578C43.3629 46.7887 44.2875 46.7715 45.2287 46.3051C46.7726 45.54 47.3991 43.7096 46.6717 42.0891C46.467 41.6333 46.343 41.5019 42.1339 37.2806C39.1978 34.3361 37.7417 32.9194 37.6049 32.8742C37.3461 32.7888 37.1745 32.8555 36.7987 33.1875L36.5031 33.4486L35.7766 32.7201L35.0501 31.9915L35.3438 31.5335C37.5086 28.156 37.7788 23.892 36.0558 20.295C35.4326 18.9939 34.7674 18.0555 33.7527 17.0459C31.9711 15.2733 29.8052 14.1829 27.2528 13.7738C26.7998 13.7012 25.0401 13.6393 24.6714 13.683ZM26.6168 15.0029C28.9871 15.2416 31.1433 16.2659 32.8521 17.9648C37.6359 22.7213 36.6255 30.7023 30.8022 34.1563C26.348 36.7982 20.529 35.6537 17.3753 31.5153C14.5621 27.8239 14.5622 22.6977 17.3753 19.0068C19.5428 16.1631 23.0497 14.6437 26.6168 15.0029ZM24.3357 16.325C20.1776 16.892 17.0001 20.2392 16.5978 24.476C16.3104 27.5029 17.652 30.5547 20.0895 32.4193C24.803 36.0249 31.6148 34.2007 33.9038 28.7199C34.8175 26.5323 34.8161 23.9864 33.9 21.7929C32.3192 18.0079 28.4049 15.77 24.3357 16.325ZM27.0915 17.6772C29.3957 18.1581 31.3169 19.5953 32.4033 21.6508C33.0356 22.8472 33.2844 23.8664 33.2844 25.2611C33.2844 26.6416 33.0387 27.6596 32.4182 28.8504C30.4868 32.557 25.9492 34.0439 22.1869 32.203C19.9964 31.1313 18.4999 29.1877 17.983 26.7432C17.844 26.0862 17.8278 24.5438 17.9532 23.9059C18.7043 20.0822 21.9616 17.4312 25.7685 17.5452C26.2122 17.5585 26.8075 17.6178 27.0915 17.6772ZM24.5119 18.9039C22.8268 19.1974 21.3153 20.1457 20.3284 21.5287C19.984 22.0113 19.5176 22.9619 19.4644 23.2896C19.3954 23.7154 19.7905 24.0967 20.2062 24.0054C20.4648 23.9486 20.6286 23.7542 20.822 23.275C21.168 22.4171 21.9162 21.5169 22.7402 20.9673C23.4665 20.4828 24.293 20.1983 25.1792 20.1276C25.7979 20.0782 26.0081 19.9988 26.1265 19.7698C26.2676 19.4969 26.2405 19.284 26.0352 19.0543C25.8678 18.867 25.8107 18.8455 25.4382 18.8308C25.2117 18.8217 24.7948 18.8547 24.5119 18.9039ZM19.3747 25.5143C18.9682 25.9207 19.2464 26.5733 19.826 26.5733C20.2782 26.5733 20.5753 26.1014 20.381 25.692C20.1888 25.287 19.69 25.1989 19.3747 25.5143ZM35.1419 34.8273L34.6748 35.2944L33.9971 34.619L33.3194 33.9436L33.786 33.4738L34.2528 33.004L34.9309 33.6821L35.6091 34.3602L35.1419 34.8273ZM38.3695 35.313L39.2559 36.201L37.884 37.5718L36.512 38.9427L35.61 38.0389L34.7079 37.1351L36.0618 35.78C36.8065 35.0347 37.4309 34.4249 37.4495 34.4249C37.468 34.4249 37.882 34.8245 38.3695 35.313ZM45.5274 42.653C45.7283 43.0934 45.7328 43.8167 45.5373 44.2437C45.2218 44.9329 44.5643 45.3572 43.8058 45.3612C42.9387 45.3656 43.0139 45.4233 40.078 42.5003L37.4473 39.8811L38.8196 38.5073L40.1919 37.1334L42.7861 39.7319C44.8542 41.8035 45.41 42.3958 45.5274 42.653Z"/></svg>