<svg viewBox="0 0 60 60" fill="currentcolor" xmlns="http://www.w3.org/2000/svg"><path fill-rule="evenodd" clip-rule="evenodd" d="M29.9568 14.7122C29.9475 14.7365 29.3744 15.6824 28.6832 16.8141L27.4266 18.8718L28.2183 18.8806L29.01 18.8895L29.0185 20.6446L29.0271 22.3997L30.0079 22.4085L30.9888 22.4172V20.6527V18.8883H31.7801C32.2154 18.8883 32.5714 18.8809 32.5714 18.872C32.5714 18.863 32.4268 18.6199 32.25 18.3318C32.0732 18.0437 31.4982 17.1017 30.9723 16.2385C30.4465 15.3752 30.0067 14.6687 29.995 14.6685C29.9833 14.6682 29.9661 14.6879 29.9568 14.7122ZM19.3947 19.1076C19.4046 19.1411 19.667 20.222 19.9776 21.5095C20.2883 22.797 20.5457 23.8536 20.5495 23.8575C20.5534 23.8614 20.808 23.6128 21.1153 23.3051L21.674 22.7457L22.9189 23.9903L24.1639 25.235L24.8644 24.5345L25.5648 23.834L24.3202 22.5891L23.0756 21.3441L23.635 20.7854C23.9427 20.4782 24.1912 20.2236 24.1874 20.2197C24.1807 20.213 21.4137 19.5409 20.1084 19.2289C19.7729 19.1487 19.471 19.0749 19.4374 19.0649C19.39 19.0507 19.3805 19.0602 19.3947 19.1076ZM40.1878 19.1554C39.9792 19.2082 38.9203 19.4658 37.8345 19.7278C36.7488 19.9899 35.8519 20.2128 35.8413 20.2234C35.8308 20.2339 36.0736 20.4942 36.3809 20.8019L36.9396 21.3613L35.6951 22.6061L34.4507 23.8509L35.1432 24.5428L35.8357 25.2348L37.0806 23.9902L38.3254 22.7457L38.8857 23.3068C39.3413 23.7631 39.4504 23.857 39.4697 23.8097C39.4921 23.755 40.6164 19.1085 40.6164 19.0708C40.6164 19.0469 40.6175 19.0466 40.1878 19.1554ZM17.1015 28.3758C15.9464 29.0784 15.0007 29.6608 15 29.6698C14.9993 29.6789 15.4548 29.9639 16.0121 30.3032C16.5695 30.6425 17.5124 31.2174 18.1073 31.5808C18.7023 31.9442 19.1956 32.2416 19.2036 32.2416C19.2116 32.2416 19.2182 31.8855 19.2182 31.4503V30.659H20.9826H22.7471L22.7383 29.6781L22.7296 28.6972L20.9745 28.6887L19.2193 28.6801L19.2105 27.8892L19.2017 27.0982L17.1015 28.3758ZM40.7812 27.8867V28.6807H39.0338H37.2863V29.6698V30.659H39.0338H40.7812V31.4503C40.7812 31.8855 40.7897 32.2416 40.8 32.2416C40.8104 32.2416 41.3927 31.8908 42.0942 31.4621C42.7956 31.0333 43.7365 30.4583 44.1852 30.1844C44.6338 29.9105 45.0004 29.6789 45 29.6698C44.9993 29.655 40.8757 27.1301 40.8089 27.1036C40.7937 27.0975 40.7812 27.4499 40.7812 27.8867ZM22.9357 35.3654L21.6913 36.6098L21.1318 36.0511C20.8241 35.7438 20.5633 35.5014 20.5523 35.5124C20.5293 35.5354 19.3835 40.265 19.3976 40.2791C19.4026 40.2842 20.0876 40.1238 20.9198 39.9227C21.752 39.7216 22.8038 39.4686 23.2571 39.3606C23.7105 39.2525 24.1076 39.1533 24.1396 39.1401C24.1869 39.1205 24.0937 39.0122 23.6366 38.5558L23.0756 37.9956L24.3202 36.7506L25.5648 35.5057L24.8725 34.8133L24.1801 34.121L22.9357 35.3654ZM35.1353 34.8271L34.4515 35.5232L35.6874 36.7589L36.9234 37.9945L36.3728 38.5459C36.07 38.8491 35.8328 39.1078 35.8458 39.1208C35.8742 39.1492 40.5881 40.2928 40.6054 40.2755C40.612 40.2689 40.3652 39.219 40.0567 37.9423C39.7483 36.6656 39.4875 35.5851 39.4771 35.5411C39.4599 35.4681 39.4088 35.5105 38.8913 36.0274L38.3244 36.5936L37.0884 35.3573C36.4086 34.6773 35.8449 34.1232 35.8357 34.126C35.8266 34.1287 35.5114 34.4442 35.1353 34.8271ZM29.0106 38.7039V40.4514H28.2193C27.784 40.4514 27.428 40.4571 27.428 40.464C27.428 40.471 27.9565 41.3427 28.6025 42.4011C29.2484 43.4595 29.8233 44.403 29.8801 44.4977C29.9368 44.5924 29.9912 44.6702 30.0009 44.6708C30.0106 44.6713 30.2467 44.2971 30.5255 43.8392C30.8043 43.3813 31.1689 42.7841 31.3356 42.5121C32.1883 41.1214 32.5714 40.4885 32.5714 40.4709C32.5714 40.4602 32.2154 40.4514 31.7801 40.4514H30.9888V38.7039V36.9565H29.9997H29.0106V38.7039Z"/></svg>