<svg viewBox="0 0 60 60" fill="currentcolor" xmlns="http://www.w3.org/2000/svg"><path fill-rule="evenodd" clip-rule="evenodd" d="M33.0632 13.7044C32.9387 13.7184 32.4857 13.8002 32.0566 13.886C30.6057 14.1763 29.2071 14.7579 27.928 15.6026C27.013 16.2069 26.8455 16.5372 27.2336 16.9716C27.5376 17.3119 27.7835 17.2693 28.5529 16.7429C29.6482 15.9937 30.9414 15.4423 32.3348 15.1303C32.8817 15.0079 33.1609 14.9889 34.4219 14.9889C35.6829 14.9889 35.9621 15.0079 36.5091 15.1303C37.9516 15.4533 39.3822 16.079 40.5023 16.877C41.2884 17.437 42.3567 18.5059 42.9125 19.2886C43.7409 20.4551 44.397 22.0204 44.6882 23.525C44.8627 24.4268 44.8468 26.276 44.6561 27.231C43.9114 30.9631 41.3025 33.9446 37.7384 35.1368C36.5033 35.55 36.0253 35.6196 34.4219 35.6196C33.1609 35.6196 32.8817 35.6006 32.3348 35.4782C29.5782 34.8611 27.3274 33.3506 25.8076 31.098C23.9621 28.3628 23.5309 25.0008 24.6208 21.8445C24.8365 21.2198 24.8462 21.159 24.7623 20.9583C24.6477 20.6841 24.524 20.583 24.2536 20.5426C23.8702 20.4852 23.6635 20.6804 23.4329 21.3177C22.1693 24.8099 22.6442 28.7099 24.7067 31.7791C26.5897 34.5811 29.4363 36.3662 32.8044 36.8573C33.8916 37.0158 35.7171 36.9581 36.788 36.7312C41.5671 35.7191 45.0959 32.0629 45.9769 27.2103C46.1419 26.3019 46.142 24.365 45.9771 23.4279C45.0773 18.3131 41.1566 14.4837 36.0718 13.7535C35.4782 13.6682 33.6493 13.6384 33.0632 13.7044ZM25.3063 18.0834C24.9585 18.2762 24.8818 18.7127 25.1413 19.0211C25.3555 19.2756 25.6728 19.3413 25.9361 19.1857C26.2608 18.994 26.3509 18.6613 26.172 18.3153C26.0074 17.9971 25.6398 17.8986 25.3063 18.0834ZM29.9592 18.7438C29.0063 18.9999 28.1445 19.8693 27.8881 20.8335C27.7684 21.2832 27.7955 22.0436 27.9484 22.5221L28.0827 22.9427L27.9075 23.0721C27.2714 23.5419 26.8936 24.0276 26.6454 24.6948C26.5133 25.0496 26.5026 25.1934 26.4995 26.6448C26.4962 28.1909 26.4981 28.2138 26.6434 28.3594C26.7872 28.5035 26.8296 28.5077 28.455 28.5393L30.1194 28.5716L30.1517 29.6392C30.1695 30.2263 30.2094 30.7461 30.2405 30.7942C30.406 31.0507 30.5902 31.0626 34.4219 31.0626C38.5406 31.0626 38.486 31.0679 38.6621 30.6464C38.7305 30.4827 38.7568 30.1586 38.7568 29.4795V28.5393H40.3793H42.0018L42.1909 28.3501L42.3801 28.161V26.7462C42.3801 25.1771 42.3283 24.8454 41.9822 24.196C41.7998 23.8539 41.2661 23.2776 40.9105 23.0388L40.7672 22.9427L40.905 22.5545C41.1019 21.9996 41.0965 21.144 40.8927 20.6135C40.7036 20.1215 40.4752 19.7871 40.068 19.4064C38.7436 18.168 36.5876 18.4578 35.5851 20.0089C35.4547 20.2107 35.3002 20.5458 35.2419 20.7535L35.136 21.1311L34.4274 21.1335L33.7187 21.136L33.6468 20.8507C33.4074 19.9 32.6013 19.0638 31.6339 18.7627C31.1627 18.6161 30.4641 18.6082 29.9592 18.7438ZM31.4134 20.0549C32.0252 20.3338 32.42 20.9007 32.4345 21.5211C32.4417 21.8289 32.4191 21.8887 32.2052 22.1254C32.0747 22.2699 31.8925 22.5368 31.8003 22.7187C31.6214 23.0717 31.4334 23.1929 30.9426 23.2714C30.3262 23.37 29.5065 22.8941 29.2325 22.2787C28.9641 21.6757 29.1439 20.7977 29.6219 20.378C30.1246 19.9367 30.8621 19.8036 31.4134 20.0549ZM38.7928 20.0877C39.2116 20.2827 39.574 20.7052 39.703 21.149C40.0635 22.3891 38.8763 23.5681 37.6314 23.2063C37.2984 23.1094 37.2627 23.0789 37.0771 22.7316C36.968 22.5274 36.7773 22.2532 36.6532 22.1221C36.4523 21.9098 36.4276 21.8452 36.4276 21.531C36.4276 20.3721 37.7156 19.5861 38.7928 20.0877ZM34.9316 22.4934C35.7988 22.7509 36.296 23.7106 36.0272 24.6078C35.9171 24.9754 35.4634 25.4519 35.057 25.6267C34.7869 25.7429 34.6378 25.7662 34.3253 25.7412C32.8555 25.6232 32.2231 23.9384 33.2595 22.902C33.7289 22.4327 34.2764 22.2989 34.9316 22.4934ZM29.8001 24.4109C30.1027 24.5216 30.3247 24.551 30.8472 24.5497C31.3663 24.5484 31.5104 24.5672 31.5104 24.6366C31.5104 24.6853 31.5665 24.8847 31.635 25.0796L31.7596 25.434L31.4803 25.6263C31.0862 25.8974 30.7012 26.356 30.4654 26.8349L30.2633 27.2453H29.0106H27.7578V26.3821C27.7578 25.1156 27.9478 24.6225 28.6069 24.1787L28.9392 23.9549L29.1777 24.1127C29.3089 24.1994 29.589 24.3337 29.8001 24.4109ZM40.4248 24.3158C40.5771 24.4389 40.7804 24.6898 40.8766 24.8734C41.0413 25.1877 41.053 25.2669 41.0745 26.2262L41.0974 27.2453H39.8436H38.5897L38.4133 26.861C38.2207 26.4416 37.7451 25.8807 37.3492 25.6063L37.0977 25.432L37.2444 24.9961L37.3911 24.5602L37.9931 24.5573C38.6806 24.5541 39.1614 24.4324 39.598 24.1513C39.9275 23.9391 39.9688 23.9473 40.4248 24.3158ZM32.951 26.6598C33.8658 27.1754 34.9646 27.1721 35.9128 26.6509L36.2792 26.4495L36.5779 26.6551C37.2546 27.1206 37.4139 27.5242 37.4234 28.7981L37.4305 29.7362L34.4381 29.753L31.4457 29.7699L31.4461 28.8472C31.4465 27.8237 31.488 27.6021 31.7593 27.1743C31.9044 26.9455 32.4657 26.4689 32.5901 26.4689C32.6023 26.4689 32.7647 26.5548 32.951 26.6598ZM21.773 36.2839C20.8403 36.3686 19.3291 36.7773 18.4469 37.1835C18.1833 37.3049 17.9638 37.3967 17.9593 37.3875C17.821 37.1093 17.527 36.8012 17.2575 36.6518L16.9205 36.465H15.5295C13.9961 36.465 13.8612 36.4934 13.4526 36.902C13.0194 37.3353 13.0404 37.1302 13.0203 41.1185L13.002 44.7368L13.1708 45.0819C13.5204 45.7964 13.9233 45.9436 15.5295 45.9436C17.1384 45.9436 17.5383 45.7969 17.8904 45.0772C18.0578 44.7352 18.0664 44.7284 18.2675 44.782C18.3807 44.8121 20.2785 45.2489 22.4847 45.7526L26.4962 46.6685L27.1755 46.6372C27.6213 46.6167 28.0105 46.5567 28.3078 46.4625C28.9799 46.2497 37.349 42.8059 37.6392 42.6228C38.0452 42.3665 38.5387 41.7791 38.6634 41.4039C38.8359 40.8844 38.8023 40.3711 38.5642 39.8872C38.336 39.4237 38.0987 39.1986 37.5928 38.9661C36.9513 38.6713 36.6546 38.7125 33.5248 39.5322C32.0172 39.927 30.7613 40.25 30.7338 40.25C30.7062 40.25 30.6644 40.1409 30.6408 40.0074C30.5655 39.5824 30.2898 39.1062 29.9312 38.782C29.5716 38.4567 27.3579 37.2521 26.5184 36.9249C25.1463 36.3899 23.3205 36.1433 21.773 36.2839ZM24.5898 37.7194C25.5538 37.9134 26.1442 38.1393 27.4343 38.8078C29.243 39.7449 29.3074 39.7972 29.3564 40.3669C29.4029 40.9074 28.9792 41.3492 28.414 41.3496C28.1754 41.3498 27.8593 41.2056 26.3591 40.4118C24.388 39.3688 24.2669 39.3313 23.9355 39.6627C23.6811 39.9171 23.6768 40.2385 23.9243 40.5024C24.1123 40.7028 27.2219 42.3726 27.7257 42.5436C28.1456 42.6862 28.7782 42.6719 29.2109 42.5099C29.4248 42.4299 29.7121 42.2452 29.9244 42.0511L30.2799 41.7263L33.3376 40.92C35.0838 40.4596 36.5432 40.1083 36.7401 40.1011C37.055 40.0894 37.1012 40.1065 37.2739 40.2996C37.5359 40.5925 37.5322 40.9128 37.2629 41.2395C37.153 41.3729 36.9855 41.522 36.8909 41.5709C36.4284 41.8095 28.1262 45.1712 27.7808 45.2595C27.0324 45.4511 26.8512 45.4221 22.3553 44.3908C20.0284 43.857 18.108 43.4203 18.0878 43.4203C18.0677 43.4203 18.0588 42.3821 18.0681 41.1131L18.0851 38.8059L18.6351 38.5254C19.5104 38.0789 20.7396 37.717 21.8701 37.573C22.3585 37.5107 23.989 37.5985 24.5898 37.7194ZM16.6336 37.7937C16.7548 37.8586 16.7588 37.9645 16.7588 41.1775C16.7588 43.671 16.7395 44.5136 16.6811 44.572C16.627 44.6261 16.2786 44.6496 15.5295 44.6496C14.7804 44.6496 14.432 44.6261 14.3778 44.572C14.3194 44.5136 14.3002 43.6712 14.3002 41.1784C14.3002 38.0887 14.3079 37.858 14.4134 37.7966C14.5634 37.7092 16.4712 37.7067 16.6336 37.7937Z"/></svg>