<svg viewBox="0 0 60 60" fill="currentcolor" xmlns="http://www.w3.org/2000/svg"><path d="M43.6363 21.4511C43.4824 21.3622 43.3077 21.3154 43.13 21.3154C42.9522 21.3154 42.7776 21.3622 42.6236 21.4511L33.9857 25.7346V22.3118C33.9851 22.1392 33.9405 21.9696 33.856 21.8191C33.7715 21.6686 33.6499 21.5421 33.5027 21.4518C33.3556 21.3615 33.1879 21.3103 33.0154 21.3031C32.8429 21.2959 32.6715 21.3329 32.5173 21.4106L23.8591 25.7346V18.2612C23.8591 17.9926 23.7524 17.735 23.5625 17.5451C23.3726 17.3552 23.115 17.2485 22.8464 17.2485H16.7705C16.5019 17.2485 16.2443 17.3552 16.0544 17.5451C15.8645 17.735 15.7578 17.9926 15.7578 18.2612V43.5776H44.1122V22.3118C44.1126 22.1397 44.0691 21.9704 43.9858 21.8198C43.9025 21.6692 43.7822 21.5423 43.6363 21.4511V21.4511ZM36.011 41.5523H31.9603V34.4637H36.011V41.5523ZM42.0869 41.5523H38.0363V33.4511C38.0363 33.1825 37.9296 32.9249 37.7397 32.735C37.5498 32.5451 37.2922 32.4384 37.0236 32.4384H30.9477C30.6791 32.4384 30.4215 32.5451 30.2316 32.735C30.0417 32.9249 29.935 33.1825 29.935 33.4511V41.5523H17.7831V19.2739H21.8338V29.0156L31.9603 23.9523V29.0156L42.0869 23.9523V41.5523Z"/></svg>