<svg viewBox="0 0 60 60" fill="currentcolor" xmlns="http://www.w3.org/2000/svg"><path fill-rule="evenodd" clip-rule="evenodd" d="M25.4295 15.916C23.9526 16.1951 22.6522 17.0548 21.8264 18.2983C21.2806 19.1201 21.0292 19.8467 20.9019 20.9693L20.8281 21.6204L20.4848 21.7371C19.6422 22.0235 18.9285 22.5286 18.7003 23.0002C18.3082 23.8102 18.733 24.5965 19.8444 25.1179C20.5464 25.4472 21.8474 25.7391 22.6133 25.7391C22.875 25.7391 22.9981 25.7875 23.3704 26.0373C23.9035 26.3949 24.3818 26.6132 25.0578 26.807C25.7269 26.9989 27.1751 27.0113 27.8277 26.8307C29.5996 26.3406 31.0213 25.0907 31.6467 23.4733C31.9707 22.6352 32.0496 22.1439 32.0161 21.1724C31.9904 20.4286 31.9588 20.2354 31.7718 19.6779C31.5227 18.9358 31.0852 18.1917 30.5535 17.606C29.3113 16.2375 27.2778 15.5667 25.4295 15.916ZM38.1739 16.6356C37.9698 16.8396 37.9715 16.8801 38.2058 17.3754C39.2697 19.6242 39.3327 22.4271 38.368 24.5769C38.0766 25.2261 38.0222 25.5423 38.1756 25.6956C38.2879 25.8078 38.5799 25.84 38.7104 25.7545C38.9615 25.5899 39.5772 23.9306 39.7646 22.9136C39.9209 22.0655 39.9225 20.2874 39.7677 19.4493C39.5636 18.3434 38.9786 16.7774 38.6871 16.5564C38.5221 16.4312 38.3519 16.4575 38.1739 16.6356ZM27.4199 16.7758C28.6752 17.0346 29.7971 17.8227 30.4841 18.9285C31.3205 20.2745 31.4125 22.0639 30.7183 23.4815C29.9403 25.0701 28.2203 26.1346 26.4343 26.1328C25.9435 26.1324 24.9984 25.9414 24.6916 25.7806C24.5247 25.6933 24.532 25.6887 24.9566 25.6147C25.1967 25.5729 25.643 25.4663 25.9485 25.3777C26.4071 25.2449 26.54 25.2294 26.7111 25.289C27.2174 25.4656 27.9103 25.1634 28.1541 24.6597C28.5597 23.8217 27.9796 22.9136 27.0387 22.9136C26.6609 22.9136 26.428 23.0142 26.1768 23.2856C25.9164 23.567 25.8566 23.7239 25.8566 24.1265C25.8566 24.4667 25.8433 24.499 25.6761 24.5625C25.2719 24.7162 24.6673 24.8228 23.9769 24.8623L23.247 24.904L22.8721 24.4509C22.4429 23.932 22.0315 23.1404 21.8684 22.5194C21.7166 21.9414 21.7185 20.7853 21.8721 20.2525C22.1202 19.3922 22.4718 18.7527 23.0179 18.1683C24.1273 16.9813 25.8198 16.446 27.4199 16.7758ZM35.8242 17.0729C35.5632 17.2247 35.5734 17.4114 35.8796 18.0943C36.7636 20.0657 36.7747 22.2153 35.9111 24.1845C35.7659 24.5156 35.6471 24.8484 35.6471 24.9241C35.6471 25.2351 36.1127 25.3954 36.3441 25.1641C36.6211 24.8874 37.1007 23.5846 37.2971 22.5757C37.4238 21.9246 37.4073 20.2935 37.2673 19.6282C37.0102 18.407 36.4979 17.1768 36.1991 17.0632C35.9955 16.9857 35.973 16.9863 35.8242 17.0729ZM21.1255 22.9935C21.2857 23.521 21.5678 24.1134 21.8653 24.5472L22.0619 24.8337L21.7088 24.7866C20.8638 24.6737 19.791 24.2129 19.5015 23.8385C19.3505 23.6432 19.406 23.4112 19.6637 23.161C19.9102 22.9218 20.6682 22.5195 20.8729 22.5194C20.9505 22.5194 21.0225 22.6544 21.1255 22.9935ZM27.3304 23.8711C27.5451 24.0858 27.3596 24.4906 27.0463 24.4906C26.7824 24.4906 26.601 24.0354 26.7897 23.8467C26.9013 23.735 27.2082 23.7489 27.3304 23.8711ZM31.3906 26.506C31.3444 26.5246 31.0908 26.7514 30.827 27.01C30.5524 27.2793 30.1109 27.6185 29.794 27.8037C29.4896 27.9815 29.1737 28.1673 29.0919 28.2164C28.9942 28.2751 28.5583 29.0753 27.8222 30.547L26.7013 32.7881L26.4899 32.434C26.3736 32.2392 25.8271 31.2958 25.2756 30.3375L24.2729 28.5952L23.8394 28.3705C23.241 28.0602 22.7455 27.6748 22.1937 27.0902C21.9357 26.8169 21.6779 26.5933 21.6208 26.5933C21.452 26.5933 20.5398 27.0771 19.8936 27.5093C17.6314 29.0225 16.3551 31.2982 16.0674 34.3318C15.9635 35.4283 15.9787 35.948 16.12 36.1225L16.2395 36.2701L22.97 36.1951C26.6718 36.1537 29.9444 36.1052 30.2426 36.0872C30.5408 36.0692 30.7847 36.0723 30.7847 36.0943C30.7847 36.1161 30.401 36.5333 29.9321 37.0212C28.8669 38.1294 28.7149 38.4026 28.7149 39.2091C28.7149 39.8442 28.8545 40.217 29.2488 40.6351C29.3717 40.7654 29.4645 40.8782 29.455 40.8859C29.3077 41.0043 25.7504 41.9297 23.5314 42.4269C22.885 42.5718 22.1901 42.766 21.9873 42.8587C21.5321 43.0665 21.1675 43.4102 20.9445 43.8415C20.7145 44.2866 20.6603 45.1149 20.8319 45.564C21.082 46.2191 21.7957 46.7493 22.5148 46.8146C23.5203 46.9057 26.6202 46.3746 32.1512 45.1635C33.6033 44.8455 34.1363 44.7022 34.3206 44.5803C34.8749 44.2134 36.4618 42.8696 39.8852 39.868C42.6221 37.4683 43.6121 36.6147 43.7948 36.497C43.9887 36.3721 45.0224 36.2545 45.9866 36.2475C46.895 36.2409 47.3409 36.1711 47.4529 36.018C47.5282 35.9149 47.5371 35.3716 47.5057 32.8042C47.4849 31.1048 47.4533 29.6186 47.4355 29.5016C47.4171 29.3808 47.3467 29.2587 47.2727 29.2191C47.1807 29.1699 46.5759 29.1695 45.2221 29.2181C44.1661 29.256 42.2671 29.3178 41.0023 29.3553C39.7374 29.3929 38.4931 29.4507 38.2371 29.4837C37.5228 29.5759 37.0798 29.771 36.6197 30.1963C36.3983 30.4011 36.2057 30.5345 36.1917 30.4929C36.1776 30.4514 35.9848 30.1409 35.7632 29.803C34.9738 28.5996 33.5872 27.4142 32.168 26.7296C31.6126 26.4616 31.5475 26.4429 31.3906 26.506ZM32.3168 27.7904C32.9885 28.1684 33.3727 28.4559 33.9623 29.0217C34.5595 29.5948 34.9189 30.0453 35.318 30.7213L35.6021 31.2025L34.9826 31.8383C34.6418 32.188 33.8104 33.0359 33.1349 33.7225C32.4594 34.4092 31.8686 35.0214 31.8221 35.0829C31.7244 35.2123 30.929 35.2417 25.988 35.2988C24.416 35.317 21.7137 35.3514 19.983 35.3752L16.8361 35.4186L16.8818 34.8005C17.1291 31.4559 18.4321 29.2634 21.0432 27.7982L21.4535 27.568L21.6223 27.7686C21.888 28.0843 22.7405 28.7439 23.2229 29.0071L23.6627 29.247L25.0387 31.6407C25.9007 33.1402 26.4632 34.0524 26.5445 34.0825C26.9162 34.2199 26.931 34.1981 28.2966 31.4872L29.5868 28.9263L30.0573 28.6483C30.5787 28.3404 31.192 27.8827 31.4374 27.6184C31.6256 27.4158 31.6646 27.4234 32.3168 27.7904ZM46.641 32.6469C46.6642 34.0972 46.6672 35.3095 46.6478 35.3409C46.6284 35.3724 46.2964 35.3986 45.91 35.3992C45.138 35.4004 44.1055 35.4939 43.7221 35.5971C43.3635 35.6936 43.136 35.8799 39.5776 38.991C36.1467 41.9907 34.6871 43.242 34.12 43.6702C33.7783 43.9282 33.7375 43.94 31.4739 44.4339C25.8445 45.6624 22.9925 46.1262 22.3572 45.9166C21.8388 45.7455 21.5668 45.3709 21.5668 44.8281C21.5668 44.3741 21.777 43.9825 22.1461 43.7484C22.4871 43.5322 22.4783 43.5347 24.7396 43.0194C27.6902 42.3471 30.9562 41.381 31.7814 40.9363C32.0705 40.7805 32.5112 40.3408 36.8462 35.8823C37.8783 34.8208 37.956 34.6845 37.684 34.4125C37.3932 34.1216 37.3021 34.1856 35.7905 35.743C31.4826 40.1816 31.2592 40.3869 30.7333 40.3904C30.4863 40.3921 30.0918 40.2421 29.9095 40.0773C29.7114 39.8981 29.5362 39.4985 29.5371 39.2282C29.5389 38.6941 29.7164 38.4783 32.526 35.5926C37.783 30.1932 37.4101 30.5568 37.807 30.4425C38.3042 30.2994 39.6853 30.221 43.1699 30.1382C44.8318 30.0986 46.2043 30.0537 46.2198 30.0382C46.2353 30.0227 46.3269 30.0101 46.4235 30.0101H46.599L46.641 32.6469Z"/></svg>