<svg viewBox="0 0 60 60" fill="currentcolor" xmlns="http://www.w3.org/2000/svg"><path fill-rule="evenodd" clip-rule="evenodd" d="M16.5205 14.5378C15.5587 14.7974 14.8067 15.5935 14.6055 16.565C14.5624 16.7732 14.5471 21.2307 14.5581 30.3304L14.5744 43.7878L14.8047 44.2538C15.1682 44.9891 15.6829 45.4429 16.4118 45.6704C16.7449 45.7744 17.0795 45.7826 20.953 45.7826H25.1347V45.1361V44.4896H21.0932C18.2431 44.4896 16.9826 44.4689 16.8172 44.4193C16.5074 44.3264 16.1701 44.042 16.0193 43.7463C15.8989 43.5104 15.8977 43.3515 15.9133 30.057L15.9291 16.6064L16.1144 16.3428C16.2266 16.1831 16.4202 16.0171 16.6053 15.9219L16.9111 15.7645H29.8144H42.7178L43.0235 15.9219C43.2086 16.0171 43.4023 16.1831 43.5144 16.3428L43.6997 16.6064L43.7157 25.9298L43.7317 35.2532H44.4094H45.0871L45.0708 25.8783L45.0544 16.5034L44.9107 16.1474C44.6394 15.4754 44.0514 14.8865 43.3822 14.6166L43.0224 14.4714L29.9376 14.4597C18.6467 14.4496 16.8072 14.4604 16.5205 14.5378ZM19.2981 20.8757C19.0562 20.9808 18.8887 21.3211 18.9474 21.5882C18.9687 21.6853 19.0693 21.8348 19.1711 21.9204L19.356 22.076H29.6297H39.9034L40.0907 21.9184C40.3268 21.7198 40.3915 21.4231 40.2559 21.1609C40.046 20.755 40.8273 20.7827 29.6482 20.7853C20.9936 20.7874 19.4707 20.8007 19.2981 20.8757ZM35.1715 26.0722C34.3768 26.2479 33.5994 26.5876 32.9856 27.0275C32.2124 27.5816 31.3855 28.5909 31.011 29.4377C30.3663 30.8955 30.3716 32.6765 31.0248 34.151L31.1776 34.4958L29.0438 38.723C27.8702 41.0479 26.9331 42.9495 26.9614 42.9486C26.9896 42.9478 27.8711 42.8525 28.9202 42.7369C29.9693 42.6212 30.8314 42.5319 30.836 42.5383C30.8406 42.5447 31.2786 43.2842 31.8094 44.1817C32.3402 45.0791 32.7942 45.8198 32.8184 45.8275C32.8426 45.8352 33.636 44.3034 34.5815 42.4235C35.527 40.5435 36.3209 39.0271 36.3457 39.0535C36.3888 39.0995 37.1286 40.3794 39.2207 44.0277C39.745 44.9421 40.2068 45.7254 40.2469 45.7684C40.3041 45.8298 40.503 45.492 41.1712 44.1982C41.6395 43.2917 42.0536 42.517 42.0915 42.4768C42.1446 42.4203 42.5327 42.4244 43.7921 42.4947C44.6896 42.5448 45.5538 42.5777 45.7125 42.5678L46.0012 42.5499L43.781 38.7014C42.5598 36.5848 41.5477 34.8073 41.5317 34.7515C41.5158 34.6957 41.5471 34.5822 41.6014 34.4994C41.7593 34.2585 42.0713 33.353 42.1658 32.8617C42.2869 32.2321 42.2744 31.2715 42.1364 30.6031C41.7724 28.8392 40.501 27.2324 38.892 26.5028C38.0838 26.1364 37.4927 26.0038 36.5569 25.9792C35.8764 25.9613 35.5847 25.9809 35.1715 26.0722ZM19.1711 26.234C18.9371 26.431 18.8806 26.6761 19.0022 26.9671C19.1768 27.3851 19.0089 27.3715 24.0152 27.3715H28.5031L28.7123 27.2309C29.1105 26.9633 29.0841 26.3375 28.6666 26.1473C28.5596 26.0985 27.1792 26.0784 23.9358 26.0784H19.356L19.1711 26.234ZM37.5322 27.4056C38.0788 27.5443 38.845 27.939 39.3065 28.3196C40.4834 29.2904 41.1039 30.8622 40.899 32.3538C40.6592 34.0992 39.4662 35.5357 37.7885 36.0991C37.3459 36.2478 37.2051 36.2648 36.403 36.2669C35.4068 36.2695 35.034 36.1838 34.2479 35.7717C32.2155 34.7064 31.314 32.2128 32.1856 30.0676C32.7652 28.6412 34.1615 27.558 35.7451 27.3064C36.1749 27.238 37.0667 27.2875 37.5322 27.4056ZM19.2981 31.4667C19.0562 31.5718 18.8887 31.9121 18.9474 32.1792C18.9687 32.2763 19.0693 32.4258 19.1711 32.5114L19.356 32.667H23.3291H27.3021L27.5115 32.4577C27.8402 32.1289 27.7455 31.6398 27.3185 31.4614C27.0071 31.3313 19.5985 31.3362 19.2981 31.4667ZM32.9915 36.5613C33.4486 36.8932 34.2989 37.2833 34.9108 37.4417C35.2041 37.5177 35.4515 37.6036 35.4606 37.6326C35.4697 37.6617 34.8586 38.9142 34.1028 40.416L32.7284 43.1466L32.128 42.1249C31.6052 41.2355 31.5103 41.107 31.3945 41.132C31.161 41.1825 29.3262 41.361 29.2644 41.3393C29.2316 41.3278 29.8432 40.0629 30.6235 38.5284L32.0422 35.7384L32.3599 36.0359C32.5347 36.1995 32.8189 36.436 32.9915 36.5613ZM41.7592 37.8394C42.3131 38.8046 42.9668 39.9407 43.2121 40.364C43.4573 40.7873 43.6497 41.1421 43.6396 41.1525C43.6294 41.1627 43.1127 41.141 42.4912 41.1041C41.469 41.0434 41.3544 41.0466 41.2879 41.1375C41.2475 41.1927 41.0032 41.6509 40.7451 42.1557C40.487 42.6603 40.2565 43.0723 40.2328 43.0712C40.198 43.0694 37.1544 37.8204 37.0931 37.6563C37.0832 37.6297 37.2633 37.5732 37.4933 37.5306C38.4439 37.3547 39.4407 36.8757 40.2203 36.2204C40.5682 35.9279 40.6286 35.8973 40.6862 35.9844C40.7225 36.0395 41.2054 36.8742 41.7592 37.8394Z"/></svg>