<svg viewBox="0 0 60 60" fill="currentcolor" xmlns="http://www.w3.org/2000/svg"><path fill-rule="evenodd" clip-rule="evenodd" d="M16.478 16.0268C16.0155 16.2609 15.9947 16.3766 16.0156 18.6061C16.0338 20.5488 16.0371 20.5907 16.1912 20.8067C16.5165 21.2628 17.259 21.2628 17.5843 20.8067C17.7229 20.6124 17.7441 20.4912 17.7643 19.7763L17.7873 18.966L19.3008 20.468C20.8852 22.0404 20.9994 22.1224 21.4633 22.0205C21.7265 21.9627 22.054 21.6353 22.1117 21.372C22.2136 20.9081 22.1317 20.794 20.5593 19.2095L19.0573 17.6961L19.8675 17.673C20.5825 17.6528 20.7036 17.6317 20.898 17.493C21.354 17.1678 21.354 16.4252 20.898 16.1C20.6819 15.9459 20.6401 15.9426 18.6974 15.9244C16.9148 15.9077 16.6931 15.9179 16.478 16.0268ZM39.217 16.0341C38.9606 16.1691 38.7403 16.5214 38.7403 16.7965C38.7403 17.0716 38.9606 17.4239 39.217 17.5589C39.4059 17.6584 39.6094 17.6842 40.2038 17.6842H40.9527L39.4449 19.2037C37.8662 20.7943 37.7846 20.9079 37.8865 21.372C37.9443 21.6353 38.2717 21.9627 38.535 22.0205C38.9991 22.1224 39.1127 22.0408 40.7033 20.4622L42.2228 18.9543V19.6872C42.2228 20.5404 42.3127 20.8257 42.6455 21.0286C42.9336 21.2043 43.2874 21.2043 43.5756 21.0286C43.9735 20.786 43.9983 20.637 43.998 18.4888C43.9976 15.7403 44.1703 15.9087 41.3532 15.9087C39.6439 15.9087 39.4313 15.9212 39.217 16.0341ZM23.8686 21.6526C22.8002 21.8306 21.919 22.7332 21.7406 23.8325C21.648 24.4035 21.648 26.6713 21.7406 27.2423C21.9242 28.3734 22.7955 29.2424 23.9309 29.4267C24.4928 29.5178 26.7646 29.5178 27.3265 29.4267C28.4619 29.2424 29.3332 28.3734 29.5167 27.2423C29.6093 26.6713 29.6093 24.4035 29.5167 23.8325C29.3817 23.0003 28.7952 22.2059 28.0609 21.8608C27.8941 21.7824 27.5628 21.6866 27.3248 21.6479C26.8088 21.5642 24.3798 21.5675 23.8686 21.6526ZM32.6095 21.6526C31.5411 21.8306 30.6599 22.7332 30.4815 23.8325C30.3889 24.4035 30.3889 26.6713 30.4815 27.2423C30.6651 28.3734 31.5364 29.2424 32.6718 29.4267C33.2337 29.5178 35.5055 29.5178 36.0674 29.4267C37.2028 29.2424 38.0741 28.3734 38.2577 27.2423C38.3503 26.6713 38.3503 24.4035 38.2577 23.8325C38.1227 23.0003 37.5361 22.2059 36.8018 21.8608C36.635 21.7824 36.3037 21.6866 36.0657 21.6479C35.5497 21.5642 33.1207 21.5675 32.6095 21.6526ZM27.3423 23.458C27.4548 23.5161 27.6068 23.6621 27.6801 23.7823C27.8017 23.9819 27.8134 24.1339 27.8136 25.5238C27.8139 27.2121 27.7867 27.3432 27.3838 27.5888C27.1841 27.7106 27.0324 27.7222 25.6287 27.7222C23.3804 27.7222 23.4434 27.7851 23.4434 25.5374C23.4434 23.864 23.4713 23.7313 23.8736 23.486C24.0731 23.3643 24.2251 23.3527 25.615 23.3525C26.8566 23.3523 27.1755 23.3717 27.3423 23.458ZM36.0832 23.458C36.1957 23.5161 36.3477 23.6621 36.421 23.7823C36.5427 23.9819 36.5543 24.1339 36.5545 25.5238C36.5548 27.2121 36.5276 27.3432 36.1247 27.5888C35.925 27.7106 35.7733 27.7222 34.3696 27.7222C32.1213 27.7222 32.1844 27.7851 32.1844 25.5374C32.1844 23.864 32.2122 23.7313 32.6145 23.486C32.8141 23.3643 32.9661 23.3527 34.3559 23.3525C35.5976 23.3523 35.9165 23.3717 36.0832 23.458ZM23.8686 30.3935C22.8002 30.5715 21.919 31.4741 21.7406 32.5734C21.648 33.1444 21.648 35.4123 21.7406 35.9832C21.9242 37.1144 22.7955 37.9833 23.9309 38.1676C24.4928 38.2587 26.7646 38.2587 27.3265 38.1676C28.4619 37.9833 29.3332 37.1144 29.5167 35.9832C29.6093 35.4123 29.6093 33.1444 29.5167 32.5734C29.3817 31.7412 28.7952 30.9468 28.0609 30.6017C27.8941 30.5233 27.5628 30.4275 27.3248 30.3888C26.8088 30.3051 24.3798 30.3084 23.8686 30.3935ZM32.6095 30.3935C31.5604 30.5683 30.6809 31.453 30.4831 32.5325C30.3884 33.049 30.3874 35.403 30.4815 35.9832C30.6651 37.1144 31.5364 37.9833 32.6718 38.1676C33.2337 38.2587 35.5055 38.2587 36.0674 38.1676C37.2028 37.9833 38.0741 37.1144 38.2577 35.9832C38.3503 35.4123 38.3503 33.1444 38.2577 32.5734C38.1227 31.7412 37.5361 30.9468 36.8018 30.6017C36.635 30.5233 36.3037 30.4275 36.0657 30.3888C35.5497 30.3051 33.1207 30.3084 32.6095 30.3935ZM27.3423 32.1989C27.4548 32.257 27.6068 32.403 27.6801 32.5233C27.8017 32.7228 27.8134 32.8748 27.8136 34.2647C27.8139 35.953 27.7867 36.0841 27.3838 36.3297C27.1841 36.4516 27.0324 36.4631 25.6287 36.4631C23.3804 36.4631 23.4434 36.5261 23.4434 34.2783C23.4434 32.6049 23.4713 32.4722 23.8736 32.227C24.0731 32.1053 24.2251 32.0936 25.615 32.0934C26.8566 32.0932 27.1755 32.1126 27.3423 32.1989ZM36.0832 32.1989C36.1957 32.257 36.3477 32.403 36.421 32.5233C36.5427 32.7228 36.5543 32.8748 36.5545 34.2647C36.5548 35.953 36.5276 36.0841 36.1247 36.3297C35.925 36.4516 35.7733 36.4631 34.3696 36.4631C32.1213 36.4631 32.1844 36.5261 32.1844 34.2783C32.1844 32.6049 32.2122 32.4722 32.6145 32.227C32.8141 32.1053 32.9661 32.0936 34.3559 32.0934C35.5976 32.0932 35.9165 32.1126 36.0832 32.1989ZM20.8826 37.8671C20.7699 37.9249 20.0248 38.6235 19.2266 39.4196L17.7755 40.867V40.1267C17.7755 39.5767 17.7462 39.3247 17.6615 39.1461C17.3511 38.4921 16.4244 38.4921 16.114 39.1461C16.016 39.3526 16 39.6522 16 41.2733C16 43.3731 16.0261 43.5268 16.4227 43.7687C16.6354 43.8983 16.7634 43.9065 18.5846 43.9067C20.2519 43.9069 20.5539 43.8912 20.7609 43.793C21.2168 43.5766 21.3747 43.0821 21.1386 42.6095C20.9497 42.2313 20.6689 42.1317 19.7921 42.1316L19.0429 42.1315L20.5219 40.6462C21.9358 39.2261 22.146 38.9648 22.146 38.6262C22.146 38.3785 21.9117 38.0188 21.6637 37.8858C21.3801 37.7337 21.153 37.7283 20.8826 37.8671ZM38.3346 37.8858C38.0866 38.0188 37.8523 38.3785 37.8523 38.6262C37.8523 38.9646 38.0621 39.2258 39.4705 40.6403L40.9435 42.1196L40.132 42.1426C39.1804 42.1696 38.9402 42.279 38.7993 42.7495C38.6875 43.1224 38.8073 43.5068 39.1003 43.7158C39.3163 43.8699 39.3582 43.8732 41.3009 43.8914C43.5304 43.9123 43.6461 43.8915 43.8802 43.429C43.9891 43.2139 43.9994 42.9922 43.9826 41.2096C43.9645 39.2669 43.9611 39.2251 43.8071 39.009C43.4818 38.553 42.7392 38.553 42.414 39.009C42.2753 39.2034 42.2542 39.3245 42.2339 40.0407L42.2109 40.8523L40.7315 39.3793C39.0306 37.6856 38.8813 37.5926 38.3346 37.8858Z"/></svg>