<svg viewBox="0 0 60 60" fill="currentcolor" xmlns="http://www.w3.org/2000/svg"><path fill-rule="evenodd" clip-rule="evenodd" d="M26.7227 14.7532C26.1018 14.9614 25.5517 15.579 25.4136 16.2229C25.3786 16.386 25.35 16.8287 25.35 17.2066V17.8936L23.715 17.8937L22.08 17.8938L21.72 18.0646C21.3034 18.2624 20.8985 18.6717 20.7124 19.0831C20.6076 19.3149 20.5813 19.5117 20.5612 20.2151L20.5369 21.0666L18.4884 21.0851C16.5367 21.1027 16.4267 21.1098 16.1594 21.2333C15.7813 21.4081 15.3538 21.8133 15.1597 22.1812L15 22.4836V32.8336V43.1836L15.1387 43.4652C15.3221 43.8376 15.6728 44.191 16.063 44.3966L16.38 44.5636H24.78H33.18L33.4824 44.404C33.8512 44.2093 34.2565 43.7814 34.4291 43.4042C34.5367 43.1693 34.5611 42.9846 34.5794 42.2686L34.6013 41.4136H36.4174C38.7449 41.4136 39.0358 41.3581 39.6064 40.8046C40.0738 40.3512 40.23 39.8488 40.23 38.7989V38.1806L41.895 38.1621L43.56 38.1436L43.94 37.9376C44.359 37.7104 44.6562 37.3891 44.8639 36.9388C44.9922 36.6605 45 36.5687 45 35.3336V34.0236L44.8316 33.8786C44.5989 33.6781 44.3453 33.6891 44.1254 33.909L43.95 34.0844V35.245C43.95 36.5184 43.913 36.6814 43.5647 36.9417C43.413 37.0551 43.2904 37.0657 41.8169 37.0936L40.2322 37.1236L40.2161 28.2736L40.2 19.4236L40.0269 19.0488C39.838 18.6399 39.4979 18.2854 39.0809 18.0629L38.82 17.9236L32.625 17.9076L26.43 17.8915V17.1396C26.43 16.3306 26.4692 16.1845 26.7591 15.9136L26.9197 15.7636L35.125 15.748L43.3304 15.7324L43.5352 15.8692C43.9811 16.1671 43.9498 15.5709 43.9499 23.7633L43.95 31.1029L44.1254 31.2783C44.3453 31.4981 44.5988 31.5091 44.8316 31.3088L45 31.164V23.6738V16.1836L44.8398 15.8419C44.6447 15.4256 44.2621 15.0313 43.86 14.8322L43.56 14.6836L35.28 14.6719C27.9397 14.6615 26.9686 14.6707 26.7227 14.7532ZM38.7069 19.0674C38.798 19.1354 38.9282 19.2656 38.9963 19.3567C39.1199 19.5223 39.12 19.5278 39.1355 29.548C39.1509 39.4818 39.1499 39.5759 39.0305 39.8226C38.9535 39.9816 38.8258 40.1189 38.6768 40.2026C38.4506 40.3297 38.3866 40.3336 36.5176 40.3336H34.5916L34.5758 31.4386L34.56 22.5436L34.3916 22.2008C34.2035 21.8178 33.8303 21.4567 33.403 21.2443L33.12 21.1036L27.375 21.0872L21.63 21.0708V20.3362C21.63 19.4637 21.7045 19.265 22.112 19.0495L22.3713 18.9124L30.4562 18.928C38.5163 18.9436 38.5417 18.944 38.7069 19.0674ZM33.0929 22.2888C33.2032 22.3632 33.349 22.5184 33.4168 22.6338C33.5398 22.8432 33.54 22.8638 33.54 32.8636C33.54 42.7773 33.5387 42.8857 33.42 43.0828C33.354 43.1923 33.2055 43.3408 33.09 43.4128L32.88 43.5436L24.8395 43.5595L16.7989 43.5753L16.5295 43.4395C16.3321 43.34 16.2239 43.232 16.125 43.0359L15.99 42.7682V32.8303V22.8925L16.1265 22.6344C16.4038 22.11 15.6173 22.1536 24.7852 22.1536H32.8922L33.0929 22.2888ZM18.6254 26.469C18.4055 26.6889 18.3946 26.9425 18.5948 27.1753L18.7396 27.3436L24.5961 27.3595C31.0803 27.3771 30.7334 27.3973 30.8668 26.9933C30.9472 26.7496 30.8791 26.5288 30.6805 26.3897C30.557 26.3032 29.9583 26.2936 24.6721 26.2936H18.8008L18.6254 26.469ZM18.6082 30.8318C18.3986 31.0414 18.394 31.3431 18.5973 31.5463L18.7445 31.6936H24.6768H30.6091L30.7516 31.542C30.9561 31.3243 30.946 31.0027 30.7286 30.8158L30.5633 30.6736H24.6649H18.7664L18.6082 30.8318ZM18.5973 35.2009C18.3908 35.4073 18.4016 35.6745 18.6254 35.8983L18.8008 36.0736H24.682H30.5633L30.7286 35.9314C30.946 35.7445 30.9561 35.423 30.7516 35.2053L30.6091 35.0536H24.6768H18.7445L18.5973 35.2009ZM18.6254 39.549C18.4055 39.7689 18.3946 40.0225 18.5948 40.2553L18.7396 40.4236L24.5961 40.4395C31.0293 40.4569 30.7123 40.4743 30.8688 40.0965C30.9298 39.9493 30.9298 39.878 30.8688 39.7308C30.7136 39.3561 31.0201 39.3736 24.6284 39.3736H18.8008L18.6254 39.549Z"/></svg>