<svg viewBox="0 0 60 60" fill="currentcolor" xmlns="http://www.w3.org/2000/svg"><path fill-rule="evenodd" clip-rule="evenodd" d="M26.3661 13.7725C22.8506 14.2603 19.6679 15.7878 17.1467 18.1975C11.4964 23.598 10.3657 32.1098 14.4153 38.7599C16.7965 42.67 20.7628 45.4585 25.2404 46.3701C26.514 46.6295 27.4367 46.6994 29.0274 46.6569C31.067 46.6024 32.6374 46.3076 34.3275 45.6617C34.7476 45.5013 34.8456 45.4348 34.8068 45.337C34.78 45.2694 34.6888 45.0284 34.6042 44.8014C34.5197 44.5743 34.4424 44.3789 34.4327 44.3669C34.4229 44.355 33.9632 44.4954 33.411 44.679C32.1213 45.1077 30.244 45.4727 29.3115 45.4761L29.1427 45.4767V30.1614V14.846L29.7243 14.8958C31.1524 15.018 32.4957 15.311 33.8117 15.7873L34.5345 16.049L34.7385 15.4896C34.8507 15.182 34.9292 14.9187 34.913 14.9044C34.8633 14.8607 33.6365 14.4282 33.12 14.2723C32.461 14.0735 31.2038 13.8268 30.3809 13.7349C29.456 13.6315 27.2321 13.6524 26.3661 13.7725ZM39.4271 13.9637C38.9962 14.0502 38.4406 14.4312 38.1965 14.8077C37.8427 15.3532 37.7877 16.2021 38.0716 16.7326C38.1277 16.8373 37.9274 17.0727 36.9944 17.9988L35.8482 19.1364H33.3584H30.8687V19.7367V20.3371H33.6274H36.386L37.6985 19.0212C39.0099 17.7066 39.0112 17.7055 39.2903 17.7518C40.1272 17.8905 40.815 17.6806 41.2894 17.1417C41.9193 16.4261 41.9177 15.316 41.2858 14.5981C40.809 14.0565 40.126 13.8233 39.4271 13.9637ZM27.942 18.3859V21.8379H24.8652C23.1729 21.8379 21.7884 21.8251 21.7884 21.8093C21.7884 21.7115 22.2281 20.6433 22.545 19.9717C23.5676 17.8037 24.9878 16.1203 26.397 15.4059C26.9093 15.1462 27.4835 14.9461 27.7356 14.9394L27.942 14.9339V18.3859ZM40.33 15.3784C40.4924 15.5408 40.5493 15.669 40.5493 15.872C40.5493 16.2473 40.2173 16.5849 39.848 16.5849C39.4517 16.5849 39.1235 16.2785 39.1235 15.9086C39.1235 15.2254 39.8553 14.9038 40.33 15.3784ZM23.7668 15.9282C22.5179 17.2591 21.2644 19.4613 20.606 21.4815L20.4898 21.8379H18.0912H15.6926L15.8259 21.6316C16.4466 20.6702 17.7296 19.2424 18.6986 18.4345C19.5418 17.7315 20.6302 17.0155 21.5856 16.5351C22.4155 16.1179 23.8285 15.5411 24.0318 15.5366C24.0894 15.5353 23.9701 15.7115 23.7668 15.9282ZM44.9242 19.5165C44.5113 19.5965 44.3246 19.6971 43.9765 20.027C43.4237 20.5508 43.2445 21.1789 43.4355 21.924L43.5557 22.3933L42.8607 23.0912L42.1658 23.7891H40.1175H38.0692L37.9937 23.5907C37.7398 22.9226 36.998 22.4383 36.2288 22.4383C35.6733 22.4383 35.3221 22.5727 34.9139 22.9415C33.6827 24.0538 34.3239 26.0764 35.9799 26.3042C36.7318 26.4076 37.581 25.9599 37.9298 25.2763L38.076 24.9898H40.3809H42.6858L43.5606 24.1173L44.4353 23.2449L44.8774 23.3228C46.1824 23.5526 47.2221 22.7034 47.2266 21.404C47.2309 20.1871 46.1281 19.2831 44.9242 19.5165ZM45.8082 20.9316C45.9706 21.094 46.0275 21.2222 46.0275 21.4252C46.0275 21.6282 45.9706 21.7564 45.8082 21.9188C45.5207 22.2063 45.1556 22.2156 44.8326 21.9438C44.6418 21.7832 44.6022 21.6954 44.6041 21.4373C44.6076 20.9698 44.8629 20.7189 45.3392 20.7145C45.517 20.713 45.652 20.7754 45.8082 20.9316ZM20.1028 23.17C19.9954 23.4483 19.6707 25.0714 19.5359 26.0029C19.4583 26.5394 19.3538 27.5609 19.3038 28.2729L19.2128 29.5675H16.2231H13.2334L13.2338 29.286C13.2343 28.8509 13.5042 27.1182 13.6753 26.4515C13.8731 25.6808 14.1985 24.7364 14.5308 23.9692C14.9845 22.9214 14.6011 23.0386 17.5745 23.0386C19.9999 23.0386 20.1505 23.0464 20.1028 23.17ZM27.942 26.3037V29.5689L24.2086 29.5494L20.4751 29.5299L20.497 28.9296C20.5328 27.9492 20.6609 26.6631 20.8185 25.7027C20.9562 24.8641 21.3155 23.2225 21.3895 23.0949C21.4074 23.064 22.889 23.0386 24.682 23.0386H27.942V26.3037ZM36.741 23.8689C37.0371 24.2345 36.993 24.669 36.6325 24.9374C36.034 25.3829 35.2389 24.7367 35.558 24.0643C35.6247 23.9236 35.7536 23.7708 35.8443 23.7249C36.0946 23.5979 36.5855 23.6768 36.741 23.8689ZM32.2332 28.0592C31.1508 28.433 30.6253 29.7243 31.1373 30.7518C31.8419 32.1659 33.8996 32.1645 34.629 30.7494L34.774 30.468H36.3679H37.9618L39.4604 31.968L40.959 33.4681L41.3546 33.0775C41.572 32.8627 41.7501 32.6517 41.7501 32.6087C41.7501 32.5656 41.0153 31.7962 40.1172 30.8988L38.4844 29.2673H36.6046H34.7248L34.5927 28.968C34.3532 28.425 33.5132 27.9124 32.8735 27.919C32.7408 27.9203 32.4526 27.9834 32.2332 28.0592ZM33.1626 29.2271C33.6615 29.4355 33.7509 30.0775 33.3305 30.4313C32.9717 30.7331 32.4662 30.6474 32.2606 30.2498C32.0356 29.8147 32.1753 29.4199 32.6231 29.225C32.9139 29.0984 32.8543 29.0982 33.1626 29.2271ZM19.2372 30.9745C19.2393 32.3687 19.6316 35.2721 20.0535 37.0156L20.1216 37.297H17.5456H14.9695L14.6584 36.6403C14.2733 35.8272 13.8293 34.5499 13.6215 33.6573C13.4629 32.9759 13.2334 31.3985 13.2334 30.9895V30.7682H16.2351H19.2369L19.2372 30.9745ZM27.942 34.0334V37.2985L24.6635 37.279L21.3851 37.2594L21.2145 36.5841C20.9683 35.6098 20.6812 33.8738 20.5938 32.8319C20.4733 31.3941 20.4468 30.859 20.4938 30.8121C20.5179 30.7879 22.2036 30.7682 24.2398 30.7682H27.942V34.0334ZM46.1401 31.0584C45.3822 31.4039 44.9507 32.06 44.9493 32.8694C44.9489 33.1377 44.9871 33.428 45.0343 33.5147C45.1125 33.6582 45.0023 33.7896 43.7915 34.9963L42.463 36.3205L39.4987 36.3207L36.5345 36.3209L36.3469 35.9668C35.6808 34.7094 33.8957 34.648 33.0652 35.8539C32.7916 36.2511 32.7823 36.286 32.7823 36.9121C32.7823 37.491 32.8051 37.5976 32.9971 37.9183C33.3831 38.5629 34.0963 38.9209 34.857 38.8519C35.546 38.7894 36.1637 38.3577 36.4324 37.7508L36.5336 37.5221H39.7648H42.9959L44.4696 36.0508L45.9432 34.5794L46.2861 34.7104C47.1522 35.0411 48.257 34.5548 48.6611 33.6649C48.8825 33.1774 48.8544 32.4573 48.5946 31.96C48.1315 31.0735 47.0103 30.6617 46.1401 31.0584ZM47.2298 32.2323C48.0424 32.6525 47.4482 33.8705 46.6028 33.5173C46.2967 33.3894 46.1776 33.2036 46.1776 32.8535C46.1776 32.2805 46.7124 31.9648 47.2298 32.2323ZM34.9976 36.2846C35.8022 36.7007 35.2242 37.9402 34.3873 37.5936C33.8319 37.3636 33.812 36.5133 34.3564 36.2761C34.6519 36.1474 34.7342 36.1484 34.9976 36.2846ZM20.6561 39.0042C21.3936 41.0841 22.5003 43.0245 23.6899 44.323C23.9309 44.5861 24.093 44.8014 24.0501 44.8014C23.8562 44.8014 22.4976 44.2566 21.7246 43.8689C20.7526 43.3815 19.8323 42.8041 19.0581 42.1962C18.0126 41.3752 16.4847 39.7244 15.8259 38.704L15.6926 38.4977H18.0845H20.4765L20.6561 39.0042ZM27.942 41.9497V45.4017H27.7662C27.6694 45.4017 27.4061 45.3383 27.1809 45.2608C25.1461 44.5608 23.4156 42.5546 22.122 39.3961C21.9385 38.9482 21.7884 38.5628 21.7884 38.5397C21.7884 38.5166 23.1729 38.4977 24.8652 38.4977H27.942V41.9497ZM30.4935 41.0867V41.7246H33.1H35.7067L36.5474 42.5629L37.3881 43.4012L37.2689 43.6316C37.2034 43.7584 37.134 44.0832 37.1146 44.3533C37.0329 45.4957 37.86 46.3809 39.0257 46.3983C40.4572 46.4196 41.4277 44.881 40.7815 43.6145C40.3626 42.7933 39.4737 42.3797 38.5578 42.5797C38.3501 42.625 38.2644 42.5569 37.2484 41.5385L36.1612 40.4488H33.3274H30.4935V41.0867ZM39.379 43.8362C39.4822 43.8832 39.6211 44.0364 39.6876 44.1768C40.0412 44.9219 39.0985 45.5383 38.508 44.9478C38.3053 44.7451 38.2841 44.6832 38.3214 44.4041C38.3925 43.8747 38.8841 43.6107 39.379 43.8362Z"/></svg>