<svg viewBox="0 0 60 60" fill="currentcolor" xmlns="http://www.w3.org/2000/svg"><path fill-rule="evenodd" clip-rule="evenodd" d="M30 28C32.7614 28 35 25.7614 35 23C35 20.2386 32.7614 18 30 18C27.2386 18 25 20.2386 25 23C25 25.7614 27.2386 28 30 28ZM30 29C33.3137 29 36 26.3137 36 23C36 19.6863 33.3137 17 30 17C26.6863 17 24 19.6863 24 23C24 26.3137 26.6863 29 30 29Z"/><path fill-rule="evenodd" clip-rule="evenodd" d="M22 42C24.7614 42 27 39.7614 27 37C27 34.2386 24.7614 32 22 32C19.2386 32 17 34.2386 17 37C17 39.7614 19.2386 42 22 42ZM22 43C25.3137 43 28 40.3137 28 37C28 33.6863 25.3137 31 22 31C18.6863 31 16 33.6863 16 37C16 40.3137 18.6863 43 22 43Z"/><path fill-rule="evenodd" clip-rule="evenodd" d="M38 42C40.7614 42 43 39.7614 43 37C43 34.2386 40.7614 32 38 32C35.2386 32 33 34.2386 33 37C33 39.7614 35.2386 42 38 42ZM38 43C41.3137 43 44 40.3137 44 37C44 33.6863 41.3137 31 38 31C34.6863 31 32 33.6863 32 37C32 40.3137 34.6863 43 38 43Z"/></svg>