<svg viewBox="0 0 60 60" fill="currentcolor" xmlns="http://www.w3.org/2000/svg"><path d="M32.3578 25.2311C32.1175 25.2311 31.9227 25.4259 31.9227 25.6662C31.9227 25.9065 32.1175 26.1013 32.3578 26.1013H37.3613C37.6016 26.1013 37.7964 25.9065 37.7964 25.6662C37.7964 25.4259 37.6016 25.2311 37.3613 25.2311H32.3578Z"/><path d="M32.3578 30.4522C32.1175 30.4522 31.9227 30.647 31.9227 30.8872C31.9227 31.1275 32.1175 31.3223 32.3578 31.3223H37.3613C37.6016 31.3223 37.7964 31.1275 37.7964 30.8872C37.7964 30.647 37.6016 30.4522 37.3613 30.4522H32.3578Z"/><path d="M31.9227 36.1083C31.9227 35.868 32.1175 35.6732 32.3578 35.6732H37.3613C37.6016 35.6732 37.7964 35.868 37.7964 36.1083C37.7964 36.3486 37.6016 36.5433 37.3613 36.5433H32.3578C32.1175 36.5433 31.9227 36.3486 31.9227 36.1083Z"/><path d="M32.3578 40.8942C32.1175 40.8942 31.9227 41.089 31.9227 41.3293C31.9227 41.5696 32.1175 41.7644 32.3578 41.7644H37.3613C37.6016 41.7644 37.7964 41.5696 37.7964 41.3293C37.7964 41.089 37.6016 40.8942 37.3613 40.8942H32.3578Z"/><path d="M26.8105 24.2866C26.9717 24.4648 26.9579 24.7399 26.7797 24.9012L24.1886 27.2455L22.8083 25.8651C22.6384 25.6952 22.6384 25.4197 22.8083 25.2498C22.9782 25.0799 23.2537 25.0799 23.4236 25.2498L24.2186 26.0449L26.1959 24.2559C26.3741 24.0947 26.6492 24.1084 26.8105 24.2866Z"/><path d="M26.7797 30.2309C26.9579 30.0697 26.9717 29.7946 26.8105 29.6164C26.6492 29.4382 26.3741 29.4245 26.1959 29.5857L24.2186 31.3747L23.4236 30.5796C23.2537 30.4097 22.9782 30.4097 22.8083 30.5796C22.6384 30.7495 22.6384 31.025 22.8083 31.1949L24.1886 32.5753L26.7797 30.2309Z"/><path d="M26.8105 34.9462C26.9717 35.1244 26.9579 35.3995 26.7797 35.5607L24.1886 37.9051L22.8083 36.5247C22.6384 36.3548 22.6384 36.0793 22.8083 35.9094C22.9782 35.7395 23.2537 35.7395 23.4236 35.9094L24.2186 36.7044L26.1959 34.9155C26.3741 34.7543 26.6492 34.768 26.8105 34.9462Z"/><path d="M26.7797 40.8905C26.9579 40.7293 26.9717 40.4542 26.8105 40.276C26.6492 40.0978 26.3741 40.084 26.1959 40.2453L24.2186 42.0342L23.4236 41.2392C23.2537 41.0693 22.9782 41.0693 22.8083 41.2392C22.6384 41.4091 22.6384 41.6846 22.8083 41.8545L24.1886 43.2348L26.7797 40.8905Z"/><path fill-rule="evenodd" clip-rule="evenodd" d="M23.8736 13.9189H36.1648V16.747C36.1648 16.9873 36.3596 17.1821 36.5999 17.1821H38.7753V19.3575H39.4279C41.11 19.3575 42.4735 20.7211 42.4735 22.4031V43.7222C42.4735 45.4043 41.11 46.7678 39.4279 46.7678H21.0456C19.3636 46.7678 18 45.4043 18 43.7222V22.4031C18 20.7211 19.3636 19.3575 21.0456 19.3575H21.4807V17.1821H23.4386C23.6788 17.1821 23.8736 16.9873 23.8736 16.747V13.9189ZM21.4807 20.2277H21.0456C19.8441 20.2277 18.8702 21.2016 18.8702 22.4031V43.7222C18.8702 44.9237 19.8441 45.8977 21.0456 45.8977H39.4279C40.6294 45.8977 41.6033 44.9237 41.6033 43.7222V22.4031C41.6033 21.2016 40.6294 20.2277 39.4279 20.2277H38.7753V21.8592H21.4807V20.2277ZM35.2946 14.7891V16.747C35.2946 17.4679 35.879 18.0522 36.5999 18.0522H37.9051V20.9891H22.3508V18.0522H23.4386C24.1594 18.0522 24.7438 17.4679 24.7438 16.747V14.7891H35.2946Z"/></svg>