<svg xmlns="http://www.w3.org/2000/svg" viewBox="0 0 56 56" fill="none" foxified="">
<rect width="56" height="55.9669" rx="27.9835" fill="#44B31F"/>
<path d="M46.4087 13.9981H11.468L9.61273 17.7086H44.5534L46.4087 13.9981Z" fill="white"/>
<path d="M11.468 19.1449H46.4087L44.5534 22.8554H30.1752V27.0989C31.7397 25.8866 33.7295 25.1745 35.8955 25.1745C40.9333 25.1745 44.7853 28.9492 44.7853 33.987C44.7853 38.2507 41.7492 41.1667 37.7621 41.9621L37.9054 43.1086L34.1949 40.403L37.1324 36.9244L37.2903 38.1882C39.1831 37.5351 40.5337 35.8113 40.5337 33.6777C40.5337 30.9454 38.3187 28.6531 35.5863 28.6531C33.5936 28.6531 31.4648 29.7901 30.4584 31.4657C30.2461 31.8192 30.1752 32.2344 30.1752 32.6466V45.4277L25.8462 44.8093V40.0978C24.2936 41.2741 22.3337 41.963 20.2032 41.963C15.1654 41.963 11.3134 38.1883 11.3134 33.1505C11.3134 28.8868 14.3495 25.9708 18.3366 25.1754L18.1933 24.0288L21.9038 26.7344L18.9663 30.213L18.8084 28.9492C16.9155 29.6024 15.565 31.3262 15.565 33.4597C15.565 36.1921 17.78 38.4844 20.5124 38.4844C22.4167 38.4844 24.4451 37.446 25.4997 35.8917C25.7573 35.5121 25.8462 35.0501 25.8462 34.5914V22.8554H9.61273L11.468 19.1449Z" fill="white"/>
</svg>