<svg viewBox="0 0 60 60" fill="currentcolor" xmlns="http://www.w3.org/2000/svg"><path fill-rule="evenodd" clip-rule="evenodd" d="M26.5147 16.1231C26.0818 16.3517 25.541 17.0353 25.541 17.3538C25.541 17.8626 25.4667 17.8917 24.1651 17.8917C23.3476 17.8917 22.8784 17.9371 22.7907 18.0247C22.712 18.1035 22.6577 18.482 22.6577 18.9509C22.6577 19.5936 22.7058 19.8156 22.9113 20.1209C23.3842 20.8233 23.4302 20.8304 27.4817 20.8304C30.9316 20.8304 31.162 20.8179 31.504 20.6111C31.9941 20.3148 32.3057 19.6386 32.3057 18.8719C32.3057 17.9656 32.1826 17.8917 30.6754 17.8917H29.4508L29.3802 17.4509C29.2967 16.9287 28.7536 16.2618 28.2356 16.0453C27.7305 15.8343 26.999 15.8675 26.5147 16.1231ZM28.0568 17.2456C28.5086 17.6701 28.3641 18.4173 27.7836 18.6577C27.1463 18.9217 26.4466 18.3434 26.5935 17.6745C26.7365 17.0238 27.5628 16.7816 28.0568 17.2456ZM18.7763 18.6351C18.6848 18.6684 18.4728 18.8235 18.305 18.9798L18 19.2639V30.2305V41.1971L18.3242 41.5212L18.6483 41.8454L27.4454 41.8419C34.1884 41.8392 36.2826 41.8068 36.414 41.7032C36.9087 41.3134 36.9634 41.0823 36.9634 39.3809C36.9634 38.4797 36.9259 37.743 36.8802 37.7439C36.8345 37.7448 36.4976 37.8388 36.1317 37.9529L35.4663 38.1603L35.4347 39.2828L35.4031 40.4052L27.4501 40.3768L19.4971 40.3483L19.4688 30.2289L19.4404 20.1096H20.6748H21.9091L21.8398 19.763C21.8017 19.5724 21.7705 19.2231 21.7705 18.9868V18.557L20.3566 18.5658C19.5788 18.5706 18.8678 18.6018 18.7763 18.6351ZM33.082 19.1579C33.082 19.4883 33.0517 19.8377 33.0147 19.9342C32.9558 20.0876 33.1015 20.1096 34.1791 20.1096H35.4108V22.4939C35.4108 24.6893 35.4262 24.8785 35.6049 24.8818C35.7117 24.8838 36.061 24.9759 36.3812 25.0865L36.9634 25.2877V22.4159C36.9634 18.5091 36.9935 18.557 34.5292 18.557H33.082V19.1579ZM23.3024 22.7343L22.563 23.4737L22.156 23.1163C21.701 22.7169 21.4874 22.708 21.2417 23.0786C21.0817 23.3201 21.1026 23.3585 21.7376 23.9935C22.1021 24.3581 22.4647 24.6564 22.5433 24.6564C22.7319 24.6564 24.6316 22.794 24.7168 22.5255C24.7533 22.4108 24.7229 22.2445 24.6494 22.1559C24.3877 21.8406 24.052 21.9846 23.3024 22.7343ZM25.7628 24.1019V24.6564H29.7551H33.7474V24.1019V23.5474H29.7551H25.7628V24.1019ZM33.2573 25.654C31.7355 25.9282 30.2721 26.8661 29.4129 28.1177C27.7747 30.5041 28.0529 33.5962 30.0898 35.6418C32.0243 37.5844 35.0273 37.9454 37.342 36.5134L37.8869 36.1762L38.6395 36.923C39.2924 37.571 39.3891 37.7184 39.3698 38.0369C39.3492 38.3772 39.536 38.5929 41.9448 41.0118C43.6962 42.7706 44.618 43.6198 44.7759 43.6198C45.0748 43.6198 46.3896 42.3065 46.3896 42.0079C46.3896 41.8689 45.4171 40.8163 43.7428 39.1432C41.2642 36.6662 41.0759 36.5027 40.7761 36.5685C40.4904 36.6312 40.3755 36.5575 39.7011 35.8779L38.9461 35.1171L39.2832 34.5721C40.9487 31.8802 40.1455 28.2811 37.4967 26.567C36.2525 25.7619 34.6154 25.4092 33.2573 25.654ZM23.2831 26.7651L22.5053 27.543L22.1507 27.1992C21.6953 26.7579 21.2885 26.7803 21.235 27.2497C21.2055 27.5074 21.3017 27.6745 21.7298 28.1091C22.0393 28.4234 22.361 28.6487 22.5003 28.6487C22.7574 28.6487 24.7647 26.7198 24.7647 26.4727C24.7647 26.2785 24.4491 25.9871 24.2386 25.9871C24.141 25.9871 23.7111 26.3372 23.2831 26.7651ZM36.3371 27.1327C37.3439 27.6302 38.1717 28.4765 38.66 29.5071C38.9925 30.2091 39.015 30.3341 39.015 31.4765C39.015 32.616 38.9919 32.7452 38.664 33.4372C38.0557 34.7213 37.0348 35.6432 35.7343 36.0826C35.1535 36.2789 34.8364 36.3152 34.0096 36.2796C33.1136 36.241 32.9012 36.1889 32.1715 35.8282C29.2109 34.365 28.4965 30.5697 30.7319 28.18C31.7502 27.0913 32.9223 26.6282 34.4991 26.6916C35.4124 26.7281 35.6191 26.7778 36.3371 27.1327ZM25.7628 28.1496V28.6487H26.9606H28.1583L28.4008 28.1496L28.6432 27.6506H27.203H25.7628V28.1496ZM33.082 27.7864C32.6941 27.9125 32.6942 27.9126 33.4458 27.9946C34.7945 28.1415 36.1602 28.9782 36.9679 30.1524C37.3814 30.7533 37.7397 31.8402 37.7397 32.4932C37.7397 33.1727 37.9074 33.0055 38.0585 32.1755C38.3637 30.4993 37.5201 28.8029 35.9979 28.0316C35.4555 27.7568 35.2084 27.7025 34.4128 27.6832C33.8943 27.6705 33.2955 27.717 33.082 27.7864ZM23.3024 30.8298L22.563 31.5691L22.1629 31.2179C21.6924 30.8048 21.6212 30.7941 21.3244 31.0909C21.1578 31.2575 21.1271 31.3657 21.205 31.5115C21.3547 31.7911 22.4013 32.7518 22.5563 32.7518C22.7356 32.7518 24.6351 30.8785 24.7168 30.621C24.7533 30.5063 24.7229 30.3399 24.6494 30.2513C24.3877 29.9361 24.052 30.0801 23.3024 30.8298ZM25.7628 32.1974V32.7518H26.6984H27.6341L27.5762 32.336C27.4777 31.6292 27.4969 31.6429 26.598 31.6429H25.7628V32.1974ZM23.3523 34.8831L22.5519 35.6836L22.1692 35.3127C21.8643 35.0173 21.7284 34.9563 21.5012 35.0134C21.2808 35.0686 21.216 35.1547 21.216 35.392C21.216 35.7904 22.1525 36.7441 22.5439 36.7441C22.8533 36.7441 24.7647 34.9079 24.7647 34.6106C24.7647 34.4012 24.4749 34.0826 24.2845 34.0826C24.2121 34.0826 23.7926 34.4428 23.3523 34.8831ZM25.7628 36.2451V36.7441H27.8657H29.9686L29.4836 36.2451L28.9985 35.7461H27.3807H25.7628V36.2451Z"/></svg>