<svg viewBox="0 0 60 61" fill="currentcolor" xmlns="http://www.w3.org/2000/svg"><path fill-rule="evenodd" clip-rule="evenodd" d="M28.6877 12.1678C25.5929 12.3406 22.7142 13.2821 20.1192 14.9703C18.1344 16.2616 16.3462 18.0498 15.055 20.0345C13.5116 22.4069 12.6187 24.937 12.3139 27.8018C12.2183 28.7005 12.2183 30.3677 12.3139 31.2664C12.6187 34.1312 13.5116 36.6613 15.055 39.0337C16.3462 41.0184 18.1344 42.8067 20.1192 44.0979C22.1385 45.4116 24.3679 46.2869 26.6955 46.6798C28.5557 46.9938 30.6819 46.9938 32.542 46.6798C35.5469 46.1726 38.3926 44.8577 40.7703 42.8779C41.6518 42.1439 42.8291 40.9027 43.5539 39.9431C45.1556 37.8227 46.3188 35.1109 46.7648 32.4573C47.0784 30.5921 47.0784 28.4762 46.7648 26.6109C46.2615 23.6164 44.9409 20.7585 42.9626 18.3826C42.4872 17.8116 41.4957 16.8141 40.9002 16.3075C38.7492 14.4777 36.3429 13.2568 33.603 12.6049C32.092 12.2455 30.2429 12.081 28.6877 12.1678ZM31.3727 13.7037C35.8081 14.2095 39.7538 16.488 42.4325 20.0901C43.9384 22.1152 44.9635 24.5619 45.3551 27.0656C45.5978 28.6178 45.5978 30.4504 45.3551 32.0026C44.6453 36.5417 41.9652 40.5824 38.021 43.0599C37.3648 43.4721 36.1664 44.0736 35.4002 44.3753C32.8891 45.3641 30.0238 45.6912 27.3319 45.2963C23.1231 44.6789 19.3686 42.4254 16.805 38.9781C15.298 36.9516 14.2742 34.508 13.8824 32.0026C13.6397 30.4504 13.6397 28.6178 13.8824 27.0656C14.5448 22.83 16.9026 19.0493 20.4679 16.5063C21.7535 15.5893 23.456 14.7559 24.9849 14.295C26.2099 13.9258 27.2638 13.7389 28.7743 13.6229C29.1996 13.5902 30.8196 13.6406 31.3727 13.7037ZM28.8825 17.3848C28.8468 17.3934 28.6714 17.4238 28.4928 17.4524C27.4263 17.6231 26.3157 18.1808 25.504 18.9532C24.7289 19.6908 24.2889 20.4404 23.9983 21.5187C23.8885 21.9257 23.8861 21.9669 23.8692 23.6552L23.852 25.3766H22.3397H20.8275V31.8294V38.2821H29.5538H38.2801V31.8294V25.3766H36.7903H35.3004L35.2793 23.6985C35.2632 22.4216 35.2424 21.9471 35.192 21.7139C34.737 19.6051 33.1147 18.0176 30.8747 17.4891C30.5996 17.4242 30.3096 17.3981 29.727 17.3858C29.2983 17.3768 28.9183 17.3763 28.8825 17.3848ZM30.271 18.9002C31.6607 19.1097 32.8876 19.9898 33.4489 21.1797C33.7446 21.8067 33.749 21.8419 33.7658 23.6985L33.7809 25.3766H29.5518H25.3226L25.3429 23.7851C25.3611 22.3577 25.3724 22.1579 25.4527 21.8471C25.63 21.161 25.957 20.5946 26.4677 20.0889C27.4462 19.1201 28.8398 18.6845 30.271 18.9002ZM37.0136 31.8402L37.0026 37.0045L29.5646 37.0155L22.1267 37.0264V31.8512V26.6759H29.5756H37.0246L37.0136 31.8402ZM29.0903 29.5659C28.0363 29.9618 27.7202 31.2523 28.4731 32.0857C28.5559 32.1773 28.7299 32.308 28.8598 32.3759L29.0959 32.4996L29.1083 33.9826L29.1207 35.4656L29.2623 35.6071C29.3799 35.7246 29.4366 35.7486 29.5971 35.7486C29.7576 35.7486 29.8143 35.7246 29.9319 35.6071L30.0735 35.4656L30.0859 33.9826L30.0983 32.4996L30.3344 32.3759C30.6113 32.231 30.8243 32.0088 30.9922 31.6902C31.1009 31.4837 31.1127 31.4187 31.1123 31.0282C31.1119 30.6608 31.0963 30.5637 31.0095 30.3881C30.8569 30.0794 30.5702 29.7854 30.2833 29.6436C29.9558 29.4816 29.4093 29.446 29.0903 29.5659Z"/></svg>