<svg viewBox="0 0 60 61" fill="currentColor" xmlns="http://www.w3.org/2000/svg"><path fill-rule="evenodd" clip-rule="evenodd" d="M24.6714 13.9218C21.5908 14.287 19.3627 15.3204 17.3791 17.304C15.5946 19.0884 14.4913 21.2789 14.0798 23.8542C13.973 24.5226 13.9735 26.4826 14.0808 27.1455C14.5014 29.7459 15.5743 31.8832 17.3597 33.6777C18.3724 34.6955 19.3245 35.3695 20.6136 35.9812C24.2411 37.7027 28.4684 37.4345 31.8474 35.2687L32.3054 34.9751L33.0337 35.7014L33.762 36.4276L33.4819 36.7478C33.1643 37.1108 33.1 37.321 33.2214 37.6C33.2676 37.7065 35.247 39.7269 37.62 42.0899C41.8129 46.2653 41.9475 46.3922 42.4029 46.5966C43.3629 47.0275 44.2875 47.0103 45.2287 46.5439C46.7726 45.7788 47.3991 43.9484 46.6717 42.3279C46.467 41.872 46.343 41.7407 42.1339 37.5194C39.1978 34.5749 37.7417 33.1582 37.6049 33.113C37.3461 33.0276 37.1745 33.0942 36.7987 33.4263L36.5031 33.6874L35.7766 32.9588L35.0501 32.2303L35.3438 31.7723C37.5086 28.3948 37.7788 24.1308 36.0558 20.5338C35.4326 19.2327 34.7674 18.2942 33.7528 17.2846C31.9711 15.512 29.8052 14.4217 27.2528 14.0126C26.7998 13.94 25.0401 13.8781 24.6714 13.9218ZM26.6167 15.2417C28.9871 15.4803 31.1433 16.5046 32.8521 18.2036C37.6359 22.96 36.6255 30.9411 30.8022 34.3951C26.348 37.037 20.529 35.8925 17.3753 31.7541C14.5621 28.0627 14.5622 22.9365 17.3753 19.2456C19.5428 16.4019 23.0497 14.8825 26.6167 15.2417ZM24.3357 16.5637C20.1776 17.1308 17.0001 20.478 16.5978 24.7148C16.3104 27.7416 17.652 30.7935 20.0895 32.658C24.803 36.2636 31.6148 34.4395 33.9038 28.9587C34.8175 26.7711 34.8161 24.2252 33.9 22.0317C32.3192 18.2467 28.4049 16.0088 24.3357 16.5637ZM27.0915 17.9159C29.3957 18.3968 31.3169 19.8341 32.4033 21.8896C33.0356 23.086 33.2844 24.1051 33.2844 25.4999C33.2844 26.8804 33.0387 27.8983 32.4182 29.0892C30.4868 32.7958 25.9492 34.2826 22.1869 32.4418C19.9964 31.3701 18.4999 29.4264 17.983 26.9819C17.844 26.3249 17.8278 24.7826 17.9532 24.1446C18.7043 20.321 21.9616 17.67 25.7685 17.7839C26.2122 17.7972 26.8075 17.8566 27.0915 17.9159ZM24.5119 19.1427C22.8268 19.4362 21.3153 20.3845 20.3284 21.7675C19.984 22.2501 19.5176 23.2007 19.4644 23.5283C19.3954 23.9541 19.7905 24.3355 20.2062 24.2441C20.4648 24.1874 20.6286 23.993 20.822 23.5137C21.168 22.6558 21.9162 21.7557 22.7402 21.2061C23.4665 20.7216 24.293 20.4371 25.1792 20.3664C25.7979 20.317 26.0081 20.2376 26.1265 20.0086C26.2676 19.7357 26.2405 19.5228 26.0352 19.2931C25.8678 19.1057 25.8107 19.0843 25.4382 19.0695C25.2117 19.0605 24.7948 19.0935 24.5119 19.1427ZM19.3747 25.753C18.9682 26.1595 19.2464 26.812 19.826 26.812C20.2782 26.812 20.5753 26.3402 20.381 25.9307C20.1888 25.5257 19.69 25.4376 19.3747 25.753ZM35.1419 35.0661L34.6748 35.5332L33.9971 34.8578L33.3194 34.1823L33.786 33.7125L34.2528 33.2427L34.9309 33.9209L35.6091 34.599L35.1419 35.0661ZM38.3695 35.5518L39.2559 36.4398L37.884 37.8106L36.512 39.1814L35.61 38.2776L34.7079 37.3739L36.0618 36.0188C36.8065 35.2735 37.4309 34.6637 37.4495 34.6637C37.468 34.6637 37.882 35.0633 38.3695 35.5518ZM45.5274 42.8918C45.7283 43.3321 45.7328 44.0554 45.5373 44.4825C45.2218 45.1717 44.5643 45.596 43.8058 45.5999C42.9387 45.6044 43.0139 45.6621 40.078 42.7391L37.4473 40.1199L38.8196 38.7461L40.1919 37.3722L42.7861 39.9707C44.8542 42.0423 45.41 42.6346 45.5274 42.8918Z" fill="currentColor"/></svg>