<svg viewBox="0 0 60 60" fill="currentcolor" xmlns="http://www.w3.org/2000/svg"><path fill-rule="evenodd" clip-rule="evenodd" d="M22.3924 15.6931C20.8903 15.8741 19.6766 16.8675 19.1633 18.3362L19.0172 18.754L19.0036 29.896C18.9936 38.1117 19.0039 41.1104 19.0426 41.3141C19.3331 42.8389 20.5112 44.0299 22.0522 44.3564C22.5355 44.4588 32.2245 44.4559 32.7127 44.3532C34.1252 44.0561 35.2843 42.9432 35.6395 41.5431C35.7517 41.1005 35.7531 41.0711 35.7531 39.0769V37.0586L35.6115 36.8972C35.4334 36.6944 35.2278 36.6479 34.9958 36.758C34.6929 36.9017 34.6941 36.8933 34.6941 38.9136C34.6941 40.8875 34.6653 41.2052 34.4422 41.6926C34.3093 41.9829 33.9746 42.4666 33.8119 42.6033C33.3692 42.9756 32.9502 43.187 32.4466 43.2925C32.0274 43.3802 22.7736 43.3999 22.3459 43.3139C21.3472 43.1132 20.5501 42.4293 20.2016 41.4741L20.0761 41.13L20.064 30.2065C20.0535 20.6999 20.0608 19.2405 20.1202 18.9557C20.316 18.0168 21.0186 17.2347 21.9638 16.9034L22.3321 16.7743L27.2211 16.7615C31.4306 16.7506 32.1564 16.7585 32.4425 16.8181C33.2917 16.9952 33.9903 17.5282 34.3673 18.2868C34.6694 18.8946 34.6941 19.1113 34.6941 21.1508V22.9299L34.8507 23.0865C35.0762 23.312 35.371 23.312 35.5965 23.0865L35.7531 22.9299L35.7528 20.9801C35.7525 19.1989 35.7446 18.9975 35.6616 18.6515C35.3151 17.2062 34.2103 16.1168 32.7211 15.7521C32.4497 15.6856 31.8656 15.6759 27.5578 15.6665C24.8862 15.6607 22.5619 15.6726 22.3924 15.6931ZM43.6491 19.2554C43.4601 19.3428 42.425 20.2199 42.3257 20.3768C42.1537 20.6484 42.25 20.9828 42.5409 21.1236C42.7875 21.243 42.99 21.1918 43.2918 20.9338C43.4124 20.8308 43.5634 20.7022 43.6276 20.6481C44.255 20.1181 44.3534 20.0157 44.3821 19.8621C44.4607 19.4433 44.024 19.0818 43.6491 19.2554ZM21.1765 19.5782C20.9467 19.8079 20.9499 20.1044 21.1844 20.3255L21.3488 20.4806H27.3331C33.9064 20.4806 33.5064 20.4979 33.6574 20.2058C33.7783 19.9721 33.7485 19.7559 33.5707 19.5782L33.4142 19.4216H27.3736H21.333L21.1765 19.5782ZM41.1169 21.4085C41.0057 21.439 40.3101 21.992 39.4824 22.7077C39.4191 22.7625 38.9269 23.1766 38.3886 23.6279C37.8503 24.0792 37.379 24.4927 37.3412 24.5466C37.3034 24.6006 37.2724 24.7312 37.2724 24.8368C37.2724 25.274 37.8502 25.5279 38.1737 25.2329C38.2224 25.1884 38.6042 24.8666 39.022 24.5176C39.4398 24.1687 39.8231 23.8463 39.8738 23.801C39.9244 23.7559 40.2248 23.5048 40.5414 23.243C40.8579 22.9813 41.1927 22.6957 41.2854 22.6085C41.3944 22.5057 41.4756 22.4623 41.5156 22.4855C41.5495 22.5051 41.5622 22.5045 41.5438 22.4841C41.5254 22.4637 41.572 22.3768 41.6474 22.2909C41.9987 21.8908 41.6247 21.2687 41.1169 21.4085ZM30.7806 23.4555C29.7494 23.5817 28.8133 23.9307 27.9327 24.5172C25.6477 26.0389 24.5733 28.8033 25.2374 31.4521C25.4096 32.139 25.735 32.906 26.047 33.3609C26.121 33.4688 26.1685 33.578 26.1526 33.6038C26.1367 33.6295 26.1423 33.6449 26.1652 33.6379C26.188 33.631 26.3741 33.8221 26.5787 34.0627C28.8324 36.7122 32.7308 37.1268 35.4542 35.0066C37.8824 33.1163 38.6592 29.8251 37.3234 27.0874C36.4365 25.2697 34.8124 23.9937 32.8333 23.5595C32.4256 23.47 31.1783 23.4069 30.7806 23.4555ZM45.721 24.3075C44.8572 24.6266 44.7311 24.7233 44.7311 25.067C44.7311 25.2456 44.7551 25.3021 44.8876 25.4346C45.1024 25.6494 45.2694 25.6409 45.9769 25.3795C46.292 25.263 46.6163 25.1459 46.6976 25.119C47.2005 24.9532 47.254 24.2899 46.7804 24.092C46.5599 23.9999 46.5466 24.0026 45.721 24.3075ZM31.9582 24.5353C34.623 24.7962 36.6054 26.7744 36.8629 29.4293C37.0989 31.8633 35.5268 34.2512 33.1978 34.9962C32.5126 35.2154 32.3599 35.2368 31.4943 35.2349C30.7399 35.2333 30.6222 35.2217 30.1825 35.106C28.7483 34.7284 27.4662 33.7279 26.7808 32.4512C24.9583 29.0567 27.1802 24.9061 31.0179 24.5358C31.2293 24.5154 31.4141 24.4958 31.4287 24.4924C31.4433 24.4889 31.6816 24.5083 31.9582 24.5353ZM31.1426 25.123C31.0204 25.2322 30.9933 25.2942 30.9759 25.5047L30.955 25.756L30.6523 25.8616C30.2463 26.0033 29.9346 26.2104 29.6296 26.541C29.1711 27.0381 29.0041 27.5245 29.0421 28.2522C29.0629 28.6481 29.0815 28.7179 29.2613 29.0725C29.56 29.6616 30.1174 30.1339 30.7231 30.3112L30.9648 30.382V31.6238C30.9648 32.475 30.9493 32.8656 30.9156 32.8656C30.809 32.8656 30.4534 32.5757 30.3172 32.3777C30.2172 32.2324 30.1557 32.0674 30.1157 31.8366C30.0437 31.4221 29.9955 31.3314 29.7969 31.2371C29.3733 31.0361 29.0305 31.2954 29.0316 31.8159C29.0337 32.7455 29.7851 33.6782 30.7691 33.9727C30.9558 34.0285 30.9648 34.0395 30.9648 34.2104C30.9648 34.5557 31.1844 34.7993 31.4957 34.7993C31.8416 34.7993 32.0687 34.5464 32.0703 34.1594C32.0707 34.0528 32.1084 34.0256 32.4125 33.9116C34.0764 33.288 34.5342 31.3212 33.3021 30.0892C32.9961 29.7832 32.5617 29.526 32.1957 29.4341L32.0698 29.4025V28.1644C32.0698 27.204 32.0827 26.9266 32.1274 26.9275C32.2451 26.9298 32.6205 27.2521 32.737 27.451C32.8062 27.569 32.8784 27.7907 32.9064 27.9707C32.9662 28.3559 33.0749 28.5197 33.3136 28.584C33.6856 28.6842 34.0039 28.4208 34.003 28.0136C34.0009 27.0934 33.3185 26.1884 32.3801 25.8609C32.1282 25.7729 32.0698 25.7341 32.0698 25.6546C32.0698 25.2445 31.8585 24.9926 31.5145 24.9926C31.3315 24.9926 31.2608 25.0174 31.1426 25.123ZM43.1596 25.2442C43.1478 25.256 42.9113 25.3466 42.634 25.4455C39.4957 26.5652 38.8465 26.8135 38.7493 26.9311C38.4594 27.2821 38.6956 27.8021 39.1442 27.8004C39.3493 27.7997 39.2132 27.8452 41.3471 27.0636C42.2587 26.7298 43.1533 26.4055 43.3352 26.3431C43.842 26.169 44.0203 25.9257 43.9026 25.569C43.8263 25.3376 43.6587 25.2228 43.3974 25.2228C43.2784 25.2228 43.1714 25.2324 43.1596 25.2442ZM30.9648 28.0773C30.9648 28.7199 30.9467 29.2284 30.9238 29.2284C30.8053 29.2284 30.4195 28.8959 30.2908 28.6829C29.9517 28.1218 30.0974 27.4646 30.6496 27.0646C30.9761 26.8281 30.9648 26.7916 30.9648 28.0773ZM39.3673 29.5747C39.1449 29.6887 39.068 29.8127 39.068 30.0573C39.068 30.3252 39.2382 30.54 39.486 30.5851C39.5727 30.6009 40.6966 30.6077 41.9837 30.6002L44.3239 30.5866L44.4814 30.4146C44.7018 30.1741 44.7018 29.9401 44.4814 29.6996L44.3239 29.5276L41.9146 29.5157C39.8213 29.5054 39.4873 29.5131 39.3673 29.5747ZM45.851 29.5718C45.5833 29.6883 45.4621 30.0647 45.6059 30.3334C45.7331 30.5711 45.8905 30.6092 46.7469 30.6094C47.8114 30.6096 48 30.5265 48 30.0571C48 29.8067 47.9067 29.6568 47.6962 29.5688C47.4817 29.4791 46.0587 29.4814 45.851 29.5718ZM32.2225 30.6163C33.0624 31.0564 33.1363 32.2097 32.3576 32.7255C32.2413 32.8025 32.1289 32.8656 32.108 32.8656C32.087 32.8656 32.0698 32.3476 32.0698 31.7146C32.0698 31.0815 32.0815 30.5635 32.0959 30.5635C32.1102 30.5635 32.1671 30.5873 32.2225 30.6163ZM38.9423 32.0131C38.7257 32.1072 38.5965 32.3364 38.6308 32.5658C38.6699 32.8271 38.7954 32.9346 39.271 33.1144C40.3363 33.5168 40.4795 33.57 40.5874 33.6036C40.6507 33.6233 40.8993 33.7112 41.1399 33.7989C43.5842 34.6905 43.5144 34.6737 43.7589 34.4292C44.0431 34.1451 43.9728 33.7345 43.6103 33.5605C43.2702 33.3974 39.2499 31.9434 39.1478 31.9466C39.1166 31.9476 39.0241 31.9775 38.9423 32.0131ZM45.0725 34.2202C44.6718 34.3947 44.6058 34.9447 44.9597 35.16C45.0361 35.2064 45.4274 35.3622 45.8292 35.5062C46.5239 35.7552 46.5685 35.7652 46.7372 35.7096C47.277 35.5317 47.2212 34.8572 46.6492 34.6458C46.0348 34.4189 45.2801 34.155 45.2498 34.1565C45.2304 34.1576 45.1506 34.1862 45.0725 34.2202ZM37.4275 34.5954C37.3054 34.7248 37.2724 34.7985 37.2724 34.9414C37.2724 35.2386 37.1968 35.1634 39.045 36.7063C39.3489 36.96 39.7439 37.2925 39.9227 37.4453C40.4528 37.8978 40.5088 37.9447 40.7265 38.1181C41.0123 38.3458 41.1069 38.3905 41.3026 38.3905C41.6894 38.3905 41.9357 37.8585 41.6922 37.549C41.6415 37.4845 41.2954 37.1761 40.9232 36.8637C40.5509 36.5513 39.8931 35.998 39.4615 35.634C38.0503 34.4443 38.0317 34.431 37.7928 34.431C37.6114 34.431 37.5613 34.4535 37.4275 34.5954ZM42.5418 38.6461C42.2663 38.7821 42.1608 39.1566 42.3257 39.4134C42.4529 39.6115 43.5727 40.5165 43.7352 40.5525C44.0522 40.6228 44.3288 40.437 44.3895 40.1132C44.4339 39.8768 44.3035 39.6901 43.8103 39.2838C43.5697 39.0857 43.3213 38.8761 43.2583 38.8182C43.0049 38.5853 42.7762 38.5304 42.5418 38.6461ZM21.1765 40.2966C20.914 40.5592 20.9721 40.9624 21.2967 41.1302C21.4997 41.2352 33.2495 41.2342 33.4525 41.1292C33.7012 41.0006 33.7941 40.6792 33.6585 40.4168C33.5044 40.1188 33.9881 40.1401 27.3587 40.1401H21.333L21.1765 40.2966Z"/></svg>