<svg viewBox="0 0 60 61" fill="currentColor" xmlns="http://www.w3.org/2000/svg"><path fill-rule="evenodd" clip-rule="evenodd" d="M22.3924 15.9318C20.8903 16.1129 19.6766 17.1063 19.1633 18.5749L19.0172 18.9928L19.0036 30.1347C18.9936 38.3505 19.0039 41.3492 19.0426 41.5529C19.3331 43.0777 20.5112 44.2686 22.0522 44.5952C22.5355 44.6976 32.2245 44.6947 32.7127 44.592C34.1252 44.2948 35.2843 43.182 35.6395 41.7819C35.7517 41.3392 35.7531 41.3099 35.7531 39.3156V37.2973L35.6115 37.136C35.4334 36.9332 35.2278 36.8867 34.9958 36.9968C34.6929 37.1405 34.6941 37.1321 34.6941 39.1524C34.6941 41.1263 34.6653 41.444 34.4422 41.9314C34.3093 42.2216 33.9746 42.7054 33.8119 42.8421C33.3692 43.2143 32.9502 43.4258 32.4466 43.5312C32.0274 43.619 22.7736 43.6387 22.3459 43.5527C21.3472 43.352 20.5501 42.6681 20.2016 41.7128L20.0761 41.3687L20.064 30.4453C20.0535 20.9387 20.0608 19.4793 20.1202 19.1944C20.316 18.2556 21.0186 17.4734 21.9638 17.1421L22.3321 17.013L27.2211 17.0003C31.4306 16.9894 32.1564 16.9972 32.4425 17.0569C33.2917 17.2339 33.9903 17.7669 34.3673 18.5256C34.6694 19.1334 34.6941 19.3501 34.6941 21.3896V23.1687L34.8507 23.3253C35.0762 23.5508 35.371 23.5508 35.5965 23.3253L35.7531 23.1687L35.7528 21.2189C35.7525 19.4376 35.7446 19.2363 35.6616 18.8903C35.3151 17.4449 34.2103 16.3556 32.7211 15.9908C32.4497 15.9243 31.8656 15.9147 27.5578 15.9053C24.8862 15.8995 22.5619 15.9114 22.3924 15.9318ZM43.6491 19.4941C43.4601 19.5816 42.425 20.4587 42.3257 20.6156C42.1537 20.8871 42.25 21.2215 42.5409 21.3623C42.7875 21.4817 42.99 21.4306 43.2918 21.1726C43.4124 21.0696 43.5634 20.941 43.6276 20.8869C44.255 20.3568 44.3534 20.2545 44.3821 20.1009C44.4607 19.6821 44.024 19.3206 43.6491 19.4941ZM21.1765 19.8169C20.9467 20.0467 20.9499 20.3431 21.1844 20.5643L21.3488 20.7193H27.3331C33.9064 20.7193 33.5064 20.7367 33.6574 20.4446C33.7783 20.2109 33.7485 19.9946 33.5707 19.8169L33.4142 19.6604H27.3736H21.333L21.1765 19.8169ZM41.1169 21.6472C41.0057 21.6778 40.3101 22.2308 39.4824 22.9465C39.4191 23.0013 38.9269 23.4154 38.3886 23.8667C37.8503 24.318 37.379 24.7314 37.3412 24.7854C37.3034 24.8394 37.2724 24.9699 37.2724 25.0756C37.2724 25.5128 37.8502 25.7667 38.1737 25.4716C38.2224 25.4272 38.6042 25.1053 39.022 24.7564C39.4398 24.4075 39.8231 24.085 39.8738 24.0398C39.9244 23.9946 40.2248 23.7435 40.5414 23.4818C40.8579 23.2201 41.1927 22.9345 41.2854 22.8473C41.3944 22.7445 41.4756 22.7011 41.5156 22.7242C41.5495 22.7438 41.5622 22.7432 41.5438 22.7229C41.5254 22.7025 41.572 22.6156 41.6474 22.5297C41.9987 22.1296 41.6247 21.5075 41.1169 21.6472ZM30.7806 23.6943C29.7494 23.8205 28.8133 24.1695 27.9327 24.7559C25.6477 26.2776 24.5733 29.0421 25.2374 31.6909C25.4096 32.3778 25.735 33.1447 26.047 33.5997C26.121 33.7076 26.1685 33.8168 26.1526 33.8425C26.1367 33.8683 26.1423 33.8837 26.1652 33.8767C26.188 33.8698 26.3741 34.0609 26.5787 34.3014C28.8324 36.951 32.7308 37.3656 35.4542 35.2454C37.8824 33.3551 38.6592 30.0639 37.3234 27.3262C36.4365 25.5085 34.8124 24.2324 32.8333 23.7983C32.4256 23.7088 31.1783 23.6457 30.7806 23.6943ZM45.721 24.5463C44.8572 24.8653 44.7311 24.9621 44.7311 25.3058C44.7311 25.4844 44.7551 25.5408 44.8876 25.6733C45.1024 25.8881 45.2694 25.8797 45.9769 25.6182C46.292 25.5018 46.6163 25.3846 46.6976 25.3578C47.2005 25.192 47.254 24.5287 46.7804 24.3308C46.5599 24.2387 46.5466 24.2413 45.721 24.5463ZM31.9582 24.7741C34.623 25.035 36.6054 27.0131 36.8629 29.6681C37.0989 32.1021 35.5268 34.49 33.1978 35.235C32.5126 35.4542 32.3599 35.4756 31.4943 35.4737C30.7399 35.472 30.6222 35.4605 30.1825 35.3447C28.7483 34.9672 27.4662 33.9666 26.7808 32.69C24.9583 29.2955 27.1802 25.1449 31.0179 24.7745C31.2293 24.7541 31.4141 24.7346 31.4287 24.7312C31.4433 24.7277 31.6816 24.747 31.9582 24.7741ZM31.1426 25.3617C31.0204 25.4709 30.9933 25.533 30.9759 25.7434L30.955 25.9948L30.6523 26.1004C30.2463 26.2421 29.9346 26.4491 29.6296 26.7798C29.1711 27.2769 29.0041 27.7632 29.0421 28.491C29.0629 28.8869 29.0815 28.9566 29.2613 29.3113C29.56 29.9004 30.1174 30.3727 30.7231 30.55L30.9648 30.6207V31.8626C30.9648 32.7138 30.9493 33.1044 30.9156 33.1044C30.809 33.1044 30.4534 32.8144 30.3172 32.6165C30.2172 32.4712 30.1557 32.3062 30.1157 32.0754C30.0437 31.6608 29.9955 31.5701 29.7969 31.4759C29.3733 31.2749 29.0305 31.5342 29.0316 32.0546C29.0337 32.9842 29.7851 33.9169 30.7691 34.2114C30.9558 34.2673 30.9648 34.2782 30.9648 34.4491C30.9648 34.7945 31.1844 35.0381 31.4957 35.0381C31.8416 35.0381 32.0687 34.7851 32.0703 34.3982C32.0707 34.2916 32.1084 34.2643 32.4125 34.1504C34.0764 33.5268 34.5342 31.56 33.3021 30.328C32.9961 30.0219 32.5617 29.7648 32.1957 29.6729L32.0698 29.6413V28.4032C32.0698 27.4428 32.0827 27.1654 32.1274 27.1662C32.2451 27.1686 32.6205 27.4909 32.737 27.6898C32.8062 27.8078 32.8784 28.0295 32.9064 28.2094C32.9662 28.5946 33.0749 28.7585 33.3136 28.8227C33.6856 28.9229 34.0039 28.6596 34.003 28.2523C34.0009 27.3322 33.3185 26.4271 32.3801 26.0996C32.1282 26.0117 32.0698 25.9729 32.0698 25.8933C32.0698 25.4832 31.8585 25.2314 31.5145 25.2314C31.3315 25.2314 31.2608 25.2561 31.1426 25.3617ZM43.1596 25.483C43.1478 25.4948 42.9113 25.5854 42.634 25.6843C39.4957 26.804 38.8465 27.0522 38.7493 27.1699C38.4594 27.5209 38.6956 28.0409 39.1442 28.0392C39.3493 28.0384 39.2132 28.084 41.3471 27.3024C42.2587 26.9685 43.1533 26.6443 43.3352 26.5818C43.842 26.4078 44.0203 26.1645 43.9026 25.8077C43.8263 25.5764 43.6587 25.4616 43.3974 25.4616C43.2784 25.4616 43.1714 25.4712 43.1596 25.483ZM30.9648 28.3161C30.9648 28.9587 30.9467 29.4671 30.9238 29.4671C30.8053 29.4671 30.4195 29.1347 30.2908 28.9217C29.9517 28.3605 30.0974 27.7034 30.6496 27.3034C30.9761 27.0668 30.9648 27.0304 30.9648 28.3161ZM39.3673 29.8134C39.1449 29.9274 39.068 30.0515 39.068 30.2961C39.068 30.564 39.2382 30.7787 39.486 30.8239C39.5727 30.8397 40.6966 30.8464 41.9837 30.8389L44.3239 30.8253L44.4814 30.6534C44.7018 30.4129 44.7018 30.1788 44.4814 29.9384L44.3239 29.7664L41.9146 29.7545C39.8213 29.7442 39.4873 29.7519 39.3673 29.8134ZM45.851 29.8105C45.5833 29.927 45.4621 30.3035 45.6059 30.5722C45.7331 30.8099 45.8905 30.848 46.7469 30.8482C47.8114 30.8484 48 30.7653 48 30.2959C48 30.0454 47.9067 29.8955 47.6962 29.8076C47.4817 29.7179 46.0587 29.7202 45.851 29.8105ZM32.2225 30.855C33.0624 31.2952 33.1363 32.4485 32.3576 32.9642C32.2413 33.0413 32.1289 33.1044 32.108 33.1044C32.087 33.1044 32.0698 32.5864 32.0698 31.9533C32.0698 31.3203 32.0815 30.8023 32.0959 30.8023C32.1102 30.8023 32.1671 30.826 32.2225 30.855ZM38.9423 32.2518C38.7257 32.346 38.5965 32.5752 38.6308 32.8046C38.6699 33.0659 38.7954 33.1734 39.271 33.3531C40.3363 33.7556 40.4795 33.8088 40.5874 33.8424C40.6507 33.8621 40.8993 33.95 41.1399 34.0377C43.5842 34.9293 43.5144 34.9125 43.7589 34.668C44.0431 34.3839 43.9728 33.9733 43.6103 33.7993C43.2702 33.6361 39.2499 32.1821 39.1478 32.1853C39.1166 32.1864 39.0241 32.2162 38.9423 32.2518ZM45.0725 34.4589C44.6718 34.6334 44.6058 35.1835 44.9597 35.3987C45.0361 35.4452 45.4274 35.601 45.8292 35.745C46.5239 35.994 46.5685 36.0039 46.7372 35.9483C47.277 35.7704 47.2212 35.0959 46.6492 34.8846C46.0348 34.6577 45.2801 34.3937 45.2498 34.3953C45.2304 34.3963 45.1506 34.425 45.0725 34.4589ZM37.4275 34.8342C37.3054 34.9636 37.2724 35.0373 37.2724 35.1801C37.2724 35.4774 37.1968 35.4021 39.045 36.9451C39.3489 37.1988 39.7439 37.5313 39.9227 37.684C40.4528 38.1366 40.5088 38.1834 40.7265 38.3569C41.0123 38.5846 41.1069 38.6293 41.3026 38.6293C41.6894 38.6293 41.9357 38.0973 41.6922 37.7878C41.6415 37.7233 41.2954 37.4149 40.9232 37.1025C40.5509 36.79 39.8931 36.2367 39.4615 35.8728C38.0503 34.6831 38.0317 34.6698 37.7928 34.6698C37.6114 34.6698 37.5613 34.6923 37.4275 34.8342ZM42.5418 38.8849C42.2663 39.0209 42.1608 39.3954 42.3257 39.6522C42.4529 39.8503 43.5727 40.7553 43.7352 40.7913C44.0522 40.8615 44.3288 40.6758 44.3895 40.352C44.4339 40.1156 44.3035 39.9288 43.8103 39.5226C43.5697 39.3244 43.3213 39.1149 43.2583 39.057C43.0049 38.8241 42.7762 38.7692 42.5418 38.8849ZM21.1765 40.5354C20.914 40.7979 20.9721 41.2011 21.2967 41.369C21.4997 41.474 33.2495 41.473 33.4525 41.368C33.7012 41.2394 33.7941 40.9179 33.6585 40.6556C33.5044 40.3576 33.9881 40.3789 27.3587 40.3789H21.333L21.1765 40.5354Z" fill="currentColor"/></svg>