<svg viewBox="0 0 60 60" fill="currentcolor" xmlns="http://www.w3.org/2000/svg"><path fill-rule="evenodd" clip-rule="evenodd" d="M23.0196 14.3477C22.663 14.4574 22.1851 14.901 22.0129 15.2821L21.8792 15.5779L21.864 22.102L21.8489 28.6261L21.6395 28.6243C21.3098 28.6215 21.1215 28.413 21.1215 28.0505C21.1215 27.5521 20.7637 26.9965 20.2936 26.765C20.0542 26.6471 19.9503 26.6338 19.2695 26.6338C18.5331 26.6338 18.5033 26.6385 18.206 26.8021C17.817 27.0162 17.5487 27.3807 17.471 27.8008C17.4353 27.9941 17.4198 29.2506 17.4297 31.1447L17.4456 34.179L17.5735 34.3068L17.7013 34.4346H29.5959H41.4904L41.6183 34.3068L41.7461 34.179L41.762 31.1447C41.7719 29.2506 41.7564 27.9941 41.7207 27.8008C41.643 27.3807 41.3747 27.0162 40.9857 26.8021L40.6798 26.6338H39.5293C38.259 26.6338 38.1628 26.6538 37.7681 27.0002C37.5074 27.2292 37.3477 27.5351 37.3079 27.8823C37.2401 28.472 37.1284 28.6261 36.7688 28.6261H36.5549L36.5544 24.3188L36.5539 20.0115L36.1821 19.6186C35.7718 19.1852 31.6383 14.95 31.2113 14.5256L30.9432 14.259L27.1127 14.263C23.9456 14.2662 23.2367 14.2809 23.0196 14.3477ZM30.3254 17.7604C30.3254 20.2398 30.3305 20.3701 30.4327 20.4963L30.5399 20.6288L33.0984 20.6445L35.6569 20.6602V24.6431V28.6261L34.6608 28.6373C34.1129 28.6435 33.4374 28.6477 33.1596 28.6467C32.8818 28.6458 30.4258 28.6407 27.7018 28.6355L22.7491 28.6261L22.7503 22.2423C22.7515 16.0686 22.7551 15.8507 22.8593 15.6212C22.9215 15.4841 23.0455 15.3359 23.1527 15.2706C23.3336 15.1603 23.4275 15.1574 26.8319 15.1572L30.3254 15.157V17.7604ZM34.5092 19.1888C34.7546 19.4463 34.9639 19.6799 34.9741 19.7079C34.9851 19.7379 34.2144 19.7589 33.1081 19.7589H31.2234V17.7886V15.8182L32.6431 17.2694C33.4239 18.0676 34.2637 18.9314 34.5092 19.1888ZM24.4425 22.4142C24.3225 22.542 24.281 22.8143 24.3634 22.933C24.3861 22.9657 24.4671 23.0351 24.5434 23.0874C24.6708 23.1746 25.0386 23.1823 29.0387 23.1823C33.5358 23.1823 33.6887 23.175 33.8061 22.9556C33.8968 22.7862 33.8692 22.517 33.7488 22.3966C33.6384 22.2862 33.5618 22.2844 29.1005 22.2844H24.5645L24.4425 22.4142ZM24.4582 24.7231C24.291 24.8903 24.2784 25.1383 24.4278 25.3227L24.535 25.4552H29.0799C33.4705 25.4552 33.6288 25.4516 33.7429 25.3483C33.909 25.198 33.903 24.8688 33.7312 24.7073L33.6013 24.5853H29.0986H24.596L24.4582 24.7231ZM24.4582 27.0241C24.3714 27.1109 24.3205 27.226 24.3205 27.3353C24.3205 27.4446 24.3714 27.5597 24.4582 27.6465L24.596 27.7843H29.0807C33.5327 27.7843 33.5664 27.7834 33.7132 27.6679C33.9118 27.5117 33.9164 27.2172 33.7233 27.0241L33.5856 26.8863H29.0908H24.596L24.4582 27.0241ZM19.8802 27.5658C20.0987 27.642 20.2232 27.8668 20.2248 28.1883C20.2262 28.4565 20.3898 28.8641 20.5778 29.0677C20.6454 29.1409 20.8017 29.2671 20.9251 29.3484L21.1496 29.4959L29.0627 29.512C34.913 29.5238 37.0374 29.5112 37.212 29.4633C37.5077 29.3822 37.8701 29.0765 38.0208 28.7812C38.0841 28.6572 38.1499 28.4137 38.1669 28.2401C38.2353 27.5438 38.3427 27.4896 39.6053 27.5138L40.5373 27.5317L40.6927 27.6873L40.8482 27.8429V30.6898V33.5367H29.5959H18.3435V30.6944C18.3435 27.9311 18.3467 27.8486 18.4558 27.7273C18.5175 27.6588 18.6185 27.582 18.6803 27.5567C18.8477 27.4882 19.6755 27.4945 19.8802 27.5658ZM39.0454 29.8291C38.8073 29.9328 38.6875 30.1218 38.6875 30.3939C38.6875 30.6573 38.7953 30.8367 39.0248 30.9554C39.2305 31.0618 39.3798 31.0615 39.5873 30.9541C40.0364 30.7219 40.0166 30.0209 39.5555 29.8282C39.3237 29.7314 39.2697 29.7315 39.0454 29.8291ZM19.5726 30.4434C19.4769 30.4865 19.3822 30.5644 19.3621 30.6167C19.3421 30.669 19.3257 31.0857 19.3257 31.5427C19.3257 32.716 19.2221 32.6341 20.7349 32.656C22.0283 32.6747 22.1346 32.6639 22.3015 32.497C22.4022 32.3963 22.4123 32.3077 22.4123 31.5269C22.4123 30.7397 22.4027 30.6573 22.2979 30.5448C22.235 30.4772 22.1781 30.4199 22.1716 30.4173C22.1651 30.4148 21.6168 30.4021 20.9532 30.389C20.0018 30.3703 19.7098 30.3818 19.5726 30.4434ZM24.4542 31.1661C24.188 31.3059 24.1182 31.6788 24.3205 31.8811C24.431 31.9916 24.5075 31.9933 29.227 31.9933H34.0213L34.1376 31.8455C34.2906 31.651 34.2846 31.4741 34.1185 31.2809L33.983 31.1235L29.2714 31.1171C26.263 31.113 24.5217 31.1307 24.4542 31.1661ZM21.5144 31.5163V31.7689H20.869H20.2236V31.5163V31.2638H20.869H21.5144V31.5163ZM38.8515 31.7645C38.5168 32.0992 38.7064 32.7249 39.1688 32.8116C39.7629 32.923 40.1464 32.2526 39.748 31.7989C39.5924 31.6217 39.544 31.6005 39.2947 31.6005C39.061 31.6005 38.9889 31.6272 38.8515 31.7645ZM23.9721 35.4588C23.9253 35.5128 23.7543 35.8727 23.5919 36.2586C23.2013 37.1871 22.3 38.9894 21.8239 39.7942C20.4085 42.1864 18.9992 43.7386 17.5942 44.4525C17.4055 44.5483 17.2129 44.6815 17.166 44.7484C16.9641 45.0366 17.166 45.4063 17.5252 45.4063C17.9074 45.4063 18.9692 44.7273 19.7739 43.9681C21.3703 42.4621 23.0469 39.8162 24.381 36.6973C24.5637 36.27 24.7133 35.8493 24.7133 35.7625C24.7133 35.43 24.1848 35.2135 23.9721 35.4588ZM26.0965 35.4638C26.0451 35.5206 25.8775 35.9734 25.7241 36.4702C24.4334 40.6476 22.778 43.6659 21.3351 44.4729C20.889 44.7223 20.7955 44.8939 20.9438 45.1909C21.0214 45.3463 21.0732 45.3812 21.2477 45.3957C21.808 45.4421 22.9257 44.471 23.7546 43.2176C24.5313 42.0431 25.4964 39.9581 26.1575 38.0264C26.478 37.0898 26.8459 35.874 26.8459 35.7515C26.8459 35.6992 26.7936 35.5898 26.7296 35.5085C26.5857 35.3256 26.2435 35.3014 26.0965 35.4638ZM27.6496 35.4843C27.5609 35.5804 27.5069 35.7697 27.4363 36.2305C27.2041 37.7489 26.7007 39.8414 26.2559 41.1384C25.7705 42.5533 25.2903 43.5596 24.6886 44.4227C24.517 44.6688 24.3766 44.9243 24.3766 44.9904C24.3766 45.0565 24.43 45.1784 24.4952 45.2614C24.595 45.3882 24.6503 45.4095 24.844 45.3952C25.0484 45.3802 25.1026 45.3427 25.3286 45.0601C25.6249 44.6897 26.0993 43.8627 26.4389 43.1245C27.1824 41.5084 27.8385 39.2109 28.2519 36.7763C28.4245 35.7595 28.4251 35.7491 28.3207 35.5697C28.2338 35.4205 28.1761 35.3858 27.9919 35.372C27.8173 35.359 27.7423 35.3836 27.6496 35.4843ZM29.2257 35.4788C29.1226 35.5927 29.1183 35.766 29.1039 40.3525C29.0889 45.102 29.0891 45.1084 29.2061 45.2573C29.3624 45.456 29.6891 45.4654 29.8667 45.2765L29.9887 45.1465V40.3756V35.6047L29.8588 35.4826C29.6864 35.3207 29.3706 35.3188 29.2257 35.4788ZM30.8197 35.4588C30.6652 35.6386 30.6596 35.7622 30.7738 36.465C31.1293 38.6517 31.6947 40.8029 32.3422 42.4319C32.7817 43.5377 33.5943 44.9792 33.9696 45.3187C34.2178 45.5434 34.7029 45.3343 34.7029 45.0026C34.7029 44.9383 34.526 44.6203 34.3098 44.296C33.1839 42.6068 32.2308 39.771 31.6933 36.5111C31.5249 35.4896 31.4595 35.3606 31.1101 35.3606C30.9834 35.3606 30.8715 35.3984 30.8197 35.4588ZM32.3449 35.5148C32.1797 35.7248 32.2019 35.8315 32.7615 37.5166C33.9007 40.9464 35.048 43.168 36.3584 44.4818C37.2672 45.393 37.915 45.6447 38.1552 45.1801C38.2779 44.9429 38.1728 44.7027 37.8816 44.5546C36.972 44.0923 36.0985 42.9737 35.1499 41.0569C34.4493 39.6412 33.9107 38.2635 33.3527 36.4599C33.2007 35.9688 33.0343 35.5206 32.983 35.4638C32.8334 35.2985 32.4937 35.3257 32.3449 35.5148ZM34.4805 35.4987C34.3767 35.6092 34.3573 35.677 34.3834 35.838C34.4505 36.2517 35.5572 38.636 36.2432 39.8451C37.217 41.5612 38.4465 43.2006 39.4211 44.0825C40.1657 44.7562 41.2067 45.4088 41.5524 45.4187C41.7657 45.4247 41.9986 45.2147 41.9986 45.0162C41.9986 44.7846 41.8578 44.6407 41.3935 44.3979C39.7081 43.5166 37.9785 41.3514 36.326 38.0544C36.0552 37.5143 35.6901 36.7314 35.5145 36.3147C35.3389 35.898 35.1563 35.5128 35.1088 35.4588C34.9762 35.3084 34.6391 35.3298 34.4805 35.4987Z"/></svg>