<svg viewBox="0 0 60 61" fill="currentcolor" xmlns="http://www.w3.org/2000/svg"><path fill-rule="evenodd" clip-rule="evenodd" d="M26.3661 14.0112C22.8506 14.499 19.6679 16.0265 17.1467 18.4361C11.4964 23.8367 10.3657 32.3484 14.4153 38.9986C16.7965 42.9087 20.7628 45.6972 25.2404 46.6088C26.514 46.8681 27.4367 46.938 29.0274 46.8955C31.067 46.8411 32.6374 46.5462 34.3275 45.9004C34.7476 45.7399 34.8456 45.6734 34.8068 45.5757C34.78 45.508 34.6888 45.267 34.6042 45.04C34.5197 44.813 34.4424 44.6175 34.4327 44.6056C34.4229 44.5936 33.9632 44.734 33.411 44.9176C32.1213 45.3463 30.244 45.7113 29.3115 45.7148L29.1427 45.7154V30.4001V15.0847L29.7243 15.1344C31.1524 15.2566 32.4957 15.5496 33.8117 16.026L34.5345 16.2876L34.7385 15.7283C34.8507 15.4206 34.9292 15.1573 34.913 15.1431C34.8633 15.0993 33.6365 14.6668 33.12 14.511C32.4611 14.3122 31.2038 14.0654 30.3809 13.9735C29.456 13.8702 27.2321 13.891 26.3661 14.0112ZM39.4271 14.2023C38.9962 14.2888 38.4406 14.6698 38.1965 15.0463C37.8427 15.5918 37.7877 16.4407 38.0716 16.9712C38.1277 17.076 37.9274 17.3113 36.9944 18.2374L35.8482 19.375H33.3584H30.8687V19.9754V20.5757H33.6274H36.386L37.6985 19.2599C39.0099 17.9452 39.0112 17.9441 39.2903 17.9905C40.1272 18.1291 40.815 17.9192 41.2894 17.3803C41.9193 16.6647 41.9177 15.5547 41.2858 14.8367C40.809 14.2951 40.126 14.062 39.4271 14.2023ZM27.942 18.6246V22.0766H24.8652C23.1729 22.0766 21.7884 22.0638 21.7884 22.048C21.7884 21.9501 22.2281 20.882 22.545 20.2103C23.5676 18.0423 24.9878 16.359 26.397 15.6446C26.9093 15.3849 27.4835 15.1847 27.7356 15.178L27.942 15.1726V18.6246ZM40.33 15.617C40.4924 15.7794 40.5493 15.9076 40.5493 16.1106C40.5493 16.486 40.2173 16.8235 39.848 16.8235C39.4517 16.8235 39.1235 16.5171 39.1235 16.1472C39.1235 15.464 39.8553 15.1425 40.33 15.617ZM23.7668 16.1669C22.5179 17.4978 21.2644 19.6999 20.606 21.7201L20.4898 22.0766H18.0912H15.6926L15.8259 21.8702C16.4466 20.9088 17.7296 19.481 18.6986 18.6731C19.5418 17.9702 20.6302 17.2541 21.5856 16.7738C22.4155 16.3565 23.8285 15.7797 24.0318 15.7752C24.0894 15.774 23.9701 15.9502 23.7668 16.1669ZM44.9242 19.7551C44.5113 19.8352 44.3246 19.9357 43.9765 20.2656C43.4237 20.7894 43.2445 21.4176 43.4355 22.1627L43.5557 22.632L42.8607 23.3298L42.1658 24.0277H40.1175H38.0692L37.9937 23.8293C37.7398 23.1613 36.998 22.6769 36.2288 22.6769C35.6733 22.6769 35.3221 22.8113 34.9139 23.1801C33.6827 24.2924 34.3239 26.3151 35.9799 26.5428C36.7318 26.6462 37.581 26.1986 37.9298 25.5149L38.076 25.2284H40.3809H42.6858L43.5606 24.356L44.4353 23.4835L44.8774 23.5614C46.1824 23.7913 47.2221 22.9421 47.2266 21.6426C47.2309 20.4258 46.1281 19.5217 44.9242 19.7551ZM45.8082 21.1703C45.9706 21.3327 46.0275 21.4609 46.0275 21.6638C46.0275 21.8668 45.9706 21.995 45.8082 22.1574C45.5207 22.4449 45.1556 22.4543 44.8326 22.1825C44.6418 22.0219 44.6022 21.934 44.6041 21.6759C44.6076 21.2085 44.8629 20.9575 45.3392 20.9532C45.517 20.9516 45.652 21.014 45.8082 21.1703ZM20.1028 23.4086C19.9954 23.687 19.6707 25.3101 19.5359 26.2415C19.4583 26.7781 19.3538 27.7996 19.3038 28.5116L19.2128 29.8061H16.2231H13.2334L13.2338 29.5247C13.2343 29.0895 13.5042 27.3569 13.6753 26.6901C13.8731 25.9194 14.1985 24.975 14.5308 24.2078C14.9845 23.1601 14.6011 23.2773 17.5745 23.2773C19.9999 23.2773 20.1505 23.2851 20.1028 23.4086ZM27.942 26.5424V29.8075L24.2086 29.788L20.4751 29.7686L20.497 29.1682C20.5328 28.1879 20.6609 26.9018 20.8185 25.9413C20.9562 25.1027 21.3155 23.4611 21.3895 23.3336C21.4074 23.3027 22.889 23.2773 24.682 23.2773H27.942V26.5424ZM36.741 24.1075C37.0371 24.4732 36.993 24.9076 36.6325 25.176C36.034 25.6215 35.2389 24.9754 35.558 24.3029C35.6247 24.1623 35.7536 24.0095 35.8443 23.9636C36.0946 23.8366 36.5855 23.9155 36.741 24.1075ZM32.2332 28.2979C31.1508 28.6717 30.6253 29.9629 31.1373 30.9904C31.8419 32.4046 33.8996 32.4031 34.629 30.988L34.774 30.7066H36.3679H37.9618L39.4604 32.2067L40.959 33.7067L41.3546 33.3161C41.572 33.1014 41.75 32.8903 41.75 32.8473C41.75 32.8043 41.0153 32.0348 40.1172 31.1375L38.4844 29.5059H36.6046H34.7248L34.5927 29.2067C34.3532 28.6636 33.5132 28.1511 32.8735 28.1576C32.7408 28.159 32.4526 28.2221 32.2332 28.2979ZM33.1626 29.4657C33.6614 29.6741 33.7509 30.3162 33.3305 30.6699C32.9717 30.9718 32.4662 30.8861 32.2606 30.4885C32.0356 30.0534 32.1753 29.6586 32.6231 29.4637C32.9139 29.3371 32.8543 29.3369 33.1626 29.4657ZM19.2372 31.2132C19.2393 32.6073 19.6316 35.5108 20.0535 37.2542L20.1216 37.5356H17.5456H14.9695L14.6584 36.879C14.2733 36.0659 13.8293 34.7886 13.6215 33.896C13.4629 33.2146 13.2334 31.6372 13.2334 31.2281V31.0068H16.2351H19.2369L19.2372 31.2132ZM27.942 34.272V37.5372L24.6635 37.5177L21.3851 37.4981L21.2145 36.8227C20.9683 35.8484 20.6812 34.1124 20.5938 33.0705C20.4733 31.6327 20.4468 31.0976 20.4938 31.0507C20.5179 31.0265 22.2036 31.0068 24.2398 31.0068H27.942V34.272ZM46.1401 31.297C45.3822 31.6426 44.9507 32.2986 44.9493 33.108C44.9489 33.3763 44.9871 33.6667 45.0343 33.7533C45.1125 33.8968 45.0023 34.0283 43.7915 35.235L42.463 36.5591L39.4987 36.5594L36.5345 36.5596L36.3469 36.2055C35.6808 34.948 33.8957 34.8866 33.0652 36.0925C32.7916 36.4897 32.7823 36.5246 32.7823 37.1508C32.7823 37.7297 32.805 37.8362 32.9971 38.1569C33.3831 38.8015 34.0963 39.1596 34.857 39.0905C35.546 39.0281 36.1637 38.5964 36.4324 37.9895L36.5336 37.7607H39.7648H42.9959L44.4696 36.2894L45.9432 34.8181L46.2861 34.9491C47.1522 35.2798 48.257 34.7934 48.6611 33.9036C48.8825 33.4161 48.8544 32.696 48.5946 32.1986C48.1315 31.3122 47.0103 30.9003 46.1401 31.297ZM47.2298 32.4709C48.0424 32.8912 47.4482 34.1092 46.6028 33.756C46.2967 33.628 46.1776 33.4422 46.1776 33.0921C46.1776 32.5192 46.7124 32.2035 47.2298 32.4709ZM34.9976 36.5233C35.8022 36.9393 35.2242 38.1789 34.3873 37.8323C33.8319 37.6023 33.812 36.7519 34.3564 36.5147C34.6519 36.386 34.7342 36.3871 34.9976 36.5233ZM20.6561 39.2429C21.3936 41.3228 22.5003 43.2631 23.6899 44.5617C23.9309 44.8248 24.093 45.04 24.0501 45.04C23.8562 45.04 22.4976 44.4953 21.7246 44.1076C20.7526 43.6202 19.8323 43.0428 19.0581 42.4349C18.0126 41.6138 16.4847 39.9631 15.8259 38.9427L15.6926 38.7363H18.0845H20.4765L20.6561 39.2429ZM27.942 42.1883V45.6404H27.7662C27.6694 45.6404 27.4061 45.5769 27.1809 45.4995C25.1461 44.7994 23.4156 42.7933 22.122 39.6347C21.9385 39.1869 21.7884 38.8015 21.7884 38.7783C21.7884 38.7552 23.1729 38.7363 24.8652 38.7363H27.942V42.1883ZM30.4935 41.3253V41.9632H33.1H35.7067L36.5474 42.8015L37.3881 43.6398L37.2689 43.8703C37.2034 43.997 37.134 44.3218 37.1146 44.592C37.0329 45.7344 37.86 46.6195 39.0257 46.6369C40.4572 46.6582 41.4277 45.1196 40.7815 43.8531C40.3626 43.032 39.4737 42.6183 38.5578 42.8183C38.3501 42.8637 38.2644 42.7955 37.2484 41.7772L36.1612 40.6875H33.3274H30.4935V41.3253ZM39.379 44.0749C39.4822 44.1218 39.6211 44.2751 39.6876 44.4154C40.0412 45.1606 39.0985 45.7769 38.508 45.1865C38.3053 44.9837 38.2841 44.9219 38.3214 44.6428C38.3925 44.1134 38.8841 43.8494 39.379 44.0749Z"/></svg>