<svg viewBox="0 0 60 61" fill="currentcolor" xmlns="http://www.w3.org/2000/svg"><path style="fill:green" fill-rule="evenodd" clip-rule="evenodd" d="M33.5069 16.0539C32.9628 16.1964 32.4452 16.4912 32.0002 16.912C30.9115 17.9415 30.6061 19.5241 31.237 20.8664C31.6479 21.7404 32.7527 22.6096 33.6504 22.7651L34.006 22.8266L33.4237 22.9412C31.6096 23.2981 30.0514 24.8678 29.7277 26.6646C29.6185 27.2709 29.6099 29.7028 29.716 29.9819C29.7608 30.0997 29.9059 30.2244 30.0612 30.2784C30.4205 30.4037 38.2409 30.4093 38.5989 30.2845C38.7366 30.2365 38.8919 30.1038 38.944 29.9895C39.0843 29.6814 39.0635 27.3015 38.9141 26.5869C38.5347 24.7721 37.0617 23.3066 35.2538 22.9454L34.6715 22.8291L35.0042 22.7672C36.3167 22.5232 37.4353 21.3598 37.7199 19.9428C38.0068 18.5142 37.0289 16.7564 35.6518 16.2253C35.1358 16.0264 33.9683 15.933 33.5069 16.0539ZM35.2584 17.4261C35.9752 17.7599 36.5431 18.6286 36.5431 19.3914C36.5431 19.8119 36.2951 20.441 35.9881 20.7998C35.4207 21.4627 34.4882 21.7173 33.5997 21.452C33.0761 21.2956 32.4316 20.6238 32.2669 20.0626C32.1028 19.5033 32.1011 19.2838 32.2572 18.7582C32.5225 17.8648 33.3869 17.2303 34.3387 17.2303C34.6883 17.2303 34.9639 17.2889 35.2584 17.4261ZM35.512 24.3122C36.3861 24.6343 36.9894 25.1802 37.4211 26.0398C37.704 26.6028 37.8012 27.2063 37.7731 28.2232L37.7493 29.0825L34.3179 29.1042L30.8865 29.1259V28.1442C30.8865 27.5294 30.9345 26.9773 31.0148 26.6668C31.5222 24.706 33.6119 23.6119 35.512 24.3122ZM25.1954 31.379C24.4806 31.4832 23.5567 31.751 22.9276 32.0362C22.1778 32.3762 21.1147 33.0999 20.6164 33.6097L20.2035 34.032H19.5973H18.9911V33.6318C18.9911 33.344 18.9434 33.1803 18.8215 33.0495C18.6554 32.8712 18.6066 32.8674 16.4984 32.8674H14.3448L14.1724 33.0866C14.0023 33.3028 14 33.3733 14 38.316C14 43.2588 14.0023 43.3292 14.1724 43.5454L14.3448 43.7646H16.4871C18.6188 43.7646 18.6302 43.7637 18.8103 43.5721C18.9477 43.4257 18.9911 43.2766 18.9911 42.9502V42.5209L27.0808 42.4981L35.1706 42.4753L35.7807 42.2524C36.5933 41.9556 37.2116 41.5743 37.7797 41.0195C38.4942 40.322 42.5299 34.8434 42.6684 34.3827C42.9844 33.333 42.5378 32.3041 41.5225 31.7418C41.1428 31.5317 40.9903 31.4959 40.4944 31.5005C39.4658 31.5101 39.1343 31.748 37.1151 33.9252C36.2951 34.8094 35.6092 35.4852 35.5908 35.4271C35.5725 35.3689 35.5117 35.173 35.4557 34.9917C35.3123 34.5272 34.6123 33.8488 34.0944 33.6723C33.7704 33.5619 33.3694 33.5329 32.1685 33.5329H30.6518L30.4303 33.2625C29.7923 32.4841 28.4482 31.646 27.4665 31.4146C26.8918 31.2791 25.9783 31.2648 25.1954 31.379ZM27.3152 32.6659C28.0552 32.8809 28.8179 33.3864 29.4692 34.0935L30.0639 34.7391L31.8727 34.7807C33.4128 34.8161 33.7145 34.844 33.9043 34.9686C34.4073 35.2988 34.5076 35.9974 34.1133 36.4254C33.7166 36.856 33.6726 36.8603 29.5944 36.8603C27.0798 36.8603 25.7457 36.8901 25.6364 36.9485C25.2375 37.1621 25.275 37.8218 25.6971 38.0141C25.9862 38.1458 33.5881 38.1447 34.2448 38.0127C35.0068 37.8598 35.473 37.5099 36.7785 36.1116C39.5332 33.1609 39.8085 32.8912 40.1797 32.7807C40.6391 32.644 41.0802 32.8005 41.3457 33.1946C41.6939 33.7112 41.6301 33.8891 40.5945 35.2942C37.1292 39.9954 36.7893 40.3982 35.9192 40.8344C35.0252 41.2826 35.3075 41.2691 26.8359 41.2691H18.989L19.0108 38.2952L19.0327 35.3214L19.859 35.2974L20.6853 35.2734L21.3564 34.6297C22.1225 33.8947 23.021 33.304 23.8447 32.9939C24.9847 32.5649 26.4807 32.4234 27.3152 32.6659ZM17.7433 38.316V42.5169H16.4955H15.2478V38.316V34.1152H16.4955H17.7433V38.316Z"/></svg>