<svg viewBox="0 0 60 61" fill="currentcolor" xmlns="http://www.w3.org/2000/svg"><path style="fill:green" d="M26.234 27.648C24.43 30.09 23.792 31.498 23.792 33.434C23.792 36.734 26.388 39.286 29.864 39.286C33.296 39.286 35.848 36.888 35.848 33.456C35.848 30.2 33.604 27.868 30.282 27.868C29.886 27.868 29.468 27.934 29.072 28.044L32.922 22.918H29.71L26.234 27.648ZM26.674 33.456C26.674 31.52 27.95 30.178 29.864 30.178C31.712 30.178 33.01 31.52 33.01 33.456C33.01 35.414 31.69 36.778 29.864 36.778C27.972 36.778 26.674 35.414 26.674 33.456Z"/></svg>