<svg viewBox="0 0 60 61" fill="currentcolor" xmlns="http://www.w3.org/2000/svg"><path  style="fill:green" fill-rule="evenodd" clip-rule="evenodd" d="M31.427 14.0164C31.1162 14.0489 30.7911 14.1417 30.5448 14.2682C30.1332 14.4796 29.8295 14.8138 29.5634 15.3479C29.3805 15.7151 29.2485 16.1405 29.1779 16.5901C29.1483 16.7791 29.1442 16.8605 29.1446 17.2545C29.145 17.6728 29.1477 17.7183 29.1843 17.9205C29.2784 18.4405 29.444 18.8485 29.7431 19.2973C30.3138 20.1537 31.1527 20.6851 32.0241 20.7423C32.302 20.7605 32.6715 20.7018 32.9338 20.5976C33.8702 20.2261 34.6309 19.1867 34.8181 18.0232C34.8536 17.802 34.8534 17.3124 34.8177 17.0824C34.6927 16.2785 34.3344 15.5245 33.7835 14.9059C33.5582 14.653 33.2227 14.3895 32.9542 14.2548C32.5486 14.0512 31.9653 13.9602 31.427 14.0164ZM36.7534 14.8902C36.741 14.8926 36.6804 14.9027 36.6187 14.9126C35.9425 15.0214 35.363 15.5368 35.0877 16.2742C34.9639 16.6059 34.9099 16.9198 34.9101 17.3068C34.9106 18.107 35.1788 18.7873 35.6815 19.2631C35.8354 19.4088 35.9971 19.5185 36.2276 19.6335C36.7875 19.9129 37.1443 19.9191 37.6998 19.659C37.7874 19.618 37.8982 19.5587 37.946 19.5272C38.1507 19.3923 38.4455 19.0604 38.606 18.7843C38.674 18.6672 38.6764 18.6649 38.6866 18.7073C38.6923 18.7314 38.7145 18.8285 38.7358 18.9232C38.81 19.2522 38.9188 19.4574 39.1328 19.6723C39.3976 19.9382 39.7901 20.144 40.1572 20.2094C40.285 20.2322 40.5463 20.2285 40.6596 20.2023C40.8577 20.1565 41.1932 19.9568 41.4266 19.7459C41.4821 19.6956 41.5276 19.6613 41.5276 19.6696C41.5276 19.6778 41.5144 19.7396 41.4984 19.8069C41.4022 20.2095 41.4368 20.6967 41.5864 21.0484C41.7517 21.4367 42.1165 21.7471 42.5378 21.8578C42.7146 21.9042 42.9835 21.9024 43.1707 21.8535C43.2482 21.8332 43.3065 21.8242 43.3026 21.8331C43.1503 22.1754 43.1076 22.3182 43.0818 22.5724C43.0686 22.7016 43.0687 22.7807 43.0822 22.9052C43.1591 23.6147 43.6188 24.0829 44.281 24.126C45.0911 24.1788 45.8329 23.5342 45.9809 22.6488C46.013 22.4567 46.0037 22.1746 45.9596 22.0049C45.8912 21.7416 45.7488 21.4664 45.5674 21.2465C45.4437 21.0967 45.348 21.0356 45.2072 21.0165C45.1466 21.0083 45.0333 20.9851 44.9555 20.9651C44.7339 20.908 44.4959 20.9234 44.257 21.0101C44.2046 21.0291 44.1616 21.0407 44.1616 21.0359C44.1616 21.0311 44.1856 20.9715 44.2148 20.9034C44.397 20.4791 44.4191 19.9366 44.2728 19.4774C44.1244 19.0115 43.7521 18.645 43.3161 18.5354C43.1232 18.4869 42.8588 18.4901 42.6581 18.5433C42.5271 18.578 42.2544 18.7137 42.1381 18.8021C42.0829 18.844 42.035 18.8783 42.0316 18.8783C42.0282 18.8783 42.0343 18.8396 42.0452 18.7922C42.0955 18.5725 42.1152 17.894 42.0804 17.5817C42.0389 17.2098 41.9077 16.9322 41.6459 16.6622C41.1355 16.1359 40.1607 16.0135 39.5183 16.3952C39.3919 16.4702 39.1942 16.6613 39.1041 16.7954C39.0691 16.8475 39.0374 16.887 39.0337 16.8832C39.0299 16.8795 39.0109 16.8065 38.9914 16.7212C38.7741 15.7691 38.0454 15.0333 37.1925 14.9047C37.0639 14.8853 36.8195 14.8773 36.7534 14.8902ZM32.0591 15.1827C32.2418 15.2199 32.4827 15.3114 32.6026 15.3892C33.074 15.6949 33.5224 16.523 33.6116 17.2525C33.6338 17.4341 33.6223 17.8151 33.589 18.0028C33.475 18.6459 33.1422 19.1777 32.7143 19.4003C32.4226 19.552 32.1576 19.5983 31.9192 19.5392C31.4643 19.4264 30.8463 18.8997 30.6043 18.4187C30.4311 18.0742 30.3524 17.7176 30.3375 17.2085C30.3217 16.6668 30.3923 16.2737 30.5685 15.9225C30.7224 15.6156 30.9694 15.3673 31.2394 15.2479C31.4641 15.1485 31.7715 15.1241 32.0591 15.1827ZM37.1849 16.0879C37.3659 16.1785 37.5736 16.4047 37.6925 16.6408C37.8992 17.0518 37.8953 17.6039 37.6825 18.0327C37.6417 18.115 37.5705 18.2276 37.5243 18.2829C37.4319 18.3936 37.2435 18.5417 37.1155 18.6043L37.0332 18.6446L36.938 18.6196C36.617 18.5354 36.3921 18.3648 36.2631 18.1075C36.1627 17.9074 36.1077 17.6043 36.1069 17.247C36.1062 16.9557 36.1283 16.8302 36.2063 16.682C36.3028 16.4985 36.568 16.2205 36.7462 16.1161C36.9164 16.0163 37.0276 16.0092 37.1849 16.0879ZM40.6501 17.3722C40.7454 17.4281 40.865 17.5642 40.9176 17.6766C40.9594 17.7659 40.9654 17.7957 40.971 17.9429C40.9784 18.1366 40.9553 18.271 40.8798 18.472C40.7832 18.7292 40.6118 18.9754 40.4889 19.0338C40.4049 19.0736 40.3064 19.0648 40.185 19.0066C40.0556 18.9446 39.9708 18.8608 39.9114 18.7364C39.8376 18.5818 39.8175 18.4649 39.8251 18.2347C39.8309 18.0577 39.8376 18.0154 39.8792 17.8929C39.9397 17.7144 39.9869 17.6337 40.0906 17.5313C40.1682 17.4547 40.3108 17.3653 40.403 17.3355C40.4658 17.3152 40.5823 17.3325 40.6501 17.3722ZM43.1123 19.7281C43.1534 19.8085 43.1739 19.9374 43.1739 20.115C43.1739 20.3947 43.1136 20.5618 42.9736 20.6706C42.8084 20.7989 42.6711 20.5429 42.6825 20.128C42.6885 19.9119 42.7075 19.8714 42.851 19.769C43.0148 19.6521 43.0692 19.6436 43.1123 19.7281ZM23.5584 19.9728C23.4263 19.9918 23.2012 20.0509 23.0807 20.0983C22.7217 20.2395 22.2199 20.6345 21.954 20.9852C21.5083 21.5731 21.2737 22.323 21.2741 23.1586C21.2743 23.5731 21.3164 23.8899 21.421 24.2661C21.56 24.766 21.8466 25.3309 22.1393 25.682C22.844 26.5271 23.7199 26.8694 24.6803 26.6749C26.3461 26.3376 27.3281 24.3949 26.83 22.422C26.7097 21.9456 26.5129 21.492 26.2894 21.1759C26.1772 21.0173 25.9414 20.7676 25.7837 20.6404C25.3602 20.2988 24.7965 20.0522 24.2724 19.9791C24.0925 19.954 23.7125 19.9506 23.5584 19.9728ZM36.267 19.966C35.4336 19.9909 34.8695 20.0857 34.163 20.3199C32.9176 20.7326 31.9531 21.3209 31.4719 21.9613C31.0613 22.5077 30.822 23.1285 30.7273 23.8932C30.6963 24.1439 30.6918 24.7912 30.7193 25.0593C30.7839 25.6915 30.9243 26.3236 31.1463 26.9825C31.2705 27.3511 31.3188 27.4754 31.5827 28.1049C32.3159 29.8544 32.5045 30.44 32.5804 31.2029C32.6023 31.4236 32.602 32.1995 32.5798 32.7968C32.5301 34.1334 32.5241 35.2943 32.5639 35.8649C32.6311 36.8296 32.8104 37.3349 33.2968 37.9302C33.4851 38.1606 33.823 38.5045 34.0071 38.6531C34.4919 39.0444 35.0506 39.2783 35.7282 39.3737C36.3039 39.4547 37.3394 39.4625 37.7651 39.389C38.1236 39.327 38.3917 39.2077 38.8638 38.9002C39.773 38.3078 40.6265 37.2774 41.2647 36.0013C42.2905 33.9505 43.2458 30.3619 43.4145 27.9258C43.4374 27.5966 43.4241 26.6918 43.392 26.3799C43.2758 25.2538 43.0273 24.3425 42.5972 23.4654C42.0783 22.4071 41.3541 21.5684 40.4276 20.9525C40.114 20.744 39.9766 20.6661 39.6086 20.4878C38.9327 20.1604 38.5513 20.0537 37.8684 20.0012C37.4408 19.9684 36.7203 19.9525 36.267 19.966ZM24.2941 21.144C24.4198 21.1779 24.6636 21.302 24.7879 21.3954C24.9365 21.5071 25.2215 21.7975 25.3231 21.9408C25.6196 22.3589 25.7533 22.8422 25.7533 23.4962C25.7533 24.0598 25.6244 24.5464 25.3787 24.9109C25.2321 25.1284 24.9719 25.3488 24.7541 25.4397C24.3962 25.5892 23.9594 25.5565 23.5722 25.3512C23.0454 25.0719 22.6443 24.4902 22.4946 23.7887C22.4578 23.6164 22.4542 23.571 22.4538 23.2634C22.4531 22.8735 22.4754 22.7273 22.5869 22.3885C22.7067 22.0245 22.8718 21.7444 23.1039 21.5114C23.3059 21.3086 23.5203 21.1829 23.7553 21.1294C23.8711 21.103 24.1723 21.1112 24.2941 21.144ZM37.5327 21.1838C38.2843 21.2264 38.6253 21.3037 39.1106 21.5418C39.5576 21.7611 39.9476 22.0485 40.4102 22.4995C40.8898 22.9671 41.255 23.4527 41.5056 23.9561C41.9081 24.7647 42.1398 25.6392 42.2162 26.6382C42.2377 26.9197 42.238 27.6561 42.2167 27.9628C42.1465 28.975 41.9666 29.9973 41.6099 31.4121C40.8358 34.4825 39.8389 36.5583 38.6466 37.5825C38.0333 38.1094 37.3843 38.343 36.6119 38.3148C35.7205 38.2823 34.8737 37.9059 34.339 37.3043C34.1272 37.0661 33.8661 36.6097 33.8066 36.3737C33.7106 35.9932 33.7038 35.4286 33.762 32.6771C33.7811 31.7729 33.7716 31.3554 33.7223 30.9307C33.6186 30.0384 33.3498 29.1839 32.6147 27.409C32.5346 27.2156 32.4359 26.9765 32.3954 26.8777C31.6468 25.0506 31.6899 23.5055 32.5153 22.5858C33.2206 21.8 34.4772 21.305 36.0724 21.1847C36.3158 21.1664 37.2158 21.1658 37.5327 21.1838ZM44.7134 22.1193C44.7864 22.2122 44.8093 22.2865 44.802 22.4076C44.7935 22.5501 44.7457 22.6514 44.6345 22.7625C44.5454 22.8516 44.4115 22.9338 44.3551 22.934C44.2824 22.9342 44.2215 22.8309 44.2215 22.7074C44.2215 22.6209 44.2618 22.5298 44.3629 22.3882C44.4276 22.2975 44.6436 22.0811 44.6694 22.0811C44.6771 22.0811 44.6968 22.0983 44.7134 22.1193ZM18.794 22.3448C18.2124 22.4529 17.6767 22.9386 17.4096 23.6001C17.2748 23.934 17.2146 24.2988 17.228 24.7001C17.2329 24.8442 17.2413 24.9814 17.2467 25.0051C17.2566 25.0476 17.2553 25.0471 17.161 24.9733C16.7367 24.6411 16.2765 24.4864 15.8576 24.5351C15.1512 24.6172 14.6598 25.1414 14.5032 25.9797C14.4849 26.0779 14.4781 26.1957 14.4783 26.4138C14.4787 26.7575 14.5055 26.9246 14.5972 27.1535C14.6517 27.2898 14.788 27.514 14.8915 27.6378C14.9245 27.6773 14.9483 27.7127 14.9444 27.7166C14.9405 27.7205 14.8996 27.707 14.8536 27.6866C14.6825 27.611 14.5525 27.5861 14.2864 27.5779C13.9156 27.5665 13.6984 27.6148 13.4884 27.7552C13.2462 27.9172 13.0517 28.2179 12.9574 28.5764C12.9106 28.7542 12.8996 29.082 12.9333 29.295C12.9895 29.6495 13.1725 30.0428 13.3982 30.2938C13.4355 30.3353 13.466 30.3733 13.466 30.3782C13.466 30.3832 13.4059 30.3873 13.3323 30.3873C13.0407 30.3873 12.7726 30.4837 12.5114 30.6825C11.97 31.0944 11.8481 31.778 12.1954 32.454C12.5188 33.0838 13.1655 33.4749 13.8177 33.4352C13.9866 33.425 14.1505 33.3872 14.3012 33.3239C14.7044 33.1545 14.9859 32.7609 15.0392 32.292C15.0746 31.9807 14.9915 31.6208 14.814 31.3168C14.7462 31.2008 14.6075 31.022 14.5231 30.9418C14.4932 30.9135 14.4688 30.8865 14.4688 30.882C14.4688 30.8774 14.5317 30.872 14.6086 30.87C14.9421 30.8614 15.2925 30.7136 15.5368 30.4786C15.7218 30.3006 15.8351 30.109 15.9141 29.841C15.9687 29.6556 15.9821 29.3081 15.9429 29.0899C15.8984 28.8418 15.8014 28.5881 15.676 28.3922L15.6214 28.3068L15.7577 28.3752C16.0465 28.5203 16.2707 28.5695 16.5895 28.5576C16.7531 28.5516 16.8233 28.5418 16.9274 28.5107C17.2807 28.4052 17.5691 28.1837 17.7913 27.8472C17.993 27.5419 18.0889 27.2529 18.1017 26.9114C18.1059 26.7982 18.1127 26.7056 18.1167 26.7056C18.1208 26.7056 18.1465 26.7253 18.1739 26.7494C18.3532 26.9068 18.7266 27.0555 19.1232 27.1274C19.3575 27.1699 19.7877 27.1733 19.9838 27.1342C20.2728 27.0766 20.5038 26.9463 20.7403 26.7076C21.3261 26.1164 21.5595 25.1149 21.3241 24.2021C21.1664 23.5904 20.8014 23.0746 20.2771 22.7224C20.0131 22.5451 19.7509 22.4289 19.4675 22.3637C19.2898 22.3228 18.9622 22.3136 18.794 22.3448ZM19.198 23.4951C19.3917 23.5467 19.6296 23.7098 19.8576 23.9474C20.0779 24.1769 20.1445 24.3413 20.193 24.7755C20.226 25.0713 20.2233 25.3611 20.1863 25.4808C20.1345 25.6487 19.9448 25.845 19.7468 25.9356C19.3877 26.1 18.8903 25.8573 18.6059 25.3788C18.3309 24.9163 18.3098 24.3881 18.5469 23.8981C18.6506 23.6837 18.7783 23.5444 18.9184 23.4927C18.9848 23.4683 19.1007 23.4693 19.198 23.4951ZM16.2884 25.7835C16.4648 25.8656 16.6666 26.1156 16.8454 26.4736C16.9658 26.7146 16.9743 26.7487 16.9389 26.8494C16.9004 26.9589 16.78 27.1575 16.704 27.2368C16.5931 27.3526 16.4856 27.3895 16.3508 27.3581C16.0781 27.2947 15.7759 26.9585 15.69 26.6226C15.6018 26.2781 15.6837 25.9607 15.8951 25.8272C16.0336 25.7398 16.1636 25.7254 16.2884 25.7835ZM21.8397 26.871C21.2031 26.9148 20.6732 27.0189 20.096 27.2135C18.71 27.6808 17.4418 28.6007 16.6498 29.7133C16.1628 30.3976 15.8877 31.0941 15.7263 32.0515C15.619 32.6876 15.5849 33.1835 15.5955 33.9526C15.6052 34.6518 15.6388 35.0057 15.7422 35.4982C15.9704 36.5846 16.6649 38.1802 17.6378 39.8534C18.4432 41.2386 19.4291 42.6525 20.2381 43.5827C20.4662 43.845 21.0558 44.4384 21.2784 44.6296C22.7208 45.8688 24.1267 46.326 25.573 46.0263C26.0696 45.9234 26.6281 45.6962 27.1285 45.3934C28.4211 44.6114 28.9369 43.529 28.8916 41.6942C28.872 40.9025 28.719 40.3847 27.9758 38.5962C27.5661 37.61 27.5135 37.4014 27.4728 36.5982C27.453 36.208 27.4631 34.5611 27.4884 34.054C27.5193 33.4341 27.5501 32.9654 27.5866 32.5574C27.6325 32.044 27.6538 31.7024 27.6539 31.4791C27.6542 30.6666 27.4023 29.6877 27.0111 28.9805C26.8004 28.5997 26.5431 28.2574 26.2403 27.9549C25.8853 27.6004 25.4854 27.3369 25.0648 27.1802C24.7159 27.0503 24.1347 26.9468 23.4036 26.8843C23.1559 26.8631 22.0859 26.854 21.8397 26.871ZM23.5532 28.0442C24.1093 28.123 24.5726 28.2633 24.9267 28.4603C25.1712 28.5962 25.3232 28.713 25.5445 28.9345C25.9774 29.368 26.2109 29.8404 26.374 30.6128C26.4503 30.9742 26.4632 31.1326 26.4624 31.6968C26.4617 32.2467 26.4409 32.581 26.3586 33.3655C26.2138 34.7463 26.2096 34.8084 26.2102 35.573C26.2106 36.0743 26.2165 36.2745 26.237 36.4785C26.346 37.5659 26.5724 38.4074 27.0486 39.4956C27.4049 40.3097 27.5795 40.8589 27.6693 41.4473C27.8438 42.5914 27.5713 43.5039 26.8835 44.078C25.8912 44.9063 24.7331 45.128 23.5981 44.7071C22.799 44.4108 21.8096 43.5626 20.7492 42.265C19.7081 40.9908 18.761 39.517 17.9731 37.9452C17.2473 36.4971 16.929 35.5916 16.8103 34.6377C16.7782 34.379 16.7654 33.6506 16.7869 33.3057C16.92 31.1765 17.6813 29.7759 19.1737 28.9145C19.986 28.4458 21.1192 28.1262 22.3559 28.0171C22.5331 28.0015 23.3882 28.0208 23.5532 28.0442ZM14.4009 28.8005C14.6217 28.9269 14.7556 29.118 14.7659 29.3213C14.7732 29.4655 14.7476 29.553 14.6761 29.6281C14.6213 29.6857 14.6164 29.6876 14.5489 29.6784C14.4563 29.6657 14.3737 29.6155 14.2769 29.5132C14.1621 29.3918 14.1189 29.2895 14.1119 29.123C14.1057 28.9729 14.125 28.8626 14.1706 28.7876C14.1994 28.7402 14.2045 28.738 14.2632 28.7474C14.2973 28.7528 14.3593 28.7768 14.4009 28.8005ZM13.5334 31.6288C13.5828 31.6517 13.6456 31.6929 13.673 31.7203C13.7671 31.8142 13.8402 32.0013 13.8402 32.1481V32.2431H13.7608C13.6614 32.2431 13.5635 32.1964 13.4493 32.0946C13.3129 31.973 13.1966 31.768 13.1966 31.6488C13.1966 31.5624 13.3688 31.5522 13.5334 31.6288Z"/></svg>