<svg viewBox="0 0 60 61" fill="currentcolor" xmlns="http://www.w3.org/2000/svg"><path style="fill:green" fill-rule="evenodd" clip-rule="evenodd" d="M27.199 13.5134C26.6647 13.5692 25.9581 13.7283 25.3586 13.9277C22.4691 14.8889 20.2364 17.2854 19.4812 20.2362C19.2712 21.0566 19.2195 21.4932 19.2187 22.4537C19.2174 23.7395 19.3937 24.6889 19.8413 25.8084C20.6 27.7062 22.1021 29.4013 23.8708 30.3557C24.0532 30.4541 24.2025 30.5402 24.2025 30.5471C24.2025 30.5539 24.0873 30.5973 23.9466 30.6436C22.3942 31.1536 20.8198 32.0345 19.5401 33.1092C18.9897 33.5715 18.066 34.5143 17.6314 35.0576C16.2314 36.8075 15.2946 38.8849 14.8963 41.1226C14.7119 42.1587 14.6363 43.4842 14.7467 43.7483C14.9886 44.3274 15.8121 44.3732 16.0965 43.8234C16.1688 43.6837 16.1836 43.5742 16.2081 42.9989C16.2839 41.2127 16.6574 39.7418 17.4354 38.1659C18.1811 36.6553 19.1843 35.3665 20.4319 34.3165C22.2589 32.7788 24.3001 31.8794 26.7111 31.5498C26.8637 31.5289 27.4577 31.4957 28.031 31.4759C29.3737 31.4296 30.0542 31.33 30.9068 31.055C33.2244 30.3074 35.1248 28.7008 36.2204 26.5626C37.1466 24.7553 37.4329 22.6774 37.0312 20.6784C36.8934 19.9924 36.6023 19.1483 36.2773 18.4925C34.898 15.7085 32.2422 13.8516 29.1492 13.5084C28.7443 13.4635 27.6505 13.4663 27.199 13.5134ZM28.7891 14.9865C31.4397 15.2151 33.7196 16.7523 34.9106 19.1137C35.3669 20.0182 35.622 20.9596 35.6825 21.9613C35.7702 23.414 35.4943 24.7157 34.8326 25.9715C33.9644 27.6192 32.4562 28.9238 30.7088 29.5385C29.1033 30.1034 27.2985 30.1043 25.7027 29.5411C23.3794 28.7211 21.5743 26.7633 20.946 24.3822C20.6241 23.1623 20.6182 21.85 20.9289 20.6153C21.6213 17.8642 23.8893 15.6956 26.674 15.1219C27.4363 14.9649 28.0688 14.9244 28.7891 14.9865ZM36.7444 28.9686C36.6277 29.0427 36.5487 29.1304 36.497 29.2435C36.4553 29.3348 36.0824 30.4543 35.6684 31.7313L34.9157 34.053L32.3736 34.0559C30.4999 34.0581 29.7986 34.0708 29.7062 34.1042C29.5375 34.1654 29.3332 34.3714 29.2793 34.5349C29.2135 34.7343 29.253 35.0125 29.3688 35.1643C29.4229 35.2352 30.3764 35.9539 31.4878 36.7614C32.5992 37.5689 33.5141 38.2449 33.521 38.2637C33.5279 38.2825 33.1824 39.379 32.7534 40.7003C32.3243 42.0217 31.9736 43.152 31.9741 43.212C31.9746 43.272 32.0065 43.3894 32.0451 43.4728C32.2105 43.8299 32.598 43.9971 32.9346 43.8565C33.0033 43.8278 33.968 43.1442 35.0784 42.3375C36.2465 41.4889 37.1196 40.8792 37.15 40.8909C37.1789 40.902 38.0772 41.5471 39.1461 42.3244C40.2151 43.1017 41.1651 43.7762 41.2572 43.8232C41.731 44.0649 42.2601 43.7261 42.2527 43.186C42.2516 43.1061 41.9776 42.1998 41.6439 41.1719C41.3102 40.1441 40.9658 39.0813 40.8787 38.8103C40.7916 38.5393 40.7135 38.3057 40.7051 38.2912C40.6967 38.2768 41.6186 37.5901 42.7537 36.7653C44.1212 35.7717 44.8436 35.2236 44.8947 35.1409C45.121 34.7746 44.9748 34.3043 44.5787 34.1243C44.435 34.059 44.2676 34.0547 41.8788 34.0539L39.3322 34.053L39.1054 33.3613C38.9806 32.9808 38.6711 32.0298 38.4175 31.248C38.1638 30.4662 37.9124 29.6919 37.8588 29.5274C37.7044 29.0537 37.4896 28.8599 37.1189 28.8599C36.9606 28.8599 36.8782 28.8838 36.7444 28.9686ZM37.6535 33.4727C37.9253 34.3106 38.1726 35.0441 38.2031 35.1027C38.2741 35.2391 38.4058 35.3613 38.55 35.4246C38.6363 35.4625 39.076 35.4791 40.3687 35.4935L42.0736 35.5124L40.7065 36.5047C39.9547 37.0504 39.3078 37.5451 39.2689 37.604C39.2296 37.6638 39.1916 37.8036 39.183 37.9208C39.1691 38.1088 39.2213 38.296 39.6832 39.7182C39.9668 40.5914 40.1945 41.3102 40.1892 41.3156C40.1839 41.3209 39.5825 40.8901 38.853 40.3583C38.1235 39.8265 37.4717 39.3673 37.4046 39.3378C37.3375 39.3083 37.1987 39.2841 37.0962 39.2841C36.8707 39.2841 36.908 39.2603 35.2711 40.4532C34.6144 40.9319 34.0714 41.3181 34.0644 41.3115C34.0575 41.3048 34.2854 40.5787 34.5709 39.6979C35.1388 37.9461 35.1524 37.8743 34.9693 37.6071C34.9198 37.535 34.3097 37.0652 33.5277 36.4972L32.1719 35.5124L33.8826 35.4935C35.5608 35.4749 35.5963 35.4729 35.7512 35.3901C35.8381 35.3437 35.9431 35.258 35.9846 35.1997C36.0261 35.1414 36.1994 34.6676 36.3698 34.1469C36.54 33.6262 36.7757 32.9063 36.8934 32.5471C37.0111 32.1879 37.1191 31.9065 37.1333 31.9216C37.1476 31.9368 37.3817 32.6348 37.6535 33.4727Z"/></svg>