<svg viewBox="0 0 60 60" fill="currentcolor" xmlns="http://www.w3.org/2000/svg"><path style="fill:green" d="M28.49 39.1707C32.076 39.1707 34.518 36.7947 34.518 33.3187C34.518 30.1507 32.384 27.9727 29.172 27.9727C28.072 27.9727 27.104 28.2587 26.334 28.7647L27.192 25.4207H33.55V22.8247H25.168L23.188 31.2507L25.674 31.7787C26.246 30.9427 27.368 30.3267 28.6 30.3267C30.536 30.3267 31.658 31.6027 31.658 33.4727C31.658 35.4307 30.448 36.6627 28.556 36.6627C26.774 36.6627 25.696 35.5847 25.696 33.7587H22.902C22.902 37.0147 25.124 39.1707 28.49 39.1707Z"/></svg>