<svg viewBox="0 0 60 61" fill="currentcolor" xmlns="http://www.w3.org/2000/svg"><path style="fill:green" fill-rule="evenodd" clip-rule="evenodd" d="M38.597 13.176C36.8968 13.6822 35.4608 14.4567 34.1817 15.5573C33.6528 16.0123 32.6996 17.087 32.45 17.5095C32.3786 17.6304 32.2968 17.7292 32.2682 17.7292C32.2396 17.7292 32.0162 17.5901 31.7717 17.4201C30.8937 16.8094 29.8033 16.3519 28.751 16.1525C28.4211 16.09 26.8061 15.8596 25.1623 15.6406C21.9524 15.213 21.9167 15.2123 21.7518 15.5741C21.6862 15.7181 21.7389 16.1276 22.0403 17.8161C22.4655 20.198 22.6013 20.7599 22.973 21.6751C23.4781 22.9184 24.1929 23.9645 25.1996 24.9335C26.8596 26.5316 28.7505 27.38 31.1918 27.6221C31.9535 27.6977 32.1243 27.6938 32.6051 27.5894C32.9059 27.5242 33.1625 27.4813 33.1754 27.4942C33.1883 27.5071 33.265 27.8006 33.3458 28.1463C33.4621 28.6438 33.5005 29.0994 33.5293 30.3278C33.5494 31.1819 33.5544 31.9581 33.5405 32.0529C33.517 32.213 33.5007 32.203 33.3097 31.9117C33.019 31.4685 32.186 30.6236 31.6413 30.2196C30.224 29.1683 28.1647 28.6405 26.4075 28.8782C23.121 29.3228 20.5257 31.88 20.0754 35.1177C19.9749 35.8409 19.9749 40.9776 20.0754 41.7009C20.5131 44.8477 23.0123 47.3895 26.1748 47.9042C30.1632 48.5534 33.9243 45.8351 34.5758 41.8324C34.6608 41.3105 34.6792 40.1397 34.6791 35.2685C34.6789 28.9376 34.6667 28.67 34.319 27.4013L34.1684 26.8518L34.4524 26.4926C34.6085 26.2951 34.795 26.0093 34.8668 25.8576C34.9644 25.6515 35.1222 25.5053 35.4915 25.2786C36.4924 24.6642 37.206 24.1027 38.0401 23.273C39.5251 21.7959 40.3016 20.3749 40.6915 18.421C41.0422 16.6631 40.8063 13.6368 40.2812 13.1592C40.0413 12.941 39.3635 12.9478 38.597 13.176ZM39.543 14.3943C39.6841 14.9343 39.78 16.1559 39.7382 16.8823C39.5734 19.745 38.3412 21.916 35.8927 23.6577L35.2818 24.0923L35.1938 23.3032C35.1455 22.8692 35.0739 22.3983 35.0348 22.2568C34.9701 22.0224 34.9869 21.9617 35.2228 21.5759C35.7237 20.7571 36.2611 20.0859 37.0532 19.2898L37.8529 18.4861L37.4942 18.072L37.1354 17.6578L36.8075 17.933C36.161 18.4756 34.9863 19.8135 34.6364 20.4059L34.5128 20.6153L34.172 20.0424C33.9846 19.7274 33.6967 19.2984 33.5321 19.0892C33.3675 18.8799 33.2042 18.6677 33.1691 18.6174C33.0849 18.4969 33.6071 17.7652 34.3176 17.008C35.3687 15.8879 36.9567 14.8921 38.4558 14.4133C38.844 14.2893 39.1934 14.1773 39.2322 14.1643C39.4162 14.103 39.479 14.1494 39.543 14.3943ZM28.9288 17.344C32.0217 18.1196 34.2285 21.0545 34.1028 24.225C34.0803 24.791 34.0436 24.9641 33.8717 25.3155C33.6924 25.682 33.6581 25.7172 33.5913 25.6022C32.9813 24.5522 32.1029 23.5546 31.1585 22.8395C30.5778 22.3997 28.9857 21.5406 28.7515 21.5406C28.6769 21.5406 28.5836 21.7033 28.4696 22.0322C28.3758 22.3026 28.3134 22.535 28.3309 22.5487C28.3485 22.5624 28.7281 22.7525 29.1745 22.9712C30.1477 23.4478 30.7317 23.8787 31.4894 24.6791C32.1786 25.4072 32.7773 26.3211 32.6267 26.4151C32.2822 26.6297 30.6527 26.4979 29.4919 26.1615C26.7777 25.375 24.6682 23.3185 23.7785 20.5916C23.6409 20.1696 22.9634 16.7931 22.9634 16.5289C22.9634 16.466 28.3779 17.2058 28.9288 17.344ZM28.43 30.0469C30.9625 30.4885 33.0014 32.5268 33.4429 35.0579C33.598 35.9476 33.598 40.871 33.4429 41.7606C33.0024 44.2865 30.9581 46.3308 28.4322 46.7713C25.0496 47.3612 21.8205 45.1129 21.236 41.7606C21.0811 40.8725 21.0808 35.9476 21.2356 35.0601C21.4548 33.8034 22.0622 32.6532 22.9903 31.7378C24.4337 30.3139 26.4203 29.6964 28.43 30.0469ZM26.4572 31.1402C25.4324 31.3274 24.5479 31.8012 23.7689 32.5802C23.1371 33.212 22.7686 33.8047 22.4776 34.6567L22.2929 35.1979V38.4093V41.6207L22.4776 42.1618C22.7686 43.0139 23.1371 43.6065 23.7689 44.2384C24.4049 44.8744 25.0036 45.2451 25.8454 45.5243C26.3178 45.681 26.5077 45.7038 27.3394 45.7038C28.1711 45.7038 28.361 45.681 28.8334 45.5243C29.6753 45.2451 30.2739 44.8744 30.9099 44.2384C31.5418 43.6065 31.9103 43.0139 32.2012 42.1618L32.3859 41.6207V38.4093V35.1979L32.1937 34.6332C31.9148 33.8144 31.5446 33.2268 30.9039 32.5862C29.9191 31.6014 28.9018 31.1511 27.5512 31.1024C27.1436 31.0878 26.6513 31.1047 26.4572 31.1402ZM28.0852 32.2737C29.5919 32.545 30.9451 33.8983 31.2165 35.405C31.261 35.6522 31.2919 36.8828 31.2919 38.4093C31.2919 39.9357 31.261 41.1664 31.2165 41.4136C31.0926 42.1013 30.663 42.9017 30.1274 43.4426C28.5888 44.9964 26.1218 44.9977 24.554 43.4453C24.0244 42.9208 23.5873 42.1074 23.4624 41.4136C23.3622 40.8575 23.3622 35.9611 23.4624 35.405C23.5873 34.7112 24.0244 33.8977 24.554 33.3732C25.5004 32.4361 26.7782 32.0382 28.0852 32.2737Z"/></svg>