<svg viewBox="0 0 60 61" fill="currentcolor" xmlns="http://www.w3.org/2000/svg"><path style="fill:green" fill-rule="evenodd" clip-rule="evenodd" d="M30.2478 14.8454C29.8974 14.8714 29.712 14.912 29.508 15.0075C29.1597 15.1705 28.8296 15.4358 28.2298 16.0348C27.7739 16.4899 27.5875 16.6955 27.4638 16.8795C27.4064 16.9649 27.3811 17.0126 27.3518 17.0908C27.3328 17.1413 27.3313 17.1531 27.3309 17.2541C27.3305 17.3488 27.3327 17.37 27.3475 17.4174C27.3974 17.5768 27.5196 17.7582 27.7093 17.9543L27.776 18.0234L27.4976 18.3022L27.2191 18.581L27.1369 18.5048C26.9738 18.3536 26.8939 18.2938 26.7789 18.237C26.6609 18.1786 26.5756 18.1571 26.4595 18.1564C26.2525 18.1552 26.1073 18.2366 25.7593 18.5485C25.4399 18.8349 24.9314 19.3336 23.5201 20.7446C22.2108 22.0537 21.7288 22.5436 21.4202 22.8786C21.0875 23.2399 20.9819 23.389 20.9396 23.5569C20.9181 23.6423 20.923 23.7769 20.9512 23.8726C20.995 24.0217 21.101 24.1845 21.2659 24.3561L21.3532 24.447L21.0748 24.7254C20.8187 24.9813 20.7953 25.0029 20.7832 24.9933C20.776 24.9876 20.7423 24.9564 20.7083 24.924C20.5119 24.7363 20.34 24.6226 20.1822 24.576C20.0928 24.5496 19.9696 24.5476 19.8869 24.5712C19.6836 24.6293 19.4924 24.7816 18.9791 25.2942C18.2438 26.0286 17.9728 26.3469 17.8036 26.6752C17.6442 26.9845 17.5958 27.2651 17.6154 27.7678C17.6326 28.2081 17.6663 28.3787 17.7835 28.6188C17.8973 28.8518 18.0615 29.0715 18.4074 29.4531C18.5291 29.5874 18.5438 29.6031 18.7856 29.8559C19.3152 30.4097 21.8662 32.959 22.2867 33.3546C22.3346 33.3997 22.395 33.4566 22.421 33.4812C22.8851 33.9208 23.2506 34.1888 23.5313 34.2955C23.7156 34.3655 23.8473 34.3898 24.1518 34.41C24.6189 34.441 24.8487 34.4095 25.217 34.264C25.5721 34.1237 25.7985 33.94 26.5718 33.1649C26.9728 32.763 27.2752 32.4309 27.3779 32.2796C27.499 32.1013 27.5109 31.9345 27.4157 31.7467C27.3622 31.641 27.2388 31.4742 27.1053 31.327L27.0275 31.2412L27.2301 31.0367C27.3415 30.9243 27.4659 30.7983 27.5065 30.7568L27.5803 30.6813L27.6261 30.7241C27.942 31.0193 28.2066 31.145 28.4207 31.1016C28.5779 31.0698 28.7145 30.9827 28.985 30.7419C29.1149 30.6263 29.2441 30.5013 29.6237 30.1234L29.9503 29.7984L31.8952 31.7411C38.8065 38.6442 39.523 39.3567 40.4804 40.2776C40.7286 40.5163 40.9904 40.7578 41.1336 40.8801C41.2432 40.9737 41.2726 40.9968 41.3477 41.0484C41.4663 41.1299 41.5275 41.1554 41.6904 41.1914C42.18 41.2995 42.5601 41.2098 42.9717 40.889C43.198 40.7127 43.5341 40.373 43.6873 40.1658C43.8448 39.9527 43.937 39.7579 43.9832 39.5408C43.9983 39.4696 44.0001 39.4422 44 39.2868C43.9998 39.0971 43.9921 39.0345 43.946 38.8506C43.8895 38.6251 43.7579 38.4556 43.1153 37.781C42.3592 36.9872 41.1229 35.7424 36.0049 30.6212C34.1178 28.733 32.5738 27.1853 32.5738 27.1819C32.5738 27.1786 32.733 27.0155 32.9276 26.8196C33.5805 26.1625 33.7489 25.9676 33.8337 25.7714C33.9455 25.513 33.8553 25.2582 33.5188 24.8817L33.4542 24.8095L33.7295 24.537C33.8809 24.3871 34.0075 24.2635 34.0108 24.2623C34.0142 24.261 34.0473 24.2883 34.0845 24.3229C34.1217 24.3575 34.1914 24.4174 34.2393 24.456C34.5557 24.7111 34.7522 24.7654 34.9675 24.657C35.1386 24.5708 35.5631 24.1838 36.2061 23.5279C36.302 23.4301 36.4048 23.3239 36.4347 23.2919C36.4646 23.2598 36.5088 23.2125 36.533 23.1867C36.6638 23.047 36.7945 22.8846 36.8727 22.7646C37.1903 22.2773 37.2826 21.5408 37.1053 20.9096C37.0572 20.7383 36.9761 20.5461 36.9125 20.4527C36.7676 20.2397 36.4717 19.9134 35.785 19.2094C35.5807 19 33.6054 17.0249 33.1725 16.5973C32.4185 15.8525 32.0491 15.5004 31.79 15.2797C31.6051 15.1222 31.4484 15.0202 31.3126 14.9689C31.1837 14.9203 31.0008 14.8817 30.7921 14.8593C30.69 14.8483 30.3318 14.8391 30.2478 14.8454ZM30.4982 16.2419C30.5828 16.2508 30.6955 16.2745 30.7298 16.2908C30.7539 16.3023 30.8628 16.3842 30.9137 16.4292C30.9267 16.4406 30.9683 16.4774 31.0062 16.5108C31.3521 16.816 31.8638 17.3178 33.6804 19.1329C35.0137 20.4652 35.2779 20.7347 35.5083 20.9976C35.6751 21.1878 35.7116 21.2459 35.7443 21.3733C35.8115 21.6343 35.789 21.7696 35.6405 21.9967C35.5322 22.1623 35.3873 22.3253 35.0181 22.697L34.7514 22.9655L31.8955 20.1098L29.0396 17.2542L29.2119 17.0811C29.8497 16.4406 30.1184 16.2517 30.4147 16.2355C30.4227 16.2351 30.4603 16.238 30.4982 16.2419ZM29.3879 19.6418C29.5535 19.8053 30.432 20.6813 31.34 21.5884L32.991 23.2376L32.7134 23.5152L32.4359 23.7928L30.3375 21.6944L28.2391 19.596L28.5132 19.3223L28.7873 19.0485L28.937 19.1965C29.0193 19.2779 29.2222 19.4783 29.3879 19.6418ZM26.6538 20.1152C27.2677 20.7204 27.8646 21.3149 29.9059 23.3544L32.133 25.5796L30.24 27.4716L28.347 29.3636L27.3745 28.3889C26.8396 27.8528 25.5594 26.5708 24.5296 25.5401L22.6573 23.6661L22.7441 23.577C23.3152 22.9912 23.6118 22.6918 24.5686 21.7348C25.5065 20.7969 25.9999 20.3083 26.3616 19.9591C26.3956 19.9264 26.4259 19.8995 26.429 19.8995C26.4321 19.8994 26.5333 19.9965 26.6538 20.1152ZM24.4639 27.5702L26.5612 29.6675L26.2849 29.9438L26.0086 30.22L23.9136 28.1256C22.7614 26.9736 21.8186 26.0284 21.8186 26.0252C21.8186 26.0181 22.3549 25.4728 22.3618 25.4728C22.3644 25.4728 23.3104 26.4166 24.4639 27.5702ZM20.8353 27.0914C21.2704 27.5218 22.5499 28.7978 23.6787 29.9269L25.7311 31.9797L25.4856 32.2224C25.0289 32.674 24.8105 32.8586 24.6235 32.9512C24.5179 33.0035 24.4649 33.0156 24.3623 33.0109C24.2363 33.0051 24.0715 32.9625 23.9935 32.9155C23.9269 32.8754 23.764 32.7407 23.6329 32.6174C23.2587 32.2652 22.9385 31.95 21.9964 31.0062C19.769 28.7747 19.3266 28.3194 19.1192 28.0455C19.062 27.9699 19.0496 27.9428 19.036 27.8641C19.0062 27.6914 19.0342 27.4464 19.1006 27.2983C19.1353 27.2212 19.5191 26.7863 19.9064 26.3855L20.008 26.2803L20.0261 26.2945C20.0361 26.3023 20.4002 26.6609 20.8353 27.0914ZM35.865 32.5141C40.6296 37.2806 41.1847 37.838 41.7653 38.438C42.212 38.8997 42.5135 39.2306 42.5395 39.2876C42.5462 39.3022 42.5434 39.3093 42.5193 39.3392C42.4468 39.4295 42.0909 39.7767 42.0709 39.7767C42.0514 39.7767 41.8807 39.631 41.6634 39.4287C41.0892 38.8943 40.295 38.1052 33.9381 31.7521L30.9663 28.7821L31.2566 28.4918C31.4162 28.3322 31.5485 28.2015 31.5505 28.2015C31.5525 28.2015 33.494 30.1422 35.865 32.5141ZM16.9824 37.2748C16.8654 37.4413 16.8052 37.5483 16.7855 37.6249C16.7294 37.8432 16.7233 37.9817 16.7178 39.1598L16.7132 40.1359L16.3214 40.1405C15.957 40.1448 15.8464 40.1495 15.6508 40.169C15.4175 40.1923 15.3088 40.234 15.2002 40.3418C15.0711 40.4699 15.032 40.5934 15.0101 40.9415C14.9966 41.1561 14.9966 43.2529 15.0101 43.5794C15.0325 44.1223 15.0628 44.2509 15.1992 44.3794C15.2773 44.4532 15.3547 44.4846 15.4977 44.5006C15.6687 44.5197 16.2512 44.5323 17.5696 44.5455C18.7051 44.5568 33.4953 44.5628 35.2988 44.5526C37.2637 44.5416 37.8013 44.5276 38 44.4824C38.2819 44.4183 38.4279 44.2338 38.4702 43.888C38.4918 43.7115 38.497 43.4834 38.5007 42.5344C38.5054 41.328 38.4953 40.8904 38.4585 40.7104C38.4169 40.507 38.3229 40.3657 38.1665 40.2714C38.0391 40.1946 37.8678 40.1579 37.5522 40.1399C37.416 40.1321 36.9426 40.1178 36.8212 40.1178H36.7549L36.751 40.0797C36.7489 40.0587 36.7436 39.6807 36.7394 39.2397C36.7274 38.0019 36.7161 37.7576 36.6625 37.5725C36.6068 37.3804 36.4741 37.2405 36.3061 37.1967C36.1745 37.1624 35.791 37.1475 34.7146 37.1347C33.692 37.1225 28.9258 37.1141 22.8518 37.1137L17.0958 37.1133L16.9824 37.2748ZM35.3224 39.3576L35.3206 40.1359H26.7499H18.1792L18.1773 39.3576L18.1755 38.5793H26.7499H35.3243L35.3224 39.3576ZM37.0442 42.3505V43.1608L34.2084 43.1559C32.6488 43.1531 28.912 43.1479 25.9044 43.1441C22.8969 43.1404 19.534 43.1352 18.4313 43.1325L16.4264 43.1277L16.4234 43.1123C16.4181 43.0859 16.4075 41.7667 16.4117 41.6708L16.4157 41.5801L16.5754 41.5755C16.964 41.5645 18.1462 41.5529 19.3911 41.548C20.1335 41.545 24.4092 41.5421 28.8926 41.5414L37.0442 41.5402V42.3505Z"/></svg>